<?xml version="1.0" encoding="utf-8"?>
<!-- Generator: Adobe Illustrator 18.1.0, SVG Export Plug-In . SVG Version: 6.00 Build 0)  -->
<!DOCTYPE svg PUBLIC "-//W3C//DTD SVG 1.1//EN" "http://www.w3.org/Graphics/SVG/1.1/DTD/svg11.dtd">
<svg version="1.1" id="Layer_1" xmlns="http://www.w3.org/2000/svg" xmlns:xlink="http://www.w3.org/1999/xlink" x="0px" y="0px"
	 viewBox="0 0 960 560" enable-background="new 0 0 960 560" xml:space="preserve">
<g>
	<path fill="#DBB7BE" d="M477.3,310.2c-2.8,0-5.1,0.4-6.8,1.5c-1.7,0.8-3.2,2.1-4.5,3.4c-1.1,1.5-1.9,2.8-2.4,4.5
		c-0.4,1.5-0.7,3-0.8,4.1h28.4c-0.4-4.5-1.9-7.7-4.1-10C485,311.3,481.5,310.2,477.3,310.2z"/>
	<path fill="#DBB7BE" d="M406.9,323.1h-20.7v23.9h20.5c1.9,0,3.6-0.2,5.3-0.7c1.7-0.4,3.2-1.1,4.5-1.9c1.3-0.8,2.4-1.9,3.2-3.4
		c0.8-1.5,1.1-3.4,1.1-5.6c0-4.5-1.3-7.7-3.9-9.6C414.3,323.9,411.1,323.1,406.9,323.1z"/>
	<path fill="#DBB7BE" d="M405.5,310.1c3.4,0,6.2-0.8,8.3-2.4c2.1-1.7,3.2-4.3,3.2-7.9c0-1.9-0.4-3.6-1.1-4.9c-0.7-1.3-1.7-2.4-3-3
		c-1.3-0.6-2.5-1.3-4.3-1.5c-1.5-0.2-3.2-0.4-4.9-0.4h-18v20.3h19.7L405.5,310.1L405.5,310.1z"/>
	<path fill="#DBB7BE" d="M434.4,186.6c-70.8,0-128.2,57.4-128.2,128.2S363.6,443,434.4,443s128.2-57.4,128.2-128.2
		C562.5,244,505.1,186.6,434.4,186.6z M459.3,280.8h35.3v8.5h-35.3V280.8z M437.2,347.9c-1.7,3.2-4.1,5.7-6.8,7.9
		c-2.8,2.1-6.2,3.6-9.8,4.5c-3.6,1.1-7.5,1.5-11.3,1.5h-42.1v-87h41c4.1,0,7.9,0.4,11.3,1.1c3.4,0.7,6.4,1.9,8.8,3.6
		s4.3,3.9,5.7,6.6c1.3,2.8,1.9,6.2,1.9,10.2c0,4.3-1.1,8.1-3,10.9c-1.9,3-4.9,5.3-9,7.3c5.3,1.5,9.4,4.3,12,8.1
		c2.5,3.9,3.9,8.5,3.9,13.8C439.7,341,438.8,344.6,437.2,347.9z M508.5,334.8H463c0,4.7,1.7,9.4,4.3,12c2.5,2.5,6.4,3.9,11.1,3.9
		c3.4,0,6.4-0.8,9-2.5c2.5-1.7,4.1-3.6,4.7-5.6h15.2c-2.4,7.5-6.2,13-11.3,16.2c-4.9,3.2-11.1,4.9-18.1,4.9c-4.9,0-9.4-0.8-13.4-2.4
		c-4.1-1.5-7.3-3.9-10.2-6.8c-2.8-3-4.9-6.4-6.4-10.5c-1.5-4.1-2.4-8.5-2.4-13.4c0-4.7,0.8-9.2,2.4-13.2c1.5-4.1,3.9-7.7,6.6-10.5
		c2.8-3,6.2-5.3,10.2-7.1c4.1-1.7,8.3-2.5,13.2-2.5c5.3,0,10,1.1,14.1,3.2c4.1,2.1,7.3,4.9,9.8,8.3c2.5,3.4,4.5,7.5,5.6,12
		C508.3,325.2,508.7,329.9,508.5,334.8z"/>
</g>
</svg>
