<?xml version="1.0" encoding="utf-8"?>
<!-- Generator: Adobe Illustrator 18.1.0, SVG Export Plug-In . SVG Version: 6.00 Build 0)  -->
<!DOCTYPE svg PUBLIC "-//W3C//DTD SVG 1.1//EN" "http://www.w3.org/Graphics/SVG/1.1/DTD/svg11.dtd">
<svg version="1.1" id="Layer_1" xmlns="http://www.w3.org/2000/svg" xmlns:xlink="http://www.w3.org/1999/xlink" x="0px" y="0px"
	 viewBox="0 0 1044.9 926" enable-background="new 0 0 1044.9 926" xml:space="preserve">
<path fill="#FFFFFF" d="M479.4,471.1c-1.1-2.2-2.9-4-5-5.1c-2.2-1.1-4.3-2.1-7.3-2.5c-2.5-0.4-5.4-0.7-8.3-0.7h-30.3v34.3h33.2v-0.3
	c5.8,0,10.5-1.5,14.1-4c3.6-2.9,5.4-7.3,5.4-13.4C481.2,476.1,480.5,473.2,479.4,471.1z M480.9,523.4c-4.3-3.2-9.8-4.7-17-4.7h-35
	v40.5h34.7c3.3,0,6.2-0.4,9-1.1c2.9-0.7,5.4-1.8,7.6-3.2c2.2-1.4,4-3.2,5.4-5.8c1.5-2.6,1.8-5.8,1.8-9.4
	C487.3,532.1,485.2,526.7,480.9,523.4z M480.9,523.4c-4.3-3.2-9.8-4.7-17-4.7h-35v40.5h34.7c3.3,0,6.2-0.4,9-1.1
	c2.9-0.7,5.4-1.8,7.6-3.2c2.2-1.4,4-3.2,5.4-5.8c1.5-2.6,1.8-5.8,1.8-9.4C487.3,532.1,485.2,526.7,480.9,523.4z M479.4,471.1
	c-1.1-2.2-2.9-4-5-5.1c-2.2-1.1-4.3-2.1-7.3-2.5c-2.5-0.4-5.4-0.7-8.3-0.7h-30.3v34.3h33.2v-0.3c5.8,0,10.5-1.5,14.1-4
	c3.6-2.9,5.4-7.3,5.4-13.4C481.2,476.1,480.5,473.2,479.4,471.1z M479.4,471.1c-1.1-2.2-2.9-4-5-5.1c-2.2-1.1-4.3-2.1-7.3-2.5
	c-2.5-0.4-5.4-0.7-8.3-0.7h-30.3v34.3h33.2v-0.3c5.8,0,10.5-1.5,14.1-4c3.6-2.9,5.4-7.3,5.4-13.4
	C481.2,476.1,480.5,473.2,479.4,471.1z M480.9,523.4c-4.3-3.2-9.8-4.7-17-4.7h-35v40.5h34.7c3.3,0,6.2-0.4,9-1.1
	c2.9-0.7,5.4-1.8,7.6-3.2c2.2-1.4,4-3.2,5.4-5.8c1.5-2.6,1.8-5.8,1.8-9.4C487.3,532.1,485.2,526.7,480.9,523.4z M599.7,502.9
	c-3.6-4-9.4-5.8-16.6-5.8c-4.7,0-8.7,0.7-11.6,2.6c-2.9,1.4-5.4,3.6-7.6,5.8c-1.8,2.6-3.3,4.7-4,7.6c-0.7,2.5-1.1,5-1.5,6.9h48
	C605.8,512.3,603.3,506.8,599.7,502.9z M599.7,502.9c-3.6-4-9.4-5.8-16.6-5.8c-4.7,0-8.7,0.7-11.6,2.6c-2.9,1.4-5.4,3.6-7.6,5.8
	c-1.8,2.6-3.3,4.7-4,7.6c-0.7,2.5-1.1,5-1.5,6.9h48C605.8,512.3,603.3,506.8,599.7,502.9z M480.9,523.4c-4.3-3.2-9.8-4.7-17-4.7h-35
	v40.5h34.7c3.3,0,6.2-0.4,9-1.1c2.9-0.7,5.4-1.8,7.6-3.2c2.2-1.4,4-3.2,5.4-5.8c1.5-2.6,1.8-5.8,1.8-9.4
	C487.3,532.1,485.2,526.7,480.9,523.4z M461.7,496.7c5.8,0,10.5-1.5,14.1-4c3.6-2.9,5.4-7.3,5.4-13.4c0-3.2-0.7-6.2-1.8-8.3
	c-1.1-2.2-2.9-4-5-5.1c-2.2-1.1-4.3-2.1-7.3-2.5c-2.5-0.4-5.4-0.7-8.3-0.7h-30.3v34.3h33.2V496.7z M510.4,287.8
	c-119.8,0-216.9,97.1-216.9,216.9c0,119.8,97.1,216.9,216.9,216.9c119.7,0,216.9-97.1,216.9-216.9
	C727.3,384.9,630.2,287.8,510.4,287.8z M515.2,560.7c-2.9,5.4-6.9,9.7-11.6,13.4c-4.7,3.6-10.5,6.1-16.6,7.6
	c-6.2,1.8-12.6,2.5-19.2,2.5h-71.1v-147h69.4c6.9,0,13.3,0.7,19.1,1.8c5.8,1.1,10.8,3.2,14.8,6.1c4,2.9,7.3,6.5,9.8,11.2
	c2.1,4.7,3.2,10.5,3.2,17.3c0,7.2-1.8,13.7-5.1,18.4c-3.2,5-8.3,9-15.2,12.3c9,2.5,15.9,7.2,20.2,13.7c4.3,6.5,6.5,14.5,6.5,23.5
	C519.5,549.1,518.1,555.2,515.2,560.7z M635.8,538.6h-76.9c0,7.9,2.9,15.9,7.2,20.2c4.3,4.3,10.8,6.5,18.8,6.5
	c5.8,0,10.8-1.5,15.2-4.3c4.3-2.9,6.9-6.2,7.9-9.4h25.7c-4,12.6-10.5,22.1-19.2,27.4c-8.3,5.4-18.8,8.3-30.7,8.3
	c-8.3,0-15.9-1.4-22.8-4c-6.9-2.5-12.3-6.5-17.3-11.6c-4.7-5.1-8.3-10.8-10.9-17.7c-2.5-6.9-4-14.4-4-22.7c0-7.9,1.5-15.5,4-22.4
	c2.6-6.9,6.5-13,11.2-17.7c4.7-5.1,10.5-9,17.3-11.9c6.9-2.9,14.1-4.3,22.4-4.3c9,0,17,1.8,23.8,5.4c6.9,3.6,12.3,8.3,16.6,14.1
	c4.3,5.8,7.6,12.6,9.4,20.2C635.5,522.4,636.2,530.3,635.8,538.6z M583.1,497.1c-4.7,0-8.7,0.7-11.6,2.6c-2.9,1.4-5.4,3.6-7.6,5.8
	c-1.8,2.6-3.3,4.7-4,7.6c-0.7,2.5-1.1,5-1.5,6.9h48c-0.7-7.6-3.2-13-6.9-17C596.1,498.9,590.3,497.1,583.1,497.1z M480.9,523.4
	c-4.3-3.2-9.8-4.7-17-4.7h-35v40.5h34.7c3.3,0,6.2-0.4,9-1.1c2.9-0.7,5.4-1.8,7.6-3.2c2.2-1.4,4-3.2,5.4-5.8
	c1.5-2.6,1.8-5.8,1.8-9.4C487.3,532.1,485.2,526.7,480.9,523.4z M461.7,496.7c5.8,0,10.5-1.5,14.1-4c3.6-2.9,5.4-7.3,5.4-13.4
	c0-3.2-0.7-6.2-1.8-8.3c-1.1-2.2-2.9-4-5-5.1c-2.2-1.1-4.3-2.1-7.3-2.5c-2.5-0.4-5.4-0.7-8.3-0.7h-30.3v34.3h33.2V496.7z
	 M479.4,471.1c-1.1-2.2-2.9-4-5-5.1c-2.2-1.1-4.3-2.1-7.3-2.5c-2.5-0.4-5.4-0.7-8.3-0.7h-30.3v34.3h33.2v-0.3c5.8,0,10.5-1.5,14.1-4
	c3.6-2.9,5.4-7.3,5.4-13.4C481.2,476.1,480.5,473.2,479.4,471.1z M480.9,523.4c-4.3-3.2-9.8-4.7-17-4.7h-35v40.5h34.7
	c3.3,0,6.2-0.4,9-1.1c2.9-0.7,5.4-1.8,7.6-3.2c2.2-1.4,4-3.2,5.4-5.8c1.5-2.6,1.8-5.8,1.8-9.4C487.3,532.1,485.2,526.7,480.9,523.4z
	 M480.9,523.4c-4.3-3.2-9.8-4.7-17-4.7h-35v40.5h34.7c3.3,0,6.2-0.4,9-1.1c2.9-0.7,5.4-1.8,7.6-3.2c2.2-1.4,4-3.2,5.4-5.8
	c1.5-2.6,1.8-5.8,1.8-9.4C487.3,532.1,485.2,526.7,480.9,523.4z M479.4,471.1c-1.1-2.2-2.9-4-5-5.1c-2.2-1.1-4.3-2.1-7.3-2.5
	c-2.5-0.4-5.4-0.7-8.3-0.7h-30.3v34.3h33.2v-0.3c5.8,0,10.5-1.5,14.1-4c3.6-2.9,5.4-7.3,5.4-13.4
	C481.2,476.1,480.5,473.2,479.4,471.1z M479.4,471.1c-1.1-2.2-2.9-4-5-5.1c-2.2-1.1-4.3-2.1-7.3-2.5c-2.5-0.4-5.4-0.7-8.3-0.7h-30.3
	v34.3h33.2v-0.3c5.8,0,10.5-1.5,14.1-4c3.6-2.9,5.4-7.3,5.4-13.4C481.2,476.1,480.5,473.2,479.4,471.1z M480.9,523.4
	c-4.3-3.2-9.8-4.7-17-4.7h-35v40.5h34.7c3.3,0,6.2-0.4,9-1.1c2.9-0.7,5.4-1.8,7.6-3.2c2.2-1.4,4-3.2,5.4-5.8
	c1.5-2.6,1.8-5.8,1.8-9.4C487.3,532.1,485.2,526.7,480.9,523.4z M480.9,523.4c-4.3-3.2-9.8-4.7-17-4.7h-35v40.5h34.7
	c3.3,0,6.2-0.4,9-1.1c2.9-0.7,5.4-1.8,7.6-3.2c2.2-1.4,4-3.2,5.4-5.8c1.5-2.6,1.8-5.8,1.8-9.4C487.3,532.1,485.2,526.7,480.9,523.4z
	 M479.4,471.1c-1.1-2.2-2.9-4-5-5.1c-2.2-1.1-4.3-2.1-7.3-2.5c-2.5-0.4-5.4-0.7-8.3-0.7h-30.3v34.3h33.2v-0.3c5.8,0,10.5-1.5,14.1-4
	c3.6-2.9,5.4-7.3,5.4-13.4C481.2,476.1,480.5,473.2,479.4,471.1z"/>
</svg>
