<?xml version="1.0" encoding="utf-8"?>
<!-- Generator: Adobe Illustrator 18.1.0, SVG Export Plug-In . SVG Version: 6.00 Build 0)  -->
<!DOCTYPE svg PUBLIC "-//W3C//DTD SVG 1.1//EN" "http://www.w3.org/Graphics/SVG/1.1/DTD/svg11.dtd">
<svg version="1.1" id="Layer_1" xmlns="http://www.w3.org/2000/svg" xmlns:xlink="http://www.w3.org/1999/xlink" x="0px" y="0px"
	 viewBox="0 0 1044.9 926" enable-background="new 0 0 1044.9 926" xml:space="preserve">
<g>
	<path fill="#FFFFFF" d="M518,513c-4.6,0-8.5,0.7-11.3,2.5c-2.8,1.4-5.3,3.5-7.4,5.6c-1.8,2.5-3.2,4.6-3.9,7.4
		c-0.7,2.5-1.1,4.9-1.4,6.7h47c-0.7-7.4-3.2-12.7-6.7-16.6C530.7,514.8,525,513,518,513z"/>
	<path fill="#FFFFFF" d="M401.5,534.2h-34.2v39.5h33.9c3.2,0,6-0.4,8.8-1.1s5.3-1.8,7.4-3.2c2.1-1.4,3.9-3.2,5.3-5.6
		c1.4-2.5,1.8-5.6,1.8-9.2c0-7.4-2.1-12.7-6.4-15.9C413.8,535.6,408.5,534.2,401.5,534.2z"/>
	<path fill="#FFFFFF" d="M399.3,512.7c5.6,0,10.2-1.4,13.8-3.9c3.5-2.8,5.3-7.1,5.3-13.1c0-3.2-0.7-6-1.8-8.1
		c-1.1-2.1-2.8-3.9-4.9-4.9s-4.2-2.1-7.1-2.5c-2.5-0.4-5.3-0.7-8.1-0.7h-29.7V513h32.5V512.7z"/>
	<path fill="#FFFFFF" d="M447,308.5c-117.1,0-212,94.9-212,212c0,117.1,94.9,212,212,212c117.1,0,212-94.9,212-212
		C658.9,403.4,564,308.5,447,308.5z M488.3,464.3h58.3v14.1h-58.3V464.3z M451.6,575.2c-2.8,5.3-6.7,9.5-11.3,13.1
		c-4.6,3.5-10.2,6-16.2,7.4c-6,1.8-12.4,2.5-18.7,2.5h-69.6V454.4h67.8c6.7,0,13.1,0.7,18.7,1.8c5.6,1.1,10.6,3.2,14.5,6
		s7.1,6.4,9.5,10.9c2.1,4.6,3.2,10.2,3.2,16.9c0,7.1-1.8,13.4-4.9,18c-3.2,4.9-8.1,8.8-14.8,12c8.8,2.5,15.5,7.1,19.8,13.4
		c4.2,6.4,6.4,14.1,6.4,22.9C455.8,563.9,454.4,569.9,451.6,575.2z M569.5,553.6h-75.2c0,7.8,2.8,15.5,7.1,19.8
		c4.2,4.2,10.6,6.4,18.4,6.4c5.6,0,10.6-1.4,14.8-4.2s6.7-6,7.8-9.2h25.1c-3.9,12.4-10.2,21.5-18.7,26.8c-8.1,5.3-18.4,8.1-30,8.1
		c-8.1,0-15.5-1.4-22.2-3.9c-6.7-2.5-12-6.4-16.9-11.3c-4.6-4.9-8.1-10.6-10.6-17.3c-2.5-6.7-3.9-14.1-3.9-22.2
		c0-7.8,1.4-15.2,3.9-21.9c2.5-6.7,6.4-12.7,10.9-17.3c4.6-4.9,10.2-8.8,16.9-11.7c6.7-2.8,13.8-4.2,21.9-4.2
		c8.8,0,16.6,1.8,23.3,5.3c6.7,3.5,12,8.1,16.2,13.8c4.2,5.6,7.4,12.4,9.2,19.8C569.2,537.8,569.9,545.5,569.5,553.6z"/>
</g>
</svg>
