<?xml version="1.0" encoding="utf-8"?>
<!-- Generator: Adobe Illustrator 18.1.0, SVG Export Plug-In . SVG Version: 6.00 Build 0)  -->
<!DOCTYPE svg PUBLIC "-//W3C//DTD SVG 1.1//EN" "http://www.w3.org/Graphics/SVG/1.1/DTD/svg11.dtd">
<svg version="1.1" id="Layer_1" xmlns="http://www.w3.org/2000/svg" xmlns:xlink="http://www.w3.org/1999/xlink" x="0px" y="0px"
	 viewBox="0 0 960 560" enable-background="new 0 0 960 560" xml:space="preserve">
<g>
	<path fill="#DBB7BE" d="M516,261.7h-9c-2.2,0-4.1,1.8-4.1,4.1v9c0,2.2,1.8,4.1,4.1,4.1h9c2.2,0,4.1-1.8,4.1-4.1v-9
		C519.9,263.4,518.1,261.7,516,261.7z"/>
	<path fill="#DBB7BE" d="M473.3,178.2c-72.4,0-131.1,58.7-131.1,131.1s58.7,131.1,131.1,131.1s131.1-58.7,131.1-131.1
		S545.8,178.2,473.3,178.2z M526.1,355.4c0,2.2-1.8,4.1-4.1,4.1h-96.3c-2.2,0-4.1-1.8-4.1-4.1v-55h26.2c-0.1,0.5-0.1,1-0.1,1.6
		c0,14.4,11.7,26.1,26.1,26.1c14.4,0,26.1-11.7,26.1-26.1c0-0.5-0.1-1-0.1-1.6h26.2L526.1,355.4L526.1,355.4z M526.1,294.3h-27.3
		c-3.3-10.6-13.2-18.4-24.9-18.4s-21.6,7.7-24.9,18.4h-27.3v-35.3c0-2.2,1.8-4.1,4.1-4.1h96.4c2.2,0,4.1,1.8,4.1,4.1L526.1,294.3
		L526.1,294.3z"/>
</g>
</svg>
