<?xml version="1.0" encoding="utf-8"?>
<!-- Generator: Adobe Illustrator 18.1.0, SVG Export Plug-In . SVG Version: 6.00 Build 0)  -->
<!DOCTYPE svg PUBLIC "-//W3C//DTD SVG 1.1//EN" "http://www.w3.org/Graphics/SVG/1.1/DTD/svg11.dtd">
<svg version="1.1" id="Layer_1" xmlns="http://www.w3.org/2000/svg" xmlns:xlink="http://www.w3.org/1999/xlink" x="0px" y="0px"
	 viewBox="0 0 1044.9 926" enable-background="new 0 0 1044.9 926" xml:space="preserve">
<g>
	<path fill="#FFFFFF" d="M581.9,432.7H567c-3.7,0-6.7,3-6.7,6.7v14.9c0,3.7,3,6.7,6.7,6.7h14.9c3.7,0,6.7-3,6.7-6.7v-14.9
		C588.5,435.6,585.5,432.7,581.9,432.7z"/>
	<path fill="#FFFFFF" d="M511.4,294.7c-119.7,0-216.8,97.1-216.8,216.8c0,119.7,97.1,216.8,216.8,216.8
		c119.7,0,216.8-97.1,216.8-216.8C728.2,391.8,631.2,294.7,511.4,294.7z M598.7,587.7c0,3.7-3,6.7-6.7,6.7H432.7
		c-3.7,0-6.7-3-6.7-6.7v-90.9h43.4c-0.1,0.9-0.1,1.7-0.1,2.6c0,23.8,19.3,43.1,43.1,43.1c23.8,0,43.1-19.3,43.1-43.1
		c0-0.9-0.1-1.7-0.1-2.6h43.4V587.7z M598.7,486.7h-45.2c-5.4-17.6-21.8-30.4-41.2-30.4c-19.4,0-35.7,12.8-41.2,30.4H426v-58.3
		c0-3.7,3-6.7,6.7-6.7h159.4c3.7,0,6.7,3,6.7,6.7V486.7z"/>
</g>
</svg>
