<?xml version="1.0" encoding="utf-8"?>
<!-- Generator: Adobe Illustrator 18.1.0, SVG Export Plug-In . SVG Version: 6.00 Build 0)  -->
<!DOCTYPE svg PUBLIC "-//W3C//DTD SVG 1.1//EN" "http://www.w3.org/Graphics/SVG/1.1/DTD/svg11.dtd">
<svg version="1.1" id="Layer_1" xmlns="http://www.w3.org/2000/svg" xmlns:xlink="http://www.w3.org/1999/xlink" x="0px" y="0px"
	 viewBox="0 0 419.6 339.1" enable-background="new 0 0 419.6 339.1" xml:space="preserve">
<circle fill="none" stroke="#FFFFFF" stroke-linecap="round" stroke-linejoin="round" stroke-miterlimit="10" cx="161.1" cy="168.7" r="53.5"/>
<g>
	<path fill="#FFFFFF" d="M171.9,165.1c0,0.2,0,0.4,0,0.6c0,5.9-4.8,10.6-10.6,10.6c-5.9,0-10.6-4.8-10.6-10.6c0-0.2,0-0.4,0-0.6H140
		v22.4c0,0.9,0.7,1.6,1.6,1.6H181c0.9,0,1.6-0.7,1.6-1.6v-22.4H171.9z"/>
	<path fill="#FFFFFF" d="M181,146.6h-39.3c-0.9,0-1.6,0.7-1.6,1.6v14.4h11.2c1.3-4.3,5.4-7.5,10.2-7.5c4.8,0,8.8,3.2,10.2,7.5h11.2
		v-14.4C182.6,147.3,181.9,146.6,181,146.6z M180.1,154.6c0,0.9-0.7,1.6-1.6,1.6h-3.7c-0.9,0-1.6-0.7-1.6-1.6v-3.7
		c0-0.9,0.7-1.6,1.6-1.6h3.7c0.9,0,1.6,0.7,1.6,1.6V154.6z"/>
</g>
</svg>
