<?xml version="1.0" encoding="utf-8"?>
<!-- Generator: Adobe Illustrator 18.1.0, SVG Export Plug-In . SVG Version: 6.00 Build 0)  -->
<!DOCTYPE svg PUBLIC "-//W3C//DTD SVG 1.1//EN" "http://www.w3.org/Graphics/SVG/1.1/DTD/svg11.dtd">
<svg version="1.1" id="Layer_1" xmlns="http://www.w3.org/2000/svg" xmlns:xlink="http://www.w3.org/1999/xlink" x="0px" y="0px"
	 viewBox="0 0 419.6 339.1" enable-background="new 0 0 419.6 339.1" xml:space="preserve">
<g>
	<path fill="#FFFFFF" d="M178.8,149.8h-3.7c-0.9,0-1.6,0.7-1.6,1.6v3.7c0,0.9,0.7,1.6,1.6,1.6h3.7c0.9,0,1.6-0.7,1.6-1.6v-3.7
		C180.4,150.5,179.7,149.8,178.8,149.8z"/>
	<path fill="#FFFFFF" d="M161.4,115.8c-29.5,0-53.5,24-53.5,53.5c0,29.5,24,53.5,53.5,53.5c29.5,0,53.5-24,53.5-53.5
		C214.9,139.7,190.9,115.8,161.4,115.8z M182.9,188.1c0,0.9-0.7,1.6-1.6,1.6H142c-0.9,0-1.6-0.7-1.6-1.6v-22.4H151
		c0,0.2,0,0.4,0,0.6c0,5.9,4.8,10.6,10.6,10.6c5.9,0,10.6-4.8,10.6-10.6c0-0.2,0-0.4,0-0.6h10.7V188.1z M182.9,163.1h-11.2
		c-1.3-4.3-5.4-7.5-10.2-7.5c-4.8,0-8.8,3.2-10.2,7.5h-11.2v-14.4c0-0.9,0.7-1.6,1.6-1.6h39.3c0.9,0,1.6,0.7,1.6,1.6V163.1z"/>
</g>
</svg>
