<?xml version="1.0" encoding="utf-8"?>
<!-- Generator: Adobe Illustrator 18.1.0, SVG Export Plug-In . SVG Version: 6.00 Build 0)  -->
<!DOCTYPE svg PUBLIC "-//W3C//DTD SVG 1.1//EN" "http://www.w3.org/Graphics/SVG/1.1/DTD/svg11.dtd">
<svg version="1.1" id="Layer_1" xmlns="http://www.w3.org/2000/svg" xmlns:xlink="http://www.w3.org/1999/xlink" x="0px" y="0px"
	 viewBox="0 0 419.6 339.1" enable-background="new 0 0 419.6 339.1" xml:space="preserve">
<path fill="#FFFFFF" d="M161.7,116.2c-29.5,0-53.5,24-53.5,53.5c0,29.5,24,53.5,53.5,53.5s53.5-24,53.5-53.5
	C215.2,140.1,191.2,116.2,161.7,116.2z M152.2,189.5c-0.1,0.1-0.2,0.1-0.4,0.1l-8.3,0h0c-0.3,0-0.5-0.2-0.5-0.5l-0.1-26.5
	c0-0.3,0.2-0.5,0.5-0.5l8.3,0h0c0.1,0,0.3,0.1,0.4,0.1c0.1,0.1,0.1,0.2,0.1,0.4l0.1,26.5C152.4,189.3,152.3,189.4,152.2,189.5z
	 M147.4,159.9L147.4,159.9c-3.2,0-5.5-2.1-5.5-5.1c0-3,2.3-5.1,5.5-5.1c3.2,0,5.4,2,5.5,5.1C153,157.7,150.7,159.8,147.4,159.9z
	 M185,189.6l-9.4,0h0c-0.1,0-0.3-0.1-0.4-0.1c-0.1-0.1-0.1-0.2-0.1-0.4l0-13.7c0-2.1-0.6-5.5-4.2-5.5c-2.5,0-3.6,1.8-4,2.9
	c-0.2,0.4-0.2,1-0.2,1.7l0,0.3l0,14.3c0,0.3-0.2,0.5-0.5,0.5l-9.3,0h0c-0.1,0-0.3-0.1-0.4-0.1c-0.1-0.1-0.1-0.2-0.1-0.4
	c0-0.2,0.1-24.3-0.1-26.5c0-0.1,0-0.3,0.1-0.4c0.1-0.1,0.2-0.2,0.4-0.2l9.3,0h0c0.3,0,0.5,0.2,0.5,0.5l0,2.4c1.4-1.6,4-3.1,7.8-3.1
	c6.8,0,11,4.8,11,12.5l0,14.7C185.5,189.3,185.3,189.6,185,189.6z"/>
</svg>
