<?xml version="1.0" encoding="utf-8"?>
<!-- Generator: Adobe Illustrator 18.1.0, SVG Export Plug-In . SVG Version: 6.00 Build 0)  -->
<!DOCTYPE svg PUBLIC "-//W3C//DTD SVG 1.1//EN" "http://www.w3.org/Graphics/SVG/1.1/DTD/svg11.dtd">
<svg version="1.1" id="Layer_1" xmlns="http://www.w3.org/2000/svg" xmlns:xlink="http://www.w3.org/1999/xlink" x="0px" y="0px"
	 viewBox="0 0 419.6 339.1" enable-background="new 0 0 419.6 339.1" xml:space="preserve">
<g>
	<path fill="#FFFFFF" d="M152.1,161.7c-0.1-0.1-0.2-0.1-0.4-0.1h0l-8.3,0c-0.3,0-0.5,0.2-0.5,0.5l0.1,26.5c0,0.3,0.2,0.5,0.5,0.5h0
		l8.3,0c0.1,0,0.3-0.1,0.4-0.1c0.1-0.1,0.1-0.2,0.1-0.4l-0.1-26.5C152.3,161.9,152.2,161.8,152.1,161.7z"/>
	<path fill="#FFFFFF" d="M185.4,173.7c0-7.7-4.2-12.5-11-12.5c-3.7,0-6.4,1.5-7.8,3.1l0-2.4c0-0.3-0.2-0.5-0.5-0.5h0l-9.3,0
		c-0.1,0-0.3,0.1-0.4,0.2c-0.1,0.1-0.1,0.2-0.1,0.4c0.1,2.2,0.1,26.2,0.1,26.5c0,0.1,0.1,0.3,0.1,0.4c0.1,0.1,0.2,0.1,0.4,0.1h0
		l9.3,0c0.3,0,0.5-0.2,0.5-0.5l0-14.3l0-0.3c0-0.7,0-1.3,0.2-1.7c0.4-1.1,1.5-2.9,4-2.9c3.6,0,4.2,3.5,4.2,5.5l0,13.7
		c0,0.1,0.1,0.3,0.1,0.4c0.1,0.1,0.2,0.1,0.4,0.1h0l9.4,0c0.3,0,0.5-0.2,0.5-0.5L185.4,173.7z"/>
	<path fill="#FFFFFF" d="M147.5,149c-3.2,0-5.6,2.2-5.5,5.1c0,2.9,2.3,5.1,5.4,5.1h0.1c3.3,0,5.5-2.1,5.5-5.1
		C152.9,151.1,150.7,149,147.5,149z M147.3,158.7L147.3,158.7L147.3,158.7L147.3,158.7z"/>
</g>
<path fill="none" stroke="#FFFFFF" stroke-linecap="round" stroke-linejoin="round" stroke-miterlimit="10" d="M215.2,169
	c0,29.5-24,53.5-53.5,53.5s-53.5-24-53.5-53.5c0-29.5,24-53.5,53.5-53.5S215.2,139.5,215.2,169z"/>
</svg>
