<?xml version="1.0" encoding="utf-8"?>
<!-- Generator: Adobe Illustrator 18.1.0, SVG Export Plug-In . SVG Version: 6.00 Build 0)  -->
<!DOCTYPE svg PUBLIC "-//W3C//DTD SVG 1.1//EN" "http://www.w3.org/Graphics/SVG/1.1/DTD/svg11.dtd">
<svg version="1.1" id="Layer_1" xmlns="http://www.w3.org/2000/svg" xmlns:xlink="http://www.w3.org/1999/xlink" x="0px" y="0px"
	 viewBox="0 0 960 560" enable-background="new 0 0 960 560" xml:space="preserve">
<path fill="#DBB7BE" d="M474.5,181.5c-69.5,0-126,56.4-126,126s56.4,126,126,126s126-56.4,126-126
	C600.4,237.9,544.1,181.5,474.5,181.5z M452.2,354.2c-0.2,0.2-0.5,0.4-0.8,0.4l-19.5,0.1l0,0c-0.7,0-1.1-0.5-1.1-1.1l-0.2-62.4
	c0-0.7,0.5-1.1,1.1-1.2l19.5-0.1l0,0c0.3,0,0.6,0.1,0.8,0.4c0.2,0.2,0.4,0.5,0.4,0.8l0.2,62.4C452.5,353.7,452.4,354,452.2,354.2z
	 M440.9,284.4h-0.2c-7.4,0-12.8-5-12.8-12c0-7,5.4-12,13.1-12s12.8,4.8,12.9,11.9C454,279.4,448.6,284.4,440.9,284.4z M529.3,354.3
	l-22.1,0.1l0,0c-0.3,0-0.6-0.1-0.8-0.4c-0.2-0.2-0.4-0.5-0.4-0.8l-0.1-32.3c0-4.8-1.3-13-9.9-13c-5.9,0-8.5,4.4-9.5,7
	c-0.4,1-0.4,2.4-0.4,4v0.7l0.1,33.7c0,0.7-0.5,1.1-1.1,1.1l-21.9,0.1l0,0c-0.3,0-0.6-0.1-0.8-0.4c-0.2-0.2-0.4-0.5-0.4-0.8
	c0-0.6,0.1-57.2-0.2-62.3c0-0.3,0.1-0.7,0.3-0.8c0.2-0.2,0.5-0.4,0.8-0.4l21.9-0.1l0,0c0.7,0,1.1,0.5,1.1,1.1v5.6
	c3.3-3.7,9.5-7.4,18.3-7.4c16,0,25.9,11.2,26,29.4l0.2,34.8C530.5,353.8,530,354.3,529.3,354.3z"/>
</svg>
