<?xml version="1.0" encoding="utf-8"?>
<!-- Generator: Adobe Illustrator 18.1.0, SVG Export Plug-In . SVG Version: 6.00 Build 0)  -->
<!DOCTYPE svg PUBLIC "-//W3C//DTD SVG 1.1//EN" "http://www.w3.org/Graphics/SVG/1.1/DTD/svg11.dtd">
<svg version="1.1" id="Layer_1" xmlns="http://www.w3.org/2000/svg" xmlns:xlink="http://www.w3.org/1999/xlink" x="0px" y="0px"
	 viewBox="0 0 1044.9 926" enable-background="new 0 0 1044.9 926" xml:space="preserve">
<path fill="#FFFFFF" d="M513.3,300.2c-115,0-208.3,93.3-208.3,208.3c0,115,93.3,208.3,208.3,208.3s208.3-93.3,208.3-208.3
	C721.6,393.4,628.4,300.2,513.3,300.2z M476.4,585.7c-0.4,0.4-0.9,0.6-1.4,0.6l-32.2,0.1h0c-1.1,0-1.9-0.9-1.9-1.9l-0.3-103.2
	c0-1.1,0.9-1.9,1.9-2l32.2-0.1h0c0.5,0,1,0.2,1.4,0.6c0.4,0.4,0.6,0.9,0.6,1.4l0.3,103.2C477,584.8,476.8,585.3,476.4,585.7z
	 M457.8,470.2h-0.3c-12.2,0-21.1-8.3-21.2-19.8c0-11.5,9-19.9,21.6-19.9c12.6,0,21.1,7.9,21.4,19.7
	C479.4,462,470.5,470.2,457.8,470.2z M604,585.9l-36.5,0.1h0c-0.5,0-1-0.2-1.4-0.6c-0.4-0.4-0.6-0.9-0.6-1.4l-0.1-53.4
	c0-8-2.2-21.5-16.4-21.5c-9.7,0-14,7.2-15.7,11.5c-0.7,1.6-0.7,4-0.6,6.6l0,1.1l0.2,55.8c0,1.1-0.9,1.9-1.9,1.9l-36.2,0.1h0
	c-0.5,0-1-0.2-1.4-0.6c-0.4-0.4-0.6-0.9-0.6-1.4c0-1,0.2-94.6-0.3-103.1c0-0.5,0.2-1.1,0.5-1.4c0.4-0.4,0.9-0.6,1.4-0.6l36.2-0.1h0
	c1.1,0,1.9,0.9,1.9,1.9l0,9.2c5.4-6.2,15.7-12.2,30.2-12.2c26.5,0,42.9,18.6,43,48.6L606,584C606,585,605.1,585.9,604,585.9z"/>
</svg>
