<?xml version="1.0" encoding="utf-8"?>
<!-- Generator: Adobe Illustrator 18.1.0, SVG Export Plug-In . SVG Version: 6.00 Build 0)  -->
<!DOCTYPE svg PUBLIC "-//W3C//DTD SVG 1.1//EN" "http://www.w3.org/Graphics/SVG/1.1/DTD/svg11.dtd">
<svg version="1.1" id="Layer_1" xmlns="http://www.w3.org/2000/svg" xmlns:xlink="http://www.w3.org/1999/xlink" x="0px" y="0px"
	 viewBox="0 0 640 1136" enable-background="new 0 0 640 1136" xml:space="preserve">
<g>
	<path d="M266.5,518.5c0.2-0.2,0.5-0.3,0.7-0.5c0.1,0.2,0.2,0.3,0.2,0.5c0.1,0,0.1-0.1,0.2-0.1c0.1-0.1,0.1-0.3,0.1-0.4
		c0.2-0.4,0.4-0.7,0.9-0.5c0.3,0.1,0.6,0.1,1,0.1c0,0.1,0.1,0.3,0.2,0.6c0,0,0.1,0,0.1,0c0.5-0.6,1.1-0.3,1.6,0
		c0.6,0.3,0.7,0,0.9-0.4c0.4-0.8,0.9-1.6,1.5-2.2c0.4-0.4,0.8-0.8,1.1-1.4c0.1-0.1,0.3-0.2,0.4-0.3c0.6-0.6,1.1-1.3,1.7-1.8
		c0.5-0.5,1.2-0.8,1.8-1.3c0.1-0.1,0.3-0.1,0.3-0.2c0.8-1,2-1.3,3.1-1.7c0.3-0.1,0.6-0.2,0.9-0.3c0.3-0.1,0.6-0.4,1-0.1
		c0.1,0.1,0.3,0,0.5-0.1c0.6,0,1.2-0.1,1.8-0.1c1.3,0.1,2.1,1.2,3.2,1.7c1.1,0.5,2.3,1,3.4,1.6c0.7,0.3,1.3,0.7,1.9,1.1
		c0.1,0.1,0.2,0.3,0.3,0.4c0.2,0.3,0.4,0.5,0.7,1c0.2,0.6,0.5,1.3,0.6,2.1c0.1,0.6,0.5,1.4-0.1,1.8c0.1,0.4,0.1,0.7,0.1,1
		c-0.1,0.7-0.2,1.5-0.2,2c-0.4,0.2-0.6,0.4-0.9,0.6c0.2,0.4,0.5,0.7,0.5,1.1c0,0.3-0.2,0.5-0.3,0.8c-0.3,0.9-0.5,1.8-0.8,2.7
		c-0.1,0.3-0.1,0.8-0.6,0.8c-0.1,0-0.2,0.4-0.2,0.7c0,0.5,0.1,0.9-0.5,1.1c-0.1,0-0.2,0.1-0.2,0.2c0,1.1-0.6,2-1.2,2.8
		c-0.6,0.8-0.7,1.8-1.6,2.3c-0.3,0.1-0.3,0.6-0.5,0.9c-0.4,0.6-1,1.1-1.3,1.7c-0.6,1.1-1.7,1.7-2.3,2.8c-0.3,0.6-1.1,1-1.6,1.5
		c-0.6,0.5-1.1,1.1-1.8,1.7c0.7,0.5,1.3,1,1.9,1.4c0.3,0.3,0.6,0.6,1,0.8c0.2,0.1,0.4,0.2,0.6,0.3c0.1,0,0.2,0,0.2,0.1
		c0.3,1.1,1.4,1.3,2.1,1.9c0.5,0.5,1,1.1,1.6,1.6c0.4,0.4,0.8,0.8,1.2,1.2c0.7,0.7,1.4,1.4,2.1,2c0.6,0.5,1,1.1,1.6,1.5
		c0.5,0.4,1,0.8,1.6,1.2c0.5,0.3,0.9,0.8,1.4,1.2c0.6,0.5,1.1,1,1.7,1.4c1.3,1,2.7,2,4.1,2.8c0.7,0.4,1.7,0.5,2.6,0.2
		c0.5-0.2,1.2,0,1.8,0.1c0.6,0.2,1.2,0.5,1.6,0.9c1.2,1.1,1.4,2.2,0.5,3.6c-0.2,0.3-0.7,0.5-1.1,0.7c-1,0.5-2.1,0.9-3.2,0.8
		c-0.9-0.1-1.9,0.1-2.8,0c-0.4-0.1-0.8-0.2-1.2-0.3c-0.6-0.1-1.1-0.2-1.7-0.3c-0.2,0-0.4-0.1-0.5-0.3c-0.2-0.2-0.3-0.1-0.5-0.1
		c-0.3,0-0.7-0.2-1-0.4c-0.8-0.5-1.7-1.1-2.5-1.6c0,0,0,0-0.1,0c-1-0.9-1.9-1.7-2.9-2.6c-0.6-0.5-1.3-1-1.9-1.5
		c-0.6-0.5-1.1-1.1-1.7-1.7c-0.4-0.3-0.8-0.6-1.2-0.9c-0.4-0.3-0.8-0.5-1-1c-0.1-0.3-0.6-0.4-0.9-0.6c-0.2-0.2-0.4-0.4-0.6-0.5
		c-0.9-0.8-1.5-1.8-2.6-2.4c-0.3-0.2-0.4-0.6-0.7-0.8c-0.2-0.2-0.5-0.3-0.9-0.5c-1.4-1.5-3.1-2.9-5.2-4.1c-0.1,0.6-0.1,1.1-0.1,1.6
		c0,1.6-0.1,3.1,0,4.7c0,1.1,0,2.2,0.1,3.4c0.1,1.4,0.2,2.8,0.4,4.3c0.1,1,0.4,2.1,0.5,3.1c0.1,1.1-0.8,2.3-1.8,2.5c0,0-0.1,0-0.1,0
		c-0.8,0.8-1.7,0.4-2.6,0.3c-0.5-0.1-1,0-1.5-0.1c-0.4-0.1-0.9-0.4-1.2-0.7c-0.4-0.5-0.8-1.1-1.2-1.7c0,0-0.2,0.1-0.4,0.1
		c0-0.4,0-0.7-0.1-1.1c-0.1-0.5-0.2-1-0.3-1.6c-0.1-0.5,0-0.9-0.1-1.4c0-0.3,0-0.6-0.1-0.9c0-1.1-0.1-2.1-0.1-3.2
		c-0.1-1.7-0.1-3.4-0.1-5.1c0-0.6,0.1-1.1,0-1.7c0-0.2-0.3-0.6-0.5-0.6c-1.2,0.1-2.1-0.9-3.4-1.1c0,0.6,0,1.2,0,1.9
		c0.5,0.1,0.4,0.6,0.2,1c-0.2,0.5-0.5,1-0.7,1.5c-0.2,0.8-0.4,1.7-0.6,2.6c0,0.1,0,0.2-0.1,0.2c-0.8,0.4-0.7,1.3-1.1,1.9
		c-0.5,0.6-0.9,1.3-1.4,1.9c-0.7,0.9-1.5,1.9-2.3,2.7c-0.6,0.6-1.4,1-2.1,1.6c-0.5,0.4-1,1-1.5,1.4c-0.6,0.4-1.2,0.6-1.8,0.9
		c-0.1,0-0.1,0-0.2,0.1c-0.7,0.9-1.8,1.3-2.8,1.7c-0.9,0.4-1.8,1-2.7,1.3c-0.1,0-0.2-0.1-0.4-0.1c-0.5,0.4-1,0.9-1.5,1.4
		c-0.2,0.2-0.4,0.4-0.6,0.6c0,0-0.1,0.1-0.2,0.1c-0.7,0-1.3,0-2,0c-0.5,0-1.1-0.2-1.6-0.1c-0.9,0.1-1.9,0.5-2.8,0.5
		c-1,0-2,0.3-3-0.1c-4.9-1.6-9.8-3.2-14.7-4.8c-1.4-0.5-2.8-1.2-4.2-1.9c-0.1,0-0.2-0.1-0.3-0.2c-0.3-0.8-1.2-1-1.7-1.7
		c-0.5-0.6-0.6-1.2-0.3-1.9c0.2,0,0.5,0.1,0.5,0.1c0.1-0.3,0.2-0.6,0.3-0.9c0.2,0,0.5,0.1,0.8,0.2c0.1-0.2,0.2-0.4,0.3-0.6
		c0.3,0.1,0.7,0.2,1,0.2c0.1,0,0.3-0.2,0.4-0.3c0.1-0.1,0.2-0.4,0.3-0.4c0.3,0,0.7,0,0.9,0.2c0.6,0.5,1.1,1.1,1.9,1.3
		c0.4,0.1,0.6,0.5,1,0.7c0.7,0.3,1.1,1,1.8,1.2c0.6,0.2,1.2,0.6,1.9,0.6c0.2,0,0.3,0.4,0.5,0.6c0.1-0.2,0.2-0.3,0.2-0.4
		c0.1,0,0.1,0,0.1,0.1c0.1,0.1,0.2,0.4,0.3,0.4c0.5,0.2,1.1,0.5,1.7,0.2c0.1,0,0.3,0,0.4,0.1c0.7,0.2,1.4,0.4,2.2,0.6
		c0.4,0.1,0.7,0.1,1.1,0.1c0.8,0,1.7,0,2.5-0.1c0.5,0,0.9-0.2,1.3-0.3c0.3-0.1,0.6-0.1,0.9-0.1c0.4,0,0.5-0.3,0.5-0.6
		c-0.1-0.9-0.2-1.7-0.2-2.6c-0.1-0.9-0.1-1.8-0.2-2.7c-0.1-0.8-0.3-1.7-0.4-2.5c-0.1-1.2-0.1-2.4-0.2-3.6c0-0.4-0.1-0.7-0.1-1.1
		c-0.1-0.9-0.2-1.8-0.3-2.8c-0.1-0.6-0.1-1.2-0.2-1.9c-0.3,0.2-0.6,0.3-0.9,0.4c-0.4,0.2-0.7,0.4-1.1,0.5c-1.4,0.3-2.6,1.1-4,1.2
		c-0.2,0-0.4,0.2-0.7,0.2c-0.6,0.1-1.2,0.2-1.9,0.4c-0.5,0.1-1,0.2-1.5,0.3c-0.3,0.1-0.6,0-1,0.1c0-0.2,0-0.4,0-0.5
		c-0.1,0-0.1,0.1-0.2,0.1c-0.2,0.1-0.5,0.3-0.6,0.2c-0.5-0.2-0.7-0.1-0.9,0.4c-0.2,0-0.5-0.2-0.6-0.1c-1.2,0.5-2.3-0.2-3.5-0.1
		c-0.2,0-0.4-0.3-0.6-0.5c-0.3-0.4-0.5-0.7-1-0.8c-0.5-0.1-1-0.6-1.4-1c-0.1-0.1,0-0.4,0-0.6c0.2-1,0.5-1.9,0.8-2.9
		c0.1-0.5,0.2-1.1,1-1c0.2,0,0.4-0.3,0.6-0.4c0.8-0.3,1.6-0.5,2.4-0.8c0.8-0.3,1.6-0.5,2.5-0.8c0.6-0.2,1.3-0.3,1.9-0.4
		c1.1-0.2,2.2-0.5,3.3-0.7c0.6-0.1,1.2-0.1,1.9-0.3c0.6-0.1,1.2-0.3,1.8-0.5c0.4-0.1,0.9-0.2,1.3-0.3c0.3-0.1,0.7-0.1,1-0.2
		c0.6-0.3,0.3-0.8,0.3-1.3c-0.1-1.1-0.2-2.1-0.3-3.2c-0.1-1.9-0.1-3.8-0.2-5.7c0-0.9,0-1.9,0.1-3c0.1,0.2,0.2,0.4,0.4,0.6
		c0.1,0,0.1,0,0.2,0c0.1-0.2,0.2-0.5,0.3-0.8c0.1,0,0.3,0.1,0.4,0.1c0.2-0.4,0.4-0.7,0.6-1c0.1-0.1,0.1-0.3,0.1-0.4
		c0-0.2-0.1-0.4-0.2-0.6c0.3-0.1,0.7-0.2,0.9-0.4c0.2-0.1,0.2-0.5,0.2-0.7c0-0.2-0.2-0.5-0.3-0.5c-0.6,0.1-0.7-0.4-1-0.7
		c-0.1-0.1-0.2-0.4-0.1-0.5c0-0.1,0.3-0.2,0.4-0.2c0.4,0,0.9-0.1,0.9,0.6c0,0.1,0.1,0.2,0.4,0.3c-0.1-0.4-0.1-0.8-0.2-1.3
		c0.1-0.1,0.4-0.1,0.6-0.2c-0.2-0.4-0.3-0.9-0.8-0.5c-0.1,0-0.2-0.1-0.4-0.2c-0.1,0.2-0.2,0.4-0.4,0.6c-0.1,0.1-0.5,0.2-0.6,0.1
		c-0.7-0.4-1.3-0.5-2.2-0.2c0,0.2,0.1,0.3,0.2,0.6c-0.7-0.5-1.2-0.4-1.4,0.5c-0.5-0.4-0.8-0.8-1.3-1.1c-0.1-0.1-0.4-0.2-0.5-0.1
		c-0.1,0.1-0.2,0.3-0.2,0.5c-0.1,0.3-0.1,0.7-0.1,1c-0.5,0.1-1.2-0.5-1.4-1.3c-0.1,0.3-0.2,0.6-0.3,1.1c-0.3-0.3-0.5-0.5-0.7-0.8
		c0,0-0.1,0-0.1,0c0.1,0.3,0.1,0.6,0.2,0.9c-0.2,0.1-0.5,0.2-0.8,0.3c-0.4,0.1-0.4,0.4-0.3,0.7c0.1,0.2,0,0.4,0.1,0.6
		c-0.1,0-0.2,0-0.3,0c-0.1-0.6-0.2-1.1-0.3-1.7c-0.4,0.1-0.9,0.2-1.5,0.4c-0.1,0-0.3-0.1-0.7-0.3c-0.1-0.2,0.4-0.8-0.3-0.8
		c0.1-0.4,0.2-0.8,0.2-1.1c0.1,0,0.1,0,0.2,0c0,0.2,0,0.5,0,0.8c0.5-0.2,0.9-0.3,1.2,0.2c0.1,0.1,0.6,0.1,0.8,0
		c0.4-0.2,0.3-0.6-0.1-0.9c0.2-0.1,0.3-0.3,0.4-0.3c0-0.5,0-0.9,0-1.3c-0.3,0-0.7,0.1-1.1,0.2c0.3,0.5-0.1,1-0.5,1.5
		c-0.1,0.1-0.3,0-0.5,0c0.9-0.4,0-1,0.2-1.5c-0.3,0.9-1,0.9-1.7,0.9c-0.5,0-0.6-1.1-0.1-1.5c0.2-0.2,0.4-0.3,0.7-0.4
		c0,0.2,0.1,0.4,0.2,0.7c0.1-0.7,0.4-0.9,0.8-1.2c1-0.7,2.3-0.6,3.2-1.5c0,0,0.1-0.1,0.2-0.1c1-0.1,1.9-0.5,2.8-0.8
		c0.6-0.2,1.3-0.2,1.9-0.3c0.2,0,0.3-0.1,0.5-0.2c0.4-0.2,0.7-0.4,1.3-0.3c0.6,0.1,1.3-0.2,1.9-0.3c0.7-0.1,1.4-0.2,2.1-0.4
		c0.5-0.1,1.1-0.3,1.6-0.4c0.6-0.1,1.1,0,1.7,0.1c0.1,0,0.3,0.1,0.3,0.1c0.7-0.8,1.6-0.3,2.5-0.4c1.2-0.1,2.3-0.1,3.5-0.1
		c0.9,0,1.8,0.2,2.7,0.3c0.7,0.1,1.4,0.1,2.1,0.3c0.6,0.1,1.3,0.4,1.9,0.6c0.6,0.1,1.1,0.4,1.7,0.3c0.4-0.1,0.8,0.3,1.2,0.5
		c0.1,0.1,0.2,0.2,0.3,0.2c1.3,0.3,2.4,0.8,3.4,1.7c0.6,0.5,1.3,0.9,1.9,1.4c0.1,0.1,0.1,0.2,0.2,0.3c0.3,0.3,0.6,0.6,0.8,0.9
		c0.3,0.4,0.5,0.8,0.7,1.3c0.1,0.3,0.1,0.6,0.3,0.9c0.4,0.8,0,1.3-0.5,1.8c0,0,0,0,0,0c0,0.3,0,0.6,0,0.9c-0.2,0.2-0.4,0.5-0.7,0.9
		c0.4,0,0.7,0,0.9,0c0,0.3-0.1,0.5-0.1,0.8c-0.2,0.6-0.3,1.2-0.5,1.7c-0.2,0.5-0.4,0.9-0.7,1.4c-0.3,0.5-0.7,1-1.1,1.4
		c-1,1.1-2,2.2-3,3.3c-1,1.1-2.1,2.1-3.3,2.9c-1,0.7-1.9,1.3-2.9,2c0-0.1-0.1-0.2-0.2-0.3c-0.1,0-0.1,0-0.2,0c0,0.2,0,0.3,0.1,0.6
		c-0.3,0.2-0.7,0.5-1.2,0.9c1.2,0.3,2.4,0.6,3.5,0.9c0.4,0.1,0.8,0.4,1.1,0.5c0.9,0.5,1.8,1,2.8,1.5c0.2,0.1,0.3,0.3,0.5,0.4
		c0.2,0.2,0.4,0.3,0.7,0.4c0.3,0.2,0.6,0.4,0.9,0.7c0.8,0.8,1.7,1.7,2.6,2.6c0.1-0.5,0.3-1,0.5-1.6c0.1-0.3,0.2-0.7,0.4-0.9
		c0.4-0.6,0.8-1.3,1.3-1.8c0.5-0.5,1.2-0.7,1.8-1c0.2-0.1,0.6-0.4,0.6-0.6c0.1-0.8,0-1.6,0-2.3c0-1,0-2-0.1-3
		c-0.1-1.4-0.4-2.8-0.5-4.1c-0.1-0.8-0.1-1.6-0.1-2.4c-0.1-0.5-0.2-1.1-0.3-1.7c0.3-0.2,0.7-0.4,1.1-0.6c-0.7-0.6-1.8-0.7-1.3-1.9
		c0.2,0.1,0.3,0.3,0.5,0.4c0.1-0.3,0.2-0.6,0.4-0.8c0.1,0,0.1,0,0.2,0c0.1,0.4,0.7,0.7-0.1,1.1c-0.1,0,0,0.3,0,0.4
		c0.5,0,0.9,0,1.2-0.1c0.2-0.1,0.5-0.3,0.5-0.5c0-0.6,0.5-0.8,1-1.1c-0.1-0.1-0.2-0.2-0.3-0.2c0.9-0.2,1-0.4,0.6-1.1
		c-0.2,0.4-0.4,0.7-0.6,1c-0.1-0.3-0.3-0.5-0.4-0.8c0,0.1-0.1,0.1-0.1,0.2c-0.2-0.1-0.4-0.1-0.6-0.2c-0.2-0.1-0.3-0.2-0.5-0.1
		c-0.1,0-0.2,0.2-0.3,0.3c-0.1,0.1-0.1,0.2-0.2,0.3c-0.1-0.2-0.2-0.4-0.4-0.7c-0.1,0.4-0.1,0.5-0.1,0.9c-0.3-0.5-0.5-0.8-0.7-1.2
		c-0.1,0.1-0.2,0.3-0.4,0.6c-0.2-0.1-0.6-0.3-0.6-0.4c-0.1-0.6-0.4-1.3,0.3-1.9C266.1,518.8,266.2,518.7,266.5,518.5
		c-0.2,0.4-0.3,0.6-0.4,1c0.8-0.3,0.6,0.6,1,0.9c0.2-0.4,0.3-0.6,0.4-0.9C267.5,519.1,266.9,518.5,266.5,518.5z M270.4,529.9
		c-0.2,0.4-0.3,0.9-0.5,1.4c0.5-0.3,0.9-0.6,1.2-0.8C270.8,530.2,270.6,530,270.4,529.9c0-0.2,0.1-0.5,0.1-0.8c-0.1,0-0.1,0-0.2,0
		c-0.1,0.2-0.1,0.4-0.2,0.6c-0.2-0.3-0.4-0.5-0.6-0.9c-0.2,0.4-0.4,0.7-0.5,1c0,0.1,0.3,0.3,0.5,0.4c0.1-0.2,0.2-0.3,0.2-0.4
		C269.9,529.8,270.1,529.8,270.4,529.9z M237,522.5C237,522.5,237,522.5,237,522.5c0.5-0.6,0.9-1.3,1.3-2c0.3,0.4,0.4,0.6,0.5,0.8
		c0.4-0.2,0.7-0.3,1.2-0.5c0,0.3,0.1,0.6,0.1,0.7c-0.3,0.5-0.8,0.4-1.3,0.1c-0.1,0.4-0.2,0.8-0.3,1.3c0.3-0.1,0.5-0.1,0.6-0.2
		c0.2,0,0.4-0.1,0.5,0c0.3,0.1,0.5,0.2,0.9,0.4c0-0.7,0-1.3,0-1.7c0.6,0,1.1,0,1.6,0c0,0-0.1,0.1-0.1,0.2c0.2,0.7-0.3,1-0.8,1.3
		c-0.1,0.1-0.2,0.3-0.3,0.5c0.1,0,0.3,0.1,0.4,0.1c0.1,0,0.2,0,0.2,0c0.3,0.8,0.5,1.6,0.7,2.1c-0.3,0.5-0.5,0.9-0.7,1.3
		c0.1,0,0.1,0.1,0.2,0.1c0.1-0.2,0.2-0.3,0.3-0.5c0.1,0.1,0.1,0.2,0.1,0.3c0.1,0.7-0.6,1.4,0.1,2.1c0,0,0,0.1,0,0.1
		c0,0.4,0,0.7,0.1,1.1c0,0.8,0,1.6,0,2.4c0,0.2,0.1,0.5,0.2,0.7c0,0,0.3,0,0.5-0.1c0.3-0.2,0.8-0.1,1-0.5c0.1-0.1,0.5,0,0.6-0.1
		c0.8-0.7,1.6-1.4,2.4-2c0.9-0.7,1.8-1.3,2.7-2c0.3-0.2,0.6-0.5,0.9-0.7c0.3-0.2,0.6-0.3,0.8-0.5c0.5-0.5,1-1.1,1.6-1.7
		c0.4-0.4,0.8-0.9,1.3-1.3c0.3-0.3,0.3-1,1-1.1c0.1,0,0.1-0.2,0.1-0.3c0.1-0.1,0.1-0.3,0.2-0.4c0.4-0.7,0.8-1.5,0.8-2.4
		c0-0.2-0.2-0.3-0.3-0.5c-0.4,0.3-0.5-0.1-0.8-0.2c-0.5-0.2-1-0.3-1.5-0.4c-0.2,0-0.4,0.1-0.6,0.1c0-0.3,0-0.5-0.1-1
		c-0.2,0.4-0.4,0.6-0.6,0.9c-0.5,0-1.2-0.1-1.8-0.2c-0.2,0-0.5,0.1-0.5-0.4c-0.1,0-0.3,0-0.4,0c-0.1,0-0.2,0.1-0.2,0.1
		c-0.5,0-1.1,0-1.6,0c-1.4,0.1-2.8,0.3-4.2,0.5c-0.8,0.1-1,0.1-1.2-0.7c0.6-0.4,0.6-0.5,0-0.9c0,0.1,0,0.2,0,0.2
		c-0.8-0.1-0.4,0.5-0.5,0.8c0,0.2-0.2,0.4-0.3,0.4c-0.3,0.1-0.6,0.1-1,0.2c0,0,0.1-0.1,0.1-0.1c-0.3-0.3-0.6-0.7-0.9-0.7
		c-0.9-0.1-1.1-0.3-1.3-1.1c-0.1,0.2-0.2,0.4-0.3,0.7c-0.1,0.1-0.2,0.2-0.3,0.3c-0.1,0-0.2-0.1-0.2-0.2c-0.2-0.5-0.5-0.4-0.8-0.1
		c0.3,0.2,0.5,0.4,0.7,0.6c0,0.4,0,0.8,0,1.2c0.6,0.1,0.9,0.5,0.7,1c0,0.1-0.3,0.2-0.5,0.2c-0.2,0.1-0.5,0.1-0.5,0.1
		C237.2,521.3,237.1,521.9,237,522.5z M288.3,515.3c-1.5-0.1-2.7,0.6-3.7,1.3c-1,0.7-1.8,1.7-2.6,2.5c-0.6,0.6-1.2,1.3-1.7,2
		c-0.6,0.7-1.1,1.5-1.5,2.3c-0.5,0.8-0.8,1.7-1.3,2.5c-0.1,0.2-0.3,0.4-0.4,0.7c-0.2,0.7-0.3,1.3-0.4,2c-0.2,1-0.4,2-0.4,3.1
		c0,1,0.2,2,0.2,3c0,1,0,1.9,0,2.9c0,0.1,0,0.3,0.1,0.3c0.1,0,0.3,0,0.3-0.1c0.4-0.4,0.8-0.8,1.2-1.2c0.2-0.2,0.3-0.4,0.5-0.6
		c0.4-0.4,1-0.7,1.3-1.1c0.7-0.8,1.3-1.7,2-2.4c0.8-0.8,1.7-1.7,1.9-2.9c0-0.2,0.3-0.3,0.5-0.5c0.2-0.2,0.5-0.5,0.6-0.8
		c0.2-0.6,0.4-1.2,1-1.6c0.1-0.1,0.2-0.3,0.2-0.4c-0.1-0.9,0.5-1.5,0.8-2.3c0.4-1.3,1-2.5,1.2-3.8
		C288.4,518.4,288.3,516.9,288.3,515.3z M245.3,560.3c0.6-0.3,1.2-0.5,1.7-0.8c0.2-0.1,0.3-0.5,0.5-0.5c0.9-0.1,1.5-0.8,2.2-1.3
		c0.6-0.5,1.1-0.9,1.7-1.4c1.1-1.1,2-2.3,2.9-3.6c1-1.3,1.5-2.7,1.7-4.2c0.2-1.5-0.3-2.3-1.5-2.9c-0.3-0.1-0.8-0.2-0.9-0.4
		c-0.2-0.5-0.5-0.3-0.8-0.3c-0.2,0-0.3,0-0.5-0.1c-0.9-0.1-1.7-0.3-2.6-0.4c-0.9-0.1-1.8,0-2.7,0c-0.3,0-0.8,0.2-1,0.1
		c-0.8-0.5-1.5,0.2-2.2,0.1c-0.1,0.6,0.3,1.1-0.1,1.6c0,0,0.1,0.1,0.1,0.2c0.2,0.5,0.4,1,0.5,1.5c0.1,1.1,0.2,2.2,0.3,3.2
		c0,0.5,0,1.1,0.1,1.6c0.1,0.8,0.1,1.5,0.2,2.3c0.1,0.9,0.2,1.8,0.3,2.7c0,0.3,0,0.6,0.1,0.9C245.1,559.2,245.2,559.7,245.3,560.3z
		 M258.9,528.1C258.9,528.1,258.9,528.1,258.9,528.1c0,0.2,0,0.3,0.1,0.6c0.5-0.7-0.2-0.9-0.3-1.3c-0.3,0.1-0.5,0.2-0.6,0.3
		c0.1,0.3,0.2,0.5,0.4,0.8C258.6,528.4,258.7,528.3,258.9,528.1z M294,523.7c-0.3-0.3-0.5-0.5-0.7-0.6c0,0.3-0.1,0.6-0.1,1
		c-0.3-0.1-0.4-0.2-0.6-0.3c0,0,0,0-0.1,0.1c0.2,0.2,0.3,0.4,0.4,0.5C293.4,524.1,293.7,523.9,294,523.7z M293.6,525
		c0.1,0.2,0.1,0.3,0.2,0.4c0.1,0.1,0.2,0.2,0.3,0.3c0,0,0.2-0.1,0.2-0.1c0-0.2,0-0.4-0.1-0.5c-0.1-0.2-0.3-0.3-0.5-0.6
		c-0.2,0.3-0.3,0.5-0.5,0.8c0.1,0.1,0.2,0.1,0.2,0.2C293.5,525.3,293.5,525.2,293.6,525z M271.3,532c0.5,0.6,1.3,0.6,1.6,0.1
		C272.3,532.1,271.8,532,271.3,532z M261.6,524.8c-0.4,1.1-0.3,1.3,0.4,1.4C261.8,525.7,261.7,525.3,261.6,524.8z M226.8,518.8
		c0.7-0.2,0.4-0.7,0.4-1.1C226.7,518,226.7,518,226.8,518.8z M291.7,511.1c-0.1,0-0.2,0-0.3,0c0,0.3-0.1,0.5,0,0.8
		c0,0,0.4,0,0.7,0.1C291.9,511.7,291.8,511.4,291.7,511.1z M271.6,528.8c-0.1-0.3-0.3-0.6-0.4-0.9c0,0-0.1,0-0.1,0
		c0,0.3-0.1,0.6-0.1,0.9C271.1,528.8,271.4,528.8,271.6,528.8z M259,522.5c0.1,0,0.2,0,0.2,0c0.1-0.3,0.2-0.6,0.2-0.9
		C259,521.8,258.7,522,259,522.5z"/>
	<path d="M339.9,501.7c-0.2-0.1-0.4-0.2-0.5-0.3c0.1-0.2,0.1-0.4,0.2-0.6c-0.1,0-0.1-0.1-0.2-0.1c-0.3,0.5-0.5,0.9-0.8,1.4
		c0.1,0,0.1,0.1,0.2,0.1c0.2-0.3,0.4-0.6,0.6-0.8c0,0.3,0,0.6,0,0.9c0,0.3,0.1,0.7-0.5,0.4c-0.1,0-0.4,0.2-0.5,0.4
		c-0.5,0.6-0.4,0.6-1.1,0.4c0.2-0.6,0-1.8-0.4-2.1c-0.2,0.9-0.3,1.7-0.5,2.6c-0.1-0.2-0.3-0.4-0.4-0.7c-0.2,0.6,0.1,0.9,0.5,1.1
		c0.3,0.2,0.7,0.4,0.9,0.5c0,0.5,0,0.8-0.1,1.2c-0.1,0.3-0.4,0.6-0.5,0.8c-0.1-0.5-0.2-0.9-0.4-1.3c-0.1-0.3-0.3-0.6-0.4-1
		c-0.1-0.3-0.3-0.3-0.6-0.3c-0.9,0.1-1.9,0.1-2.8,0.1c-0.1,0-0.2,0-0.3,0c-1,0.6-2.1,0.1-3.1,0.3c0,0-0.1,0-0.1,0
		c-0.5-0.1-1.9,1.2-1.8,1.6c0.4-0.1,0.8-0.2,1.1-0.3c0.4,0.8-0.2,1.1-0.6,1.3c-0.5,0.2-0.6,0.5-0.4,0.8c0.3,0.4,0.6,0.2,0.8-0.1
		c0,0,0.1,0,0.3-0.1c0,0.4,0.1,0.8,0.1,1.2c0,0.9,0,1.8-0.1,2.7c0,0.2,0.1,0.4,0,0.5c-0.5,1,0,2.1,0,3.1c-0.1,1.4,0.1,2.8,0.2,4.2
		c0,1,0,2.1-0.1,3.1c0,0.7,0.1,1.4,0.1,2.1c0,0.7,0,1.5,0,2.2c0,1.5,0.2,3,0,4.4c-0.2,1.7,0.2,3.3,0.2,5c0,0,0,0,0,0.1
		c-0.2,1.3,0.1,2.6,0.2,4c0.1,1.2,0.3,2.4,0.3,3.6c0,1,0.1,2,0.3,2.9c0.1,0.7,0,1.5,0,2.2c0,0.1-0.1,0.2,0,0.3
		c0.8,1.4,0.8,2.9,0.8,4.4c0.1,1,0.3,1.9,0.5,2.8c0.1,1,0.6,1.9,1.1,2.9c0.2,0.4,0.2,0.9,0.3,1.4c0.1,0.5,0.2,1.1,0.3,1.6
		c0,0.2-0.1,0.4-0.1,0.6c0,0.4-0.3,0.8,0.1,1.1c0.1,0,0.1,0.2,0,0.3c-0.1,1-0.2,2.1-0.4,3.1c-0.1,0.7-0.7,1.2-1.3,1.3
		c-1.9,0.5-3.8,0.6-5.7,0c-1-0.3-1.5-1-1.6-2c-0.1-1.2-0.2-2.5-0.3-3.7c-0.1-1.2-0.3-2.4-0.5-3.5c-0.1-0.8-0.4-1.5-0.6-2.3
		c-0.1-0.2,0-0.5,0-0.7c-0.2-1.4-0.4-2.8-0.7-4.2c-0.2-1-0.5-1.9-0.5-2.8c0.1-1.4-0.2-2.6-0.4-3.9c-0.1-1.3-0.1-2.6-0.1-4
		c0-0.3-0.2-0.7-0.2-1c0-1.5,0-3-0.1-4.5c0-0.6-0.1-1.2-0.2-1.8c-0.1-1.2-0.2-2.5-0.2-3.7c0-1.2,0.1-2.4,0-3.5
		c0-0.9-0.1-1.8-0.1-2.8c0-1.3,0-2.6,0-3.9c0-1.4,0-2.7,0-4.1c0-0.9,0.1-1.7,0.2-2.6c-0.4,0-0.3-0.3-0.3-0.7c0.1-0.9,0.1-1.9,0-2.8
		c-0.1-0.7,0.5-1,0.7-1.5c0-0.1,0.1-0.1,0.1-0.2c-0.2,0-0.6,0.1-0.6,0c-0.1-0.2-0.1-0.5-0.2-0.8c0.5,0.2,0.9,0.4,1.4,0.6
		c0.3-0.3,0.6-0.8,1-1.2c0.1-0.1,0.1-0.3,0.1-0.4c-0.2,0-0.3,0-0.6,0c0.3-0.7,0.2-1.4-0.3-1.8c0.5-0.7,0.9-1.3,1.4-1.9
		c0,0,0.1,0.1,0.2,0.3c0.2-0.4,0.4-0.7,0.6-1.1c-0.3,0-0.5,0.1-0.7,0.1c0-0.1-0.1-0.2,0-0.3c0.1-0.5-0.1-0.5-0.5-0.5
		c-0.5-0.1-0.9,0.1-1.3,0.3c-0.1,0-0.3-0.1-0.5-0.2c-0.2,0.3-0.5,0.7-0.9,1c-0.1,0.1-0.2,0.2-0.3,0.2c-0.4,0.2-0.8,0.4-1.1,0.5
		c-0.1,0.1-0.4,0-0.6-0.1c0,0.1,0.1,0.3,0.1,0.4c-0.4,0.1-0.8,0.2-1.1,0.4c-0.3,0.1-0.5,0.4-0.7,0.7c0,0.1,0.1,0.2,0.2,0.4
		c-0.9-0.1-2,0.6-2.6-0.6c-0.1-0.2,0.6-0.7-0.2-0.9c-0.8,0.1,0.2,1-0.5,1.3c0.2,0.1,0.3,0.2,0.6,0.3c-0.4,0.1-0.7,0.2-1,0.3
		c0-0.1-0.1-0.2-0.1-0.4c-0.2,0.2-0.3,0.8-0.6,0.1c0-0.1,0.3-0.4,0.5-0.6c-0.1-0.2-0.2-0.6-0.4-1c-0.2,0.2-0.4,0.3-0.6,0.4
		c0,0-0.1,0-0.1-0.1c0.1-0.1,0.2-0.3,0.2-0.4c0-0.2,0-0.4-0.1-0.6c0-0.1-0.3-0.1-0.3-0.1c-0.1,0.2-0.2,0.4-0.2,0.6
		c0,0.3,0,0.6-0.1,0.9c0.3,0.5,0.4,1-0.4,1.3c0-0.4,0-0.8,0-1.1c-0.4-0.1-0.8-0.3-1.2-0.4c0.3-0.1,0.5-0.2,0.7-0.3
		c0.1-0.1,0.2-0.2,0.2-0.2c-0.2-0.1-0.3-0.1-0.4-0.1c0-0.2,0-0.4,0-0.6c-0.1,0-0.1,0-0.2-0.1c-0.2,0.3-0.5,0.6-0.5,0.8
		c0.1,1-0.7,0.4-0.9,0.8c0,0-0.1-0.1-0.1-0.1c0.1-0.1,0.2-0.2,0.3-0.4c-0.8-0.2-0.2-0.7-0.3-1.1c-0.1,0-0.3,0-0.4,0
		c0,0.4,0.1,0.8,0.1,1.3c-0.3,0.4-1.4-0.7-1.6,0.8c-0.3-0.5-0.5-0.9-0.9-1.3c-0.1,0.4-0.2,0.7-0.3,1.2c-0.1-0.3-0.2-0.5-0.3-0.6
		c-0.8,0.6-1.5,1.3-2.8,1.2c0-0.5,0.1-0.9,0.1-1.4c0-0.1-0.1-0.3-0.3-0.4c0,0-0.2,0-0.2,0c0,0.1-0.1,0.3-0.1,0.4
		c0,0.3,0.1,0.6,0.1,0.9c-0.1,0.4-0.2,0.6-0.6,0.3c0.1-0.4,0.2-0.7,0.3-1c-0.1,0-0.1-0.1-0.2-0.1c-0.2,0.2-0.4,0.3-0.6,0.5
		c-0.5-0.3-1.3-0.1-1.8,0.4c-0.1-0.3-0.1-0.5-0.2-0.8c-0.2,0-0.4-0.1-0.6-0.1c0.1,0.2,0.1,0.3,0.1,0.6c-0.7,0-1.1,0.8-1.8,0.5
		c-0.2-0.1-0.4-0.3-0.6-0.5c-0.3-0.3-0.5-0.5-0.7-0.8c-0.1,0,0,0,0.3-0.1c-1.2-0.4-1.6-1.3-1.7-2.3c-0.1-0.8-0.3-1.9,0.7-2.5
		c0.1-0.1,0.2-0.2,0.3-0.3c0.6-0.9,1.5-1.1,2.3-0.5c0.7-0.1,1.3-0.2,2-0.3c0.9-0.1,1.7-0.2,2.6-0.2c0.7,0,1.3,0,2,0
		c1.2-0.1,2.5-0.3,3.7-0.4c1.4-0.1,2.7-0.1,4.1-0.2c1.1-0.1,2.2-0.3,3.3-0.4c1.3-0.1,2.6,0,3.9,0c0.5,0,1-0.1,1.5-0.1
		c0.2,0,0.3,0,0.5,0c0.7,0,1.3-0.1,2-0.1c0.4,0,0.8,0,1.3,0c0.6,0,1.3-0.1,1.9-0.1c0.7,0,1.3,0,2,0c0.7,0,1.3-0.2,2-0.2
		c0.4,0,0.8,0.1,1.2,0.1c1.2-0.1,2.3-0.3,3.5-0.2c0.7,0.1,1.3-0.1,2-0.1c1.6-0.1,3.2-0.1,4.8-0.2c0.9,0,1.7-0.2,2.5-0.3
		c0.3,0,0.5,0.1,0.8,0c0.3,0,0.5-0.2,0.8-0.3c0.8-0.1,1.7-0.1,2.5-0.3c0.8-0.1,1.6-0.3,2.5-0.4c0.3,0,0.6-0.1,0.9-0.1
		c0.7,0,1.3,0.1,2-0.3c0.4-0.2,0.9,0,1.4-0.1c0.3,0,0.5-0.2,0.8-0.2c0.2,0,0.3,0.1,0.5,0.1c0.6-0.1,1.3-0.1,1.9-0.2
		c0.5-0.1,1-0.2,1.5-0.2c0.3,0,0.7,0,0.9-0.1c0.6-0.3,1.1-0.3,1.7-0.2c0.3,0,0.7-0.2,1.1-0.2c1-0.2,2.1-0.6,3.1-0.5
		c0.7,0.1,1.2-0.3,1.8-0.4c0.6-0.1,1.3-0.1,1.9-0.2c0.5-0.1,1-0.4,1.5-0.5c0.4-0.1,0.8,0,1.2-0.1c1-0.3,1.9-0.7,2.8-0.9
		c0.5-0.1,1.1,0.1,1.7,0.1c0.2,0,0.3,0.1,0.5,0.1c0.6,0,1.9,1.1,2.1,1.7c0.1,0.5,0.1,1.2,0.8,1.5c0.1,0,0.1,0.3,0.1,0.4
		c0.1,0.2,0.1,0.4,0.2,0.5c0.7,0.8,0.7,1.4,0.1,2.3c-0.3,0.5-0.6,0.9-0.9,1.3c-0.2,0.2-0.3,0.6-0.8,0.3c0,0-0.2,0-0.2,0.1
		c-0.5,0.8-1.2,0.7-1.9,0.5c-0.2,0-0.5,0-0.7,0.1c-0.7,0.3-1.6,0.2-2.3,0.5c-0.6,0.2-1.3,0.3-2,0.4c-0.7,0.1-1.6-0.1-2.3,0.4
		c-0.4,0.3-1,0.2-1.6,0.3c-0.6,0.1-1.2,0.2-1.8,0.3c-0.2,0-0.5,0.1-0.7,0.1c-0.7,0.1-1.5,0-2.2,0.2c-0.6,0.2-1.2,0.1-1.7,0.3
		c-0.2,0.1-0.4-0.1-0.6-0.2c0,0.2,0,0.4-0.1,0.6c-0.9-0.5-1.7-0.1-2.5,0c-0.2,0-0.4-0.1-0.7-0.1c0,0,0,0.2-0.1,0.2
		c-1-0.2-1.9,0.7-3,0.2c-0.1,0-0.2,0-0.2,0c-0.9,0.6-1.9,0.3-2.9,0.4c-0.1,0-0.3-0.1-0.3-0.1c-0.3,0.1-0.5,0.1-0.7,0.2
		c0,0,0,0-0.1,0c-0.7,0.1-1.4,0.2-2.1,0.3c-0.2,0-0.4,0.1-0.7,0.2c0.1-0.3,0.1-0.6,0.2-0.9c-0.3,0.3-0.6,0.6-0.9,0.8
		c-0.2,0.1-0.5,0.1-0.7,0.1c-0.5,0-0.9,0.3-1,0.8c0.3,0.1,0.6,0.7,0.5,1.1c-0.1,0.4-0.2,0.9-0.2,1.3c-0.1,1.4-0.1,2.9-0.2,4.3
		c0,0.5,0.1,0.9,0.2,1.4c-0.3,0.2-1,0.1-0.3,0.7c0.3,0.2,0.3,1,0.2,1.4c-0.1,0.9,0.1,1.7,0.1,2.6c0,1.3,0,2.5,0,3.8
		c0,0.6,0.1,1.2,0.2,1.8c0,0.6,0.1,1.2,0.1,1.8c0,0.9-0.1,1.9,0,2.8c0.2,1.2,0.3,2.4,0.1,3.6c-0.1,0.8,0.1,1.5,0.1,2.3
		c0,0.9,0,1.7,0,2.6c0,0.7,0.2,1.4,0.4,2.2c0.6-0.4,1.2-0.7,1.7-1c1.2-0.8,2.4-1.6,3.7-2.5c0,0,0.1,0,0.1-0.1
		c0.5-0.6,1.2-0.9,1.8-1.2c0.2-0.1,0.4-0.3,0.6-0.5c0.3-0.3,0.6-0.6,1.1-0.5c0.1,0,0.4-0.1,0.4-0.2c0.6-0.8,1.5-0.9,2.3-1.3
		c1.2-0.5,2.4-1,3.8-1.1c0.4,0,0.8-0.1,1.3,0c0.6,0,1.2-0.1,1.8-0.4c0.2-0.1,0.3-0.6,0.4-0.9c0.1-1.4,0-2.8,0.1-4.2
		c0-1.1,0.2-2.1,0.2-3.2c0-1-0.1-1.9-0.1-2.9c0-0.8,0-1.7,0-2.5c0-0.4-0.2-0.7-0.3-1.1c-0.6,0.4-1.1,0.8-1.7,1.1
		c-0.3,0.2-0.5,0.3-0.8,0.5c-0.1,0-0.2,0.1-0.2,0.1c-0.3,1.1-1.3,1.6-2,2.3c-0.6,0.6-1,1.2-1.6,1.7c-0.8,0.6-1.5,1.5-2.1,2.3
		c-0.3,0.4-1.2,0.6-1.7,0.3c-0.1-0.1-0.3-0.1-0.4-0.1c-0.8,0.5-1.4-0.3-2.1-0.3c-0.5,0-1.2-0.6-1.6-1.1c-0.4-0.5-0.4-1.2-0.6-1.8
		c-0.4-1.5,0.8-2.3,1.4-3.4c0.5-0.9,1.2-1.8,1.8-2.6c0.4-0.5,0.8-0.8,1.3-1.3c1-1,2-2,3-2.9c0.5-0.5,1.2-0.8,1.7-1.2
		c0.7-0.5,1.4-1,2.2-1.3c0.8-0.3,1.7-0.5,2.6-0.6c0.7-0.1,1.3-0.2,2-0.2c0.3,0,0.6,0.3,0.9,0.4c0.7,0.3,1.4,0.5,2.1,0.8
		c0.2,0.1,0.2,0.4,0.4,0.4c0.7,0,0.9,0.5,1.3,0.9c0,0.1,0.2,0,0.4,0c0,0.1,0,0.4,0,0.4c1.2,0.5,1.2,1.8,1.6,2.7
		c0.6,1.2,0.6,2.4,0.9,3.7c0.2,0.8,0.1,1.7,0.1,2.5c0.1,0.9,0.2,1.8,0.3,2.7c0,0.1,0,0.2-0.1,0.3c-0.1,0.3-0.3,0.7,0,1
		c0.1,0.1,0,0.4,0,0.6c-0.1,1.1-0.2,2.3-0.2,3.4c0,2-0.1,4.1-0.1,6.1c0,2.1-0.1,4.3,0.2,6.4c0.2,1.7,0.6,3.5,1.5,5
		c0.2,0.4,0.8,0.8,1.3,0.9c0.7,0.1,0.8,0.6,1,1c0.5,1,0.6,2.1,0.3,3.2c-0.3,1-1,1.5-2.1,1.6c-0.8,0.1-1.6,0.3-2.4-0.1
		c-0.2-0.1-0.4-0.2-0.7-0.3c-0.7,0.7-1.4,1.6-2.2,2.3c-0.8,0.7-1.5,1.4-2.5,1.7c-0.2,0.1-0.2,0.3-0.4,0.5c-1,0.9-2.2,1.5-3.6,1.4
		c-1.6-0.1-3.1,0-4.7-0.3c-1.4-0.2-2.9-0.3-4.2-1c-0.3-0.2-0.7-0.2-1-0.3c-0.8-0.2-1.7-0.4-2.5-0.9c-0.6-0.4-1.4-0.5-2.1-0.9
		c-0.4-0.2-0.7-0.6-1.1-0.8c-0.6-0.4-0.6-0.3-0.9,0.3c-0.4,0.8-1.1,1.1-1.9,1.4c-0.5,0.2-1.1,0.3-1.6,0.3c-0.7,0-1.3,0-2-0.1
		c-1.5-0.1-2.8-1.2-3.2-2.7c-0.2-0.8-0.2-1.6-0.3-2.4c-0.2-1.1-0.3-2.3-0.5-3.4c-0.2-1-0.3-2.1-0.6-3.1c-0.4-1.4-0.3-2.8-0.5-4.2
		c-0.1-1.3-0.3-2.6-0.3-3.9c0-0.8,0.1-1.7,0.1-2.6c0-0.4-0.1-0.8-0.1-1.2c-0.1-2-0.1-4-0.1-6c0-1.3,0-2.6,0-3.9
		c0-0.8-0.1-1.6-0.1-2.4c0-0.4,0-0.9,0-1.3c0-0.5-0.1-1-0.1-1.6c0-0.7,0.1-1.4,0.1-2c0-0.6-0.1-1.2-0.1-1.7c0-0.5,0.1-1,0.1-1.5
		c0-0.4-0.1-0.8-0.1-1.2c0-0.3,0.1-0.7,0.1-1.2c0.6,0.7,1.4,0.8,1.7,0.5c-0.1,0-0.3,0-0.2,0c-0.2-0.4-0.3-0.7-0.5-1.1
		c0.4-0.5,0.9-1.2,0.5-2.1c0-0.1,0-0.3,0.1-0.3c0.1,0,0.3,0,0.3,0.1c0.1,0.2,0.2,0.4,0.2,0.6c0.5-0.5,1-1.2,1.9-1
		c0,0.3-0.1,0.5-0.1,0.8c0.3-0.2,0.4-0.3,0.6-0.4c0.3,0.1,0.7,0.2,1,0.3c0-0.1,0.7-0.7,1-0.9c0.3,0.3,0.5,0.6,0.8,0.9
		c0.3,0.4,0,1-0.4,1.2c-0.2,0.1-0.3,0.3-0.5,0.4c0,0.1,0.1,0.2,0.3,0.4c-0.3,0.2-0.6,0.3-1,0.5c0.1,0.1,0.3,0.4,0.4,0.4
		c0.2,0,0.4-0.3,0.6-0.5c0.4-0.5,0.8-1.1,1.2-1.6c0.1-0.1,0.2-0.5,0.1-0.5c-0.7-0.7-0.1-1.3,0-1.9c0-0.2,0.1-0.4,0-0.5
		c-0.1-0.1-0.3-0.1-0.4-0.2c-0.1-0.2-0.2-0.5-0.3-0.8c-0.3,0.3-0.5,0.4-0.6,0.6c-0.1,0.2-0.2,0.5-0.4,0.7c-0.3-0.3-0.5-0.5-0.7-0.7
		c-0.2,0.4-0.9,0.5-0.8,1.2c0,0.1-0.4,0.3-0.7,0.5c-0.1-0.2-0.1-0.4-0.2-0.6c-0.3,0.1-0.6,0.3-0.9,0.4c-0.1,0-0.2,0-0.3-0.1
		c0-0.1,0.1-0.3,0.1-0.3c0.7-0.1,0.7-0.8,1.2-1.2C340.2,501.9,340,501.8,339.9,501.7c0.6-0.2,0.6-0.7,0.6-1.2
		c-0.1,0-0.1-0.1-0.2-0.1C340.2,500.8,340,501.2,339.9,501.7z M364.8,546.4c0.4-0.2,0.6-0.4,0.9-0.5c0.8-0.3,1.1-0.8,0.9-1.6
		c-0.1-0.3-0.3-0.6-0.4-0.9c-0.6-1.9-1.2-3.9-1.3-6c0-0.7-0.4-1-1-1c-0.5,0-1,0.1-1.5,0.3c-1.1,0.5-2.2,1.1-3.3,1.7
		c-0.5,0.3-1,0.5-1.5,0.9c-0.9,0.6-1.8,1.3-2.7,1.9c-1,0.7-2,1.5-3,2.3c-0.5,0.4-0.5,0.9-0.4,1.5c0.3,1.4,1.3,2,2.5,2.4
		c0.9,0.3,1.9,0.6,2.8,0.8c1.4,0.4,2.8,0.9,4.2,0.3c0.2-0.1,0.4,0,0.6-0.1c0.2-0.1,0.4-0.2,0.6-0.3c0.3-0.2,0.7-0.4,1-0.7
		c0.3-0.2,0.6-0.4,0.8-0.7C364.4,546.3,364.6,546.3,364.8,546.4z M325.5,503.7c1.1,0.4,0.5,1,0.1,1.5c1.3,0.2,1.7-0.1,1.8-1.4
		c-0.4,0-0.9-0.1-1.3-0.1c0-0.1,0.1-0.3,0.1-0.4c0-0.1-0.1-0.3-0.1-0.4c-0.5,0.2-0.5-0.3-0.8-0.6c-0.2,0.2-0.5,0.3-0.7,0.5
		c0,0.1,0.1,0.1,0.1,0.2c0.2,0,0.5,0,0.7,0c-0.1,0.2-0.2,0.4-0.2,0.6c0.3-0.1,0.5-0.1,0.7-0.1c0,0,0,0.1,0,0.1
		C325.7,503.5,325.6,503.6,325.5,503.7z M322.9,503.4c-0.2,0.2-0.3,0.5-0.5,0.6c-0.2,0.1-0.4,0.2-0.6,0.3c-0.1,0.1-0.1,0.2-0.1,0.3
		c0.1,0.3,0.2,0.5,0.3,0.8C323.2,504.7,323.3,504.4,322.9,503.4z M303,501.7c-0.1,0-0.1,0-0.2,0c-0.2,0.6-0.4,1.2-0.6,1.9
		c0.3,0,0.5,0,0.8,0C303,503,303,502.4,303,501.7z M323.3,505.2c0.4-0.2,0.5-0.3,0.8-0.4c-0.2-0.2-0.3-0.3-0.4-0.4
		c0.1-0.3,0.2-0.6,0.3-0.9C323,503.9,323.6,504.6,323.3,505.2z M324.2,502.2c-0.3,0.2-0.5,0.3-0.8,0.5c0.2,0.5,0.6,0.5,1,0
		C324.3,502.5,324.2,502.4,324.2,502.2z M327,513.7c0.4-0.3,0.7-0.5,1-0.8c0-0.1-0.1-0.1-0.1-0.2c-0.3,0.1-0.7,0.3-1,0.4
		C326.8,513.2,326.9,513.5,327,513.7z M326.3,507.8c0,0-0.1,0-0.1-0.1c-0.1,0.4-0.2,0.8-0.3,1.2c0.1,0,0.2,0,0.4,0
		C326.3,508.6,326.3,508.2,326.3,507.8z M365.4,511.9c0,0.3,0,0.5,0,0.7c0.3,0,0.5-0.1,0.9-0.1C365.9,512.2,365.7,512,365.4,511.9z
		 M361.4,550.9c0.1,0,0.2,0.1,0.2,0.1c0.1-0.2,0.3-0.5,0.4-0.7c-0.2-0.1-0.3-0.1-0.5-0.2C361.5,550.4,361.5,550.7,361.4,550.9z"/>
	<path d="M236.2,580.5c0.3,0.5,0.7,1.1,1.1,1.6c1,1.3,1.6,2.7,1.4,4.3c-0.1,0.9-0.5,1.8-0.7,2.7c-0.3,1.6-1.6,2.7-2.4,4
		c-0.5,0.8-1.1,1.6-1.7,2.3c-0.2,0.3-0.6,0.5-0.9,0.8c-0.5,0.6-1,1.3-1.6,1.9c-0.2,0.2-0.7,0.1-0.5,0.5c-0.2,0.1-0.4,0.2-0.6,0.3
		c-0.7,0.4-1.2,1-1.5,1.7c-0.2,0.5-0.5,0.9-1,1.2c-0.1,0.1-0.1,0.3-0.1,0.6c-1-0.1-1,1-1.7,1.3c0.5,0.2,1.1,0.4,1.6,0.6
		c0.2,0.1,0.5,0,0.7,0.1c0-0.1,0-0.1,0-0.2c0.4,0.3,0.8,0.7,1.2,1c0.1,0.1,0.2,0.1,0.2,0.1c1-0.3,1.6,0.5,2.3,0.8
		c0.8,0.3,1.7,0.6,2.2,1.4c0.2,0.3,0.9,0.4,1.3,0.7c0.6,0.4,1.2,1,1.8,1.5c0.4,0.3,0.7,0.5,1.1,0.8c0.5,0.3,0.9,0.7,1.3,1.1
		c2.3,1.9,4.2,4.2,6.1,6.5c1.3,1.5,2.5,3,3.7,4.5c0.5,0.7,0.8,1.5,1.3,2.2c0.2,0.3,0.5,0.6,0.7,0.9c0.2,0.3,0.3,0.6,0.4,0.8
		c0.2,0.4,0.4,0.7,0.7,1c0.6,0.8,1.3,1.6,2,2.5c0,0,0-0.1,0-0.3c0.1,0,0.1,0.1,0.2,0.1c0.1,1,0.8,1.6,1.4,2.3
		c0.3,0.3,0.5,0.6,0.7,0.9c0.4,0.5,1.1,0.6,1.2,1.3c1.1,0.2,1.4,1.6,2.5,1.7c0.1,0,0.2,0.1,0.2,0.2c0.2,1,1.1,1.4,1.8,1.8
		c0.5,0.3,0.7,0.9,1.3,1c0.1,0,0.3,0.2,0.4,0.4c0.3,0.6,0.3,0.7,1,0.6c0,0.1,0,0.3,0,0.4c0,0.1,0,0.2,0,0.1c0.4,0.4,0.7,0.7,1,1
		c0.1,0.1,0.2,0.2,0.4,0.2c0.5,0.2,1.1,0.4,1.6,0.6c0.4,0.2,0.6,0.7,1.1,0.9c1.2,0.5,2.3,1.1,3.4,1.7c0.3,0.2,0.7,0.3,1.1,0.5
		c0,0.1,0,0.3,0,0.6c0,0,0.1,0,0.1,0c0-0.2,0-0.4,0-0.4c1,0.5,2,1.1,3.1,1.7c-0.1-0.2-0.1-0.3-0.2-0.4c0,0,0.1,0,0.1,0
		c0.3,0.8,1,0.9,1.6,1.2c0.4,0.2,0.8,0.4,1.3,0.6c0.1,0.1,0.2,0.1,0.3,0.1c0.3,0.1,0.6,0.2,1,0.3c0.2-0.2,0.9-0.1,1.4,0.4
		c0.1,0.1,0.3,0.3,0.5,0.3c0.7,0.2,1.4,0.4,2.1,0.7c0.3,0.1,0.6,0.2,0.8,0.2c0.4,0.3,0.8,0.6,1.2,0.7c0.4,0.1,0.9,0,1.2,0.1
		c0.6,0.2,1.2,0.4,1.8,0.7c0.1-0.1,0.2-0.2,0.2-0.2c0.6,0.1,1.1,0.4,1.5,0.3c0.5-0.1,0.8,0.8,1.3,0.1c0.2,0.3,0.4,0.5,0.4,0.6
		c1.3,0.2,2.4,0.4,3.6,0.7c0-0.2,0.1-0.4,0.1-0.6c0.5,0.3,0.9,0.6,1.3,0.8c0.1,0,0.2-0.1,0.3-0.1c0.4,0,0.8,0.3,1.2-0.1
		c0.2-0.1,0.6,0.1,0.9,0.3c0.4,0.3,0.6,0.2,0.7-0.2c0.5,0.1,0.9,0.2,1.4,0.3c0.1,0,0.2-0.2,0.2-0.3c0.2-0.2,0.3-0.4,0.7-0.2
		c0.3,0.2,0.7,0.5,1,0.5c0.5,0,0.9-0.3,1.4-0.5c0,0.1,0,0.3,0,0.6c0.2-0.1,0.3-0.1,0.5-0.2c0.1,0.6,0.5,0.6,0.9,0.4
		c0.5-0.2,0.9-0.2,1.4-0.1c0.8,0.2,1.7,0,2.5,0.1c0.5,0,1,0.1,1.5,0.2c0.1,0,0.3,0,0.6,0c0.5,0.4,1.2,0.3,1.8-0.3
		c0.2-0.2,0.4-0.3,0.7-0.1c0.2,0.2,0.5,0.3,0.9,0.4c-0.1-0.2-0.3-0.3-0.5-0.5c0.4,0,0.7,0.1,1.1,0.1c0,0.1-0.1,0.3-0.1,0.4
		c0.5-0.1,1-0.1,1.5-0.4c0.4-0.2,0.7-0.1,1.2,0c0.4,0.1,1,0,1.5,0c0,0.1,0,0,0,0c0.7-0.1,1.3-0.2,1.8-0.2c0.4,0,0.9-0.4,1.1,0.4
		c0.2-0.1,1.1-0.3,1.4-0.3c0.5,0,0.7-0.3,1-0.7c0.1,0.1,0.3,0.2,0.4,0.3c0-0.2,0.1-0.3,0.1-0.4c0.6,0.2,1.2,0.5,1.8,0.5
		c0.7,0,1.3-0.4,2-0.7c0.2-0.1,0.4-0.3,0.6-0.3c0.7,0,1.3,0,2,0c0.1,0,0.3-0.2,0.4-0.2c0.1,0,0.2,0,0.4,0c0-0.1,0-0.2,0-0.2
		c0.8-0.1,1.6-0.3,2.4-0.4c0.6-0.1,1.2-0.3,1.8-0.4c0.2,0,0.3,0,0.5-0.1c0.2-0.1,0.3-0.2,0.5-0.3c0.4,0.3,3.4-0.6,3.9-1.1
		c0.5,0.3,0.9,0,1.3-0.3c0.8-0.4,1.2-1.4,2.3-1.2c0.1,0,0.1,0,0.2-0.1c0.5-0.4,0.9-0.8,1.6-0.8c0.1,0,0.2-0.3,0.4-0.4
		c0.8-0.4,1.6-0.8,2.3-1.2c0.1-0.1,0.2-0.1,0.3-0.2c0.4-0.5,0.9-0.9,1.6-1.2c0.8-0.4,1.4-1,2.1-1.5c0.5-0.4,0.9-0.7,1.4-1.1
		c1.1-0.8,2.4-1.5,3.4-2.5c0.8-0.7,1.7-1.2,2.9-1c1,0.2,1.6,0.5,1.9,1.5c0,0.1,0.2,0.2,0.3,0.3c0.7,0.6,1,1.3,1,2.2
		c0.6,0.2,0.9,0.6,0.4,1.2c0,0,0,0.1,0,0.1c0.3,1.3-0.7,1.9-1.5,2.5c-1.4,1.1-2.9,1.9-4.3,2.9c-0.9,0.6-1.7,1.4-2.6,2.1
		c-0.8,0.6-1.8,1.1-2.6,1.7c-0.5,0.4-1,0.9-1.6,1.2c-0.2,0.1-0.6,0.1-0.8,0.2c-0.6,0.4-1.3,0.7-1.8,1.2c-0.4,0.4-1.1,0.8-1.6,0.8
		c-0.6-0.1-0.7,0.5-1.1,0.5c-0.1,0-0.3,0-0.4,0.1c-0.2,0.1-0.3,0.2-0.4,0.3c-0.1,0.1-0.2,0.2-0.3,0.2c-1,0.3-1.9,0.7-2.9,1
		c-0.6,0.2-1.3,0.2-1.9,0.4c-0.1,0-0.2,0.3-0.2,0.3c-0.3,0-0.5,0-0.8,0c-0.3,0-0.7-0.1-1,0c-0.4,0.1-0.9,0.2-1.3,0.3
		c-1.7,0.4-3.4,0.9-5.1,1.3c-0.7,0.2-1.4,0.3-2.1,0.5c0,0.1,0.1,0.3,0.1,0.5c-0.3-0.7-0.8-0.6-1.3-0.3c-0.1,0.1-0.3,0-0.4,0
		c-0.7,0.1-1.4,0.2-2.1,0.3c-0.2,0-0.3,0.3-0.5,0.4c-0.1,0-0.2-0.1-0.3-0.2c0-0.1,0-0.1,0.1-0.2c0.1,0,0.3,0,0.4,0.1
		c0-0.1,0-0.1,0-0.1c-0.1-0.3-4.4-0.2-5.2,0.1c0.1,0.2,0.2,0.3,0.3,0.5c-0.2,0-0.3,0.1-0.5,0.1c0.3-0.9-0.4-0.6-0.7-0.7
		c-0.7-0.3-1.4-0.3-2,0.3c-0.1,0.1-0.1,0.1-0.2,0.1c0,0-0.1,0-0.1-0.1c0.1-0.2,0.2-0.3,0.4-0.6c-0.4,0.1-0.7,0.2-1.1,0.3
		c0.2,0.3,0.3,0.6,0.5,1c-0.2-0.1-0.3-0.1-0.4-0.1c-0.3-1-1.1-0.8-1.9-0.8c-0.3,0-0.6,0-1-0.1c0,0-0.2,0.2-0.3,0.2
		c-0.5-0.1-1,0-1.5,0c-0.7,0-0.8,0.3-0.7,0.8c-0.2,0-0.3,0-0.5,0c0-0.6-0.3-0.8-0.9-0.7c-0.5,0.1-1.1-0.1-1.6-0.2
		c-0.5,0-0.9,0-1.4,0c-0.3,0-0.5-0.1-0.7-0.2c-0.1,0-0.3-0.1-0.3,0c-0.3,0.6-0.5,0.3-0.8,0c0,0-0.1,0-0.1,0
		c-0.5,0.1-1.1,0.3-1.5,0.1c-0.5-0.3-0.9-0.4-1.4-0.1c-0.1,0-0.3,0.1-0.4,0c-0.4-0.4-0.9-0.2-1.4-0.2c-0.5,0-1,0-1.5,0
		c0,0.2,0,0.4,0,0.6c-0.1,0-0.1,0-0.1,0c-0.2-0.6-0.7-0.5-1.1-0.6c-0.5-0.2-0.9-0.1-1.4,0.2c-0.2,0.2-0.8,0.3-1-0.3
		c0-0.1-0.3-0.2-0.5-0.2c-0.4,0-0.7,0.1-1.1,0.1c-0.1,0-0.3-0.2-0.3-0.2c-0.4,0-0.7,0-1,0c-0.7-0.1-1.4-0.2-2.1-0.2
		c-0.3,0-0.6,0.1-0.8,0.2c0-0.1,0.1-0.2,0.3-0.5c-0.5,0-1,0.1-1.3-0.1c-0.6-0.5-1.4,0.1-2-0.6c-0.4-0.5-1.5-0.5-2.3-0.6
		c-0.4,0-0.7,0.6-1.1,0.9c-0.1-0.1-0.3-0.3-0.5-0.5c0.3-0.1,0.6-0.1,0.8-0.2c-0.1-0.3-0.2-0.6-0.3-0.9c-0.6,0.5-0.9-0.1-1.4-0.3
		c-0.6-0.1-1.1-0.4-1.7-0.6c-0.3-0.1-0.6,0.1-0.9,0.2c0,0.1,0,0.1,0,0.2c-0.1-0.1-0.2-0.3-0.3-0.4c-0.3-0.4-0.6-0.8-1.2-0.9
		c-0.6-0.1-1.2-0.4-1.8-0.6c-0.5-0.2-1.1-0.1-1.2-0.8c0,0-0.3,0.1-0.5,0c-0.6-0.3-1.2-0.6-1.9-0.8c-0.2-0.1-0.4,0-0.6-0.1
		c-0.2-0.1-0.5-0.1-0.6-0.2c-1.3-1.1-2.8-1.6-4.3-2.3c-0.7-0.3-1.5-0.6-2.2-1c-0.6-0.3-1.2-0.7-1.8-1.1c0,0,0,0,0,0
		c-0.7,0.5-0.8-0.4-1.2-0.6c-0.5-0.3-1-0.5-1.5-0.8c-0.4-0.2-0.8-0.3-1.2-0.4c-0.3-0.1-0.5-0.3-0.7-0.5c-0.5-0.4-1-0.9-1.6-1.4
		c-0.1-0.1-0.3-0.2-0.6-0.4c-0.2-0.5-0.6-1-1.3-1.4c-0.6-0.4-1-1-1.5-1.5c-0.5-0.5-1.1-1-1.6-1.5c-0.5-0.5-0.9-1-1.4-1.4
		c-0.3-0.3-0.6-0.6-0.9-0.9c-0.6-0.5-1.2-0.9-1.7-1.5c-0.3-0.3-0.3-0.7-0.7-1c-0.6-0.5-1-1.2-1.5-1.8c-0.9-1.2-1.9-2.4-2.8-3.7
		c-0.6-0.8-1.2-1.5-1.7-2.4c-0.6-1.1-1.6-1.9-1.9-3.2c0-0.2-0.4-0.3-0.5-0.5c-0.4-0.7-0.7-1.4-1.1-2c-0.4-0.6-0.9-1-1.4-1.6
		c-0.5-0.5-0.9-1.1-1.4-1.7c0,0-0.1,0.1-0.2,0.1c-0.4-0.6-0.8-1.2-1.2-1.8c0,0-0.1-0.1-0.1-0.1c-0.8,0.1-0.9-0.6-1.2-1
		c-0.1-0.2-0.4-0.3-0.6-0.4c0.5-0.6-0.3-0.5-0.6-0.8c-0.2-0.2-1-0.8-1.2-1c-0.3-0.3-0.7-0.5-1-0.7c-0.4-0.3-0.8-0.7-1.2-0.9
		c-1-0.6-2-1.2-3-1.8c-1.4-0.7-2.9-1.2-4.4-1.7c-0.6-0.2-1.2-0.5-1.8-0.7c-0.3-0.1-0.5-0.1-0.8-0.2c-0.5-0.2-1.1-0.3-1.6-0.5
		c0.1,0.1,0.1,0.2,0.2,0.3c-0.1,0-0.1,0.1-0.1,0.1c-0.5-0.5-1-0.5-1.6-0.1c-0.5,0.3-1,0.4-1.5,0.6c-0.3,0.2-0.6,0.5-0.8,0.8
		c-0.1,0-0.3-0.3-0.5-0.2c-0.1,0-0.3,0.3-0.4,0.5c-0.8-0.1-1.5,0.2-2.3,0.5c-0.8,0.4-1.8,0.6-2.6,1.1c-0.3,0.2-0.5,0.8-0.5,1.1
		c0.1,0.6,0.4,1.3,0.5,1.9c0.1,0.2,0.1,0.5,0.1,0.8c0.2,0,0.3,0,0.5,0.1c0,0.1,0,0.1,0,0.2c-0.2,0-0.4,0.1-0.7,0.1
		c0.1,0.7,0.3,1.4,0.4,2.1c0.1,0.8,0.4,1.6,0.5,2.4c0.1,0.7,0.1,1.6,0.7,2.3c0,0,0,0.1,0,0.2c-0.3,0.9,0.3,1.6,0.4,2.4
		c0.2,0.9,0.1,1.8-0.1,2.7c-0.2,1-1,1.7-1.9,1.9c-0.9,0.2-1.9,0.5-3,0c0,0.1,0,0.2,0,0.2c-0.4-0.1-0.8-0.1-1.2-0.2
		c-0.1,0-0.2-0.1-0.3-0.1c-0.6,0.1-0.9,0-1.2-0.5c-0.3-0.5-1-0.7-1.4-1.1c-0.1-0.1-0.2-0.3-0.2-0.4c0.5-0.6,0-1.2,0-1.9
		c0-0.4,0.1-0.9-0.5-1.1c0.1-0.1,0.1-0.2,0.1-0.1c-0.1-0.2-0.1-0.4-0.1-0.6c-0.2-1.2-0.5-2.3-0.7-3.5c-0.1-0.5-0.2-1.1-0.3-1.7
		c0,0,0.1-0.1,0.1-0.2c-0.1,0-0.1,0-0.2,0c-0.2-1.1-0.3-2.1-0.5-3.2c-0.2,0-0.3-0.1-0.5-0.1c0,0,0-0.1,0-0.1c0.2,0,0.4-0.1,0.5-0.1
		c-0.1-0.3-0.3-0.6-0.4-0.9c-0.1-0.4,0-0.8-0.1-1.2c-0.1-0.5-0.3-1-0.4-1.6c0,0,0.1,0,0.2,0c-0.1,0-0.1-0.1-0.2-0.1
		c-0.2-0.3-0.8-0.5-0.1-1c0.1,0,0.1-0.3,0-0.4c-0.6-0.5-0.1-1.1-0.2-1.6c-0.1-0.5-0.2-1.1-0.8-1.3c0.1-0.3,0.2-0.6,0.4-1
		c-0.2-0.3-0.6-0.8-0.2-1.4c0-0.1,0-0.2-0.1-0.3c-0.8-0.7-0.2-1.6-0.5-2.4c-0.1-0.3-0.2-0.7-0.2-1.1c0-0.3,0.1-0.6,0-0.9
		c-0.2-1.1-0.5-2.3-0.7-3.4c-0.1-0.7-0.2-1.5-0.3-2.2c0-0.3-0.1-0.6-0.2-0.9c0-0.2-0.2-0.4-0.1-0.5c0.2-0.8,0-1.5-0.2-2.2
		c-0.1-0.5,0.1-1,0-1.5c-0.2-1-0.5-2-1.4-2.6c-0.6-0.4-0.7-1.2-0.5-1.9c0.1-0.4,0.1-0.8,0.2-1.1c0.4-0.7,0.8-1.4,1.2-2.2
		c0.2-0.4,0.4-0.8,0.6-1.1c0.2-0.4,0.6-0.4,0.9-0.2c0.8-0.4,1.6-0.7,2.3-1.1c0.8-0.4,1.5-1,2.3-1.5c0,0-0.1-0.1-0.1-0.1
		c0.2,0,0.4,0.1,0.5,0.1c0.4-0.3,0.8-0.6,1.2-0.9c0.3-0.2,0.7-0.3,0.9-0.5c0.5-0.4,1.4-0.3,1.6-1.1c0,0,0.2,0,0.2,0
		c0.5-0.2,0.9-0.4,1.4-0.5c0.7-0.2,1.1-0.8,2-0.7c0.5,0.1,1-0.3,1.5-0.5c0.7-0.2,1.5-0.5,2.2-0.5c0.5,0,1-0.1,1.5-0.2
		c0.2,0,0.5,0,0.8,0c0.2,0,0.4,0,0.6-0.1c0.1,0,0.3-0.1,0.3,0c0.4,0.4,0.9,0.1,1.4,0.1c0.2,0,0.4,0.1,0.6,0.1
		c2.4-0.1,4.6,0.7,6.9,1.5c1.5,0.5,3,1,4.5,1.6c0.9,0.4,2,0.7,2.7,1.5c0.2,0.3,0.7,0.3,1,0.6c0.6,0.4,1.2,0.9,1.8,1.4
		C235.4,580,235.8,580.3,236.2,580.5z M226.7,582.3c-0.3-0.1-0.6-0.2-0.8-0.3c-0.3-0.2-0.5-0.4-0.8-0.5c-0.9-0.4-1.6-1-2.6-1.2
		c-0.9-0.2-1.8-0.4-2.8-0.4c-0.4,0-0.8,0-1.2,0c-0.6,0-1.2,0-1.8,0c-0.6,0-1.1,0.2-1.6,0.4c-0.4,0.2-1,0.1-1.5,0.3
		c-1.4,0.4-2.6,1.1-3.8,1.8c-0.8,0.5-1.6,1-2.3,1.6c-0.3,0.2-0.6,0.5-1,0.7c-0.6,0.4-1.2,0.7-1.3,1.4c-0.2,0-0.3,0-0.5,0.1
		c-0.1,0-0.1,0.3,0,0.3c0.6,0.2,0.4,0.7,0.5,1.1c-0.6-0.1-0.7,0.1-0.4,0.5c0.1,0.1,0.1,0.2,0.1,0.4c0,0.7,0,1.4,0.1,2.1
		c0.1,0.9,0.3,1.7,0.4,2.6c0.1,1.5,0.2,3,0.7,4.4c0.2,0.6,0.2,1.2,0.3,1.8c0.1,0.6,0.2,1.2,0.3,1.8c0.1,0,0.1,0,0.2,0
		c0.1-0.2,0.2-0.4,0.4-0.8c0.5,0.4,1.1,0.8,1.6,1.2c-0.1,0.1-0.1,0.1-0.2,0.2c-0.2-0.2-0.5-0.4-0.9-0.8c-0.3,0.3-0.6,0.6-1,0.9
		c0,0-0.1-0.1-0.2-0.2c0.4,0.5,0.1,1.5,1.2,1.7c0.4-0.4,0.8-0.9,1.2-1.3c0.1,0.2,0.3,0.4,0.4,0.7c0-0.1,0-0.2,0.1-0.2
		c0.2,0,0.4-0.1,0.6-0.1c0.8,0.1,1.5-0.2,1.7-0.7c0.2,0,0.5,0.1,0.7,0.1c0.9,0.1,0.9-0.9,1.7-1c0,0,0.2,0.1,0.4,0.2
		c-0.2,0.2-0.4,0.4-0.6,0.6c0.2,0.1,0.5,0.1,0.7,0.2c0.1-0.3,0.1-0.5,0.1-0.7c0.1-0.2,0.2-0.5,0.3-0.5c0.7-0.1,1.2-0.4,1.7-1
		c0.4-0.5,0.9-0.9,1.4-1.3c0.5-0.4,1.1-0.8,1.6-1.3c0.3-0.2,0.5-0.6,0.8-0.8c0.6-0.5,1.3-1,1.9-1.6c0.2-0.2,0.2-0.5,0.4-0.7
		c0.5-0.4,1.2-0.7,1.6-1.2c0.3-0.4,1.1-0.5,0.9-1.2c0,0,0.1-0.1,0.1-0.1c0.4-0.3,0.9-0.6,1-1c0.2-1,1.1-1.4,1.6-2.2
		c0.2-0.3,0.5-0.6,0.7-0.9c0.3-0.5,0.6-1.1,0.9-1.7c0.1-0.3,0.1-0.8,0-1c-0.7-0.6-1.4-1-2.1-1.5C227.3,582.8,227,582.5,226.7,582.3z
		"/>
	<path d="M322.4,609.2c0.5-0.3,0-0.8,0.1-1.3c0.1-0.5-0.2-1-0.2-1.5c0-0.8,0-1.6,0-2.4c-0.1-0.7-0.3-1.4-0.3-2.1
		c0-0.4,0.1-0.8,0.1-1.1c0-1.2,0-2.5-0.1-3.7c0-1.6-0.1-3.3-0.1-4.9c0-0.7,0-1.4-0.2-2.1c-0.4-1.2-0.2-2.4,0-3.7
		c0.1-1,0-2.1-0.1-3.1c0-0.8-0.3-1.6-0.2-2.3c0.2-0.7,0.6-1.5,1.1-2c1.2-1.2,2.7-1.1,4.2-1c0.2,0,0.5,0.4,0.7,0.6
		c0.1,0.2,0.3,0.5,0.4,0.5c0.3,0,0.7-0.1,1-0.3c0.9-0.7,1.8-1.4,2.9-1.8c0.7-0.3,1.3-0.8,2-1.1c1.2-0.5,2.4-1,3.6-1.4
		c1-0.4,2.1-0.8,3.1-1.1c1.9-0.4,3.8-0.9,5.8-0.5c0.7,0.1,1.5,0.3,2.1,0.6c0.2,0.1,0.4,0,0.6,0.1c0.8,0.3,1.4,0.8,2,1.5
		c0.1,0.2,0.4,0.2,0.5,0.3c0.5,0.6,0.9,1.2,1.3,1.9c0.2,0.2,0.4,0.4,0.6,0.7c0.1,0.2,0.2,0.5,0.2,0.7c0.1,0.5-0.1,1,0.5,1.4
		c0.2,0.2,0.1,0.9,0.1,1.3c0,0.2-0.1,0.4,0,0.5c0.3,0.9,0.1,1.9,0.2,2.8c0,0.8-0.5,1.5-0.5,2.3c0,0.7-0.6,1.5-1,2.2
		c-0.2,0.5-0.5,1-0.7,1.4c-0.5,0.9-0.8,1.9-1.5,2.6c-0.8,0.8-1.3,1.9-2.2,2.8c-0.7,0.7-1.2,1.6-1.8,2.4c-0.7,0.9-1.5,1.7-2.3,2.6
		c-0.5,0.5-1,0.9-1.4,1.4c-0.8,1-1.9,1.8-2.8,2.7c-0.3,0.3-0.4,0.5,0.1,1c0.8,0.8,1.5,1.7,2.2,2.6c0.1,0.1,0.1,0.2,0.2,0.2
		c1.1,0.2,1.4,1.2,1.9,2c0.6,0.8,0.8,1.9,1.3,2.8c0.2,0.6,0.5,1.1,0.7,1.7c0.3,1,0.6,2,1,3c0.3,0.8,0.7,1.6,1.1,2.5
		c0.1,0.2,0.1,0.4,0.1,0.6c0,0.2,0,0.5,0.1,0.7c0.7,0.7,0.6,1.9,1.7,2.2c0.1,0,0.2,0.3,0.3,0.4c0.3,0.3,0.6,0.5,0.9,0.7
		c0.3,0.2,0.5,0.5,0.7,0.8c0.4,0.9,0.8,1.7,1.2,2.6c0.2,0.6-0.3,1.8-0.9,2c-0.5,0.2-1,0.5-1.5,0.7c-0.9,0.3-1.8-0.1-2.7-0.2
		c-0.5-0.1-1.1-0.3-1.6-0.5c-0.8-0.3-1.6-0.5-2-1.4c-0.2-0.5-0.7-0.9-1-1.2c-1.1-1.1-1.8-2.5-2.7-3.7c-0.2-0.2-0.1-0.6-0.2-0.9
		c-0.2-0.5-0.5-0.9-0.6-1.4c-0.2-0.8-0.9-1.4-1-2.3c0-0.5-0.4-1-0.6-1.5c-0.2-0.5-0.3-0.9-0.4-1.4c-0.1-0.4-0.2-0.8-0.4-1.2
		c-0.4-0.9-0.7-1.8-1.2-2.6c-0.4-0.7-1.1-1.3-1.6-1.9c-0.3-0.3-0.6-0.6-0.9-0.8c-0.2-0.2-0.6-0.3-0.9-0.2c-0.6,0.1-1.2,0.3-1.8,0.5
		c-0.2,0.1-0.5,0.4-0.4,0.5c0.3,0.7-0.2,1.5,0.3,2.2c0.2,0.2,0.1,0.7,0,1.1c0,0.5,0,0.9-0.1,1.4c-0.1,0.7-0.2,1.3-0.2,2
		c-0.1,0.6-0.1,1.2-0.2,1.8c-0.3,1.4-0.1,2.9,0.1,4.3c0,0.3,0,0.5,0,0.8c0,0.8,0.1,1.6,0,2.4c-0.2,1,0,1.9-0.1,2.9
		c0,0.2-0.1,0.5,0,0.7c0.3,0.9,0,1.7-0.5,2.4c-0.2,0.3-0.7,0.4-0.8,0.7c-0.3,0.5-0.6,0.1-1,0.1c-0.5,0-1,0.1-1.4,0.1
		c-0.4,0-0.9-0.3-1.3-0.3c-0.7,0-1.2-0.7-1.9-0.4c-0.1,0.1-0.5-0.2-0.6-0.4c-1.1-1.2-1-2.7-1.1-4.2c0-0.4,0-0.8,0-1.2
		c0-1.1-0.2-2.1-0.2-3.2c0-1,0.1-1.9,0.2-2.9c0.1-0.8,0.1-1.6,0.1-2.4c0-0.3,0-0.6,0.1-1c0.1-0.8,0.2-1.6,0.2-2.4c0-0.7,0-1.5,0-2.2
		c0-0.9-0.1-1.9-0.1-2.8C322.5,610.3,322.4,609.8,322.4,609.2z M346.1,582.1c0.1,0,0.1,0,0.2-0.1c-0.1-0.7-0.1-1.5-0.2-2.2
		c0-0.1-0.4-0.3-0.5-0.3c-0.7,0.1-1.4,0.3-2,0.4c-0.3,0.1-0.6,0.2-0.9,0.3c-0.4,0.1-0.7,0.1-1.1,0.3c-0.9,0.4-1.8,0.7-2.6,1.1
		c-0.8,0.4-1.6,0.7-2.4,1.2c-0.6,0.4-1.2,0.9-1.8,1.3c-0.6,0.4-1.2,0.7-1.7,1.2c-0.8,0.7-1.5,1.5-2.4,2.3c-0.7,0.6-1.1,1.3-1.1,2.2
		c0,1.1,0,2.2,0.1,3.3c0.1,1,0.2,2,0.3,3c0.1,0.8,0.2,1.7,0.2,2.5c0,1.2,0,2.5,0,3.7c0.1,0,0.1,0,0.2,0.1c0.1-0.2,0.3-0.4,0.5-0.7
		c0.1,0,0.3,0.1,0.3,0c0.6-0.4,1.2-0.8,1.6-1.4c0.4-0.7,1.2-0.8,1.6-1.4c0.3-0.4,0.7-0.7,1.2-1.1c0.2-0.2,0.6-0.4,0.8-0.7
		c1.1-1.1,2.1-2.2,3.2-3.3c0.3-0.3,0.5-0.6,0.7-0.9c0.7-0.9,1.3-1.9,2.1-2.8c1.1-1.2,2.2-2.4,2.8-3.9c0.5-1.3,0.8-2.6,1.3-4
		C346.3,582.4,346.2,582.3,346.1,582.1z"/>
	<path d="M409.5,517.4c-0.1,0-0.2,0.1-0.4,0.1c0-0.2,0-0.4,0-0.7c-0.1,0.1-0.2,0.2-0.3,0.3c-0.3-0.7-0.5-1.4-0.9-2.1
		c-0.3-0.6-0.8-1.2-1.2-1.8c-0.2-0.4-0.4-0.8-0.5-1.1c-0.3-0.7-0.6-1.5-1-2.2c0,0-0.3-1.2-0.3-1.2c0-0.1,0-0.2-0.1-0.2
		c-0.2-0.3-0.4-0.6-0.7-0.9c-0.2-0.2-0.4-0.3-0.6-0.5c-0.3-1.1-0.8-2.3,0.3-3.5c0,0.3,0,0.4,0,0.5c0.1,0.1,0.2,0.2,0.3,0.2
		c0.1,0,0.2-0.1,0.2-0.2c0.3-0.7,0.6-1,1.5-1c0.2,0,0.4-0.2,0.5-0.3c0.8,0.2,1.6,0.3,2.3,0.4c0.2,0,0.4,0.2,0.6,0.4
		c0.2,0.2,0.4,0.4,0.7,0.5c0.7,0.5,1.5,0.8,1.8,1.8c0.1,0.4,0.4,0.7,0.4,1.2c0,0,0,0.1,0,0.1c0.6,0.4,0.5,1.1,0.9,1.6
		c0.1,0.2,0.3,0.4,0.5,0.6c0.2,0.2,0.3,0.5,0.3,0.8c0.4,0.6,0.7,1.2,1.1,1.8c0.3,0.5,0.5,1,0.8,1.4c0.4,0.6,0.9,1.1,1.2,1.7
		c0.4,1,1.5,1.5,1.7,2.7c0,0.2,0.3,0.3,0.5,0.4c0.1,0.1,0.3,0.2,0.3,0.3c0.1,0.3,0.1,0.6,0.3,0.9c0.8,1.1,1.6,2.1,2.4,3.2
		c0,0,0.1,0.1,0.1,0.2c0.2,0.9,1,1.3,1.4,2c0.1,0,0.2,0,0.2,0c0.1-0.4,0.2-0.8,0.2-1.2c0-0.1,0-0.2,0-0.3c0.2-1.4,0.4-2.8,0.6-4.2
		c0.2-1.3,0.3-2.6,0.4-3.9c0.2-2.1,0.5-4.3,0.7-6.4c0.2-1.6,0.3-3.2,0.5-4.8c0.2-1.7,0.3-3.4,0.8-5.1c0.3-0.9,0.3-1.8,0.5-2.7
		c0.1-0.6,0.4-1.1,0.6-1.7c0.2-0.6,0.2-1.2,0.4-1.7c0.3-0.8,0.5-1.6,0.9-2.3c0.2-0.4,0.4-0.7,0.4-1.2c0-0.1,0.1-0.1,0.1-0.2
		c0.3-0.5,1.9-1,2.5-0.8c0.2,0,0.4,0,0.6,0c0.2,0,0.4,0,0.5,0.1c0.8,0.6,1.5,1.3,2.2,1.9c0.1,0.1,0.3,0.3,0.4,0.4
		c0.1,1.1,0.3,2.2,0.2,3.3c-0.1,0.9-0.6,1.7-0.8,2.6c-0.2,0.8-0.4,1.6-0.5,2.4c0,0.2-0.6,0.5,0,0.7c-0.1,0.1-0.2,0.2-0.2,0.3
		c-0.1,0.7-0.1,1.4-0.2,2.1c0,0.3,0,0.4,0,0.7c0.1,0.5-0.1,1.1-0.2,1.6c0,0.1,0,0.2-0.1,0.4c0,0.5-0.1,1-0.1,1.6c0,0.7,0,1.4,0,2.2
		c0,0.4-0.1,0.8-0.2,1.2c-0.1,0.6-0.1,1.3,0,2c0.1,0.6-0.1,1.3-0.2,2c-0.1,1-0.1,1.9-0.2,2.9c-0.1,1-0.2,1.9-0.3,2.9
		c-0.1,0.7,0,1.3,0,2c0,0.1,0,0.3,0,0.4c-0.1,0.7-0.2,1.4-0.3,2.1c-0.1,0.7,0,1.4-0.1,2.1c-0.1,0.7-0.3,1.5-0.5,2.2
		c-0.1,0.6-0.1,1.2-0.2,1.8c-0.1,0.8-0.3,1.6-0.4,2.3c-0.1,0.7-0.1,1.5-0.2,2.3c0,0.4-0.1,0.9-0.2,1.3c-0.3,1.4-0.6,2.8-0.9,4.2
		c-0.3,1.2-0.4,2.5-0.7,3.7c-0.4,1.7-0.9,3.4-1.2,5.1c-0.2,1-0.4,2.1-0.6,3.1c-0.1,0.8-0.3,1.5-0.4,2.3c-0.3,1.4-0.6,2.8-0.9,4.3
		c-0.1,0.6-0.2,1.2-0.4,1.8c-0.3,0.6-0.1,1.4-0.2,2.1c0,0.7-0.1,1.3-0.1,2c0,0.3,0,0.5,0,0.8c0,0.7-0.1,1.4-0.2,2.1
		c-0.1,1.2-0.1,2.3-0.1,3.5c0,1.2-0.2,2.4-0.1,3.6c0,0.6-0.2,1.1,0,1.8c0.2,0.4-0.1,1-0.1,1.5c-0.1,0.7-0.1,1.4-0.2,2.2
		c0,0.6,0,1.1,0.1,1.7c0.2,1.2-0.1,2.3-0.6,3.4c-0.3,0.6-1.8,1.3-2.6,1.2c-0.1,0-0.3,0-0.4,0c-1.1,0.3-2.2,0.2-3.1-0.3
		c-0.8-0.4-1.7-0.7-2.2-1.6c-0.2-0.3-0.5-0.4-0.7-0.7c-0.6-0.9,0.1-1.7,0-2.6c-0.1-1,0.2-2.1,0.3-3.1c0.1-0.9,0.1-1.8,0.2-2.6
		c0-0.6,0.1-1.2,0.1-1.8c0.1-1.2,0.2-2.4,0.2-3.6c0-0.3-0.1-0.7,0-1c0-1.2,0.1-2.3,0.2-3.5c0.1-0.8,0.3-1.6,0.4-2.4
		c0.2-1.3,0.3-2.6,0.5-4c0.2-1,0.4-2,0.6-3.1c0.4-2.1,0.7-4.2,1.1-6.2c0.4-1.9,0.8-3.8,1.2-5.7c0.2-0.8,0.3-1.6,0.5-2.4
		c0.2-1,0.4-1.9,0.7-2.9c0.1-0.4,0.2-0.7,0.2-1.1c0-0.9,0.6-1.7,0.1-2.6c-0.1-0.1-0.1-0.3-0.2-0.3c-0.4-0.4-0.9-0.7-1.3-1.1
		c-0.1-0.1-0.2-0.2-0.3-0.3c-0.2-0.3-0.4-0.7-0.7-1c-0.4-0.4-0.8-0.7-1-1.2c-0.1-0.2-0.2-0.4-0.4-0.6c-0.3-0.4-0.6-0.7-0.8-1.1
		c-0.7-1.1-1.4-2.2-2.1-3.3c-0.4-0.7-0.9-1.3-1.4-1.9c-0.7-1-1.4-2.1-2.1-3.1c-0.5-0.8-1.2-1.6-1.7-2.4
		C409.6,518.4,409.6,517.9,409.5,517.4z"/>
	<path d="M275.7,619.1c-0.4,0.4-0.9,0.8-1.4,1.2c-0.7,0.7-1.5,0.9-2.5,0.6c-0.4-0.1-0.8,0-1.1-0.1c-0.5-0.1-1-0.3-1.3-0.6
		c-0.3-0.2-0.4-0.7-0.7-1c-0.4-0.5-0.9-0.8-1.3-1.3c-0.2-0.3-0.4-0.7-0.4-1c-0.2-1.6-0.3-3.2-0.4-4.8c0-0.6,0-1.3,0-1.9
		c0.1-0.8-0.1-1.6-0.2-2.5c0-0.4,0-0.8,0.1-1.1c0-0.1,0.1-0.2,0.1-0.2c0-0.8-0.1-1.7-0.1-2.5c0-1,0.1-2.1,0.1-3.1
		c0-0.5-0.1-1-0.3-1.5c-0.1-0.5-0.4-1-0.6-1.4c-0.3-0.8,0.1-1.4,0.3-2.1c0.2-0.6,0.2-1.2,0.1-1.8c-0.2-0.7-0.3-1.4-0.5-2.2
		c-0.3-1.3-0.7-2.7-1-4c-0.1-0.3,0-0.5,0-1c-0.2-1.2-0.7-2.5-0.6-4c0.1-1.4,0-2.9,0-4.4c-0.6-0.2,0-0.8,0-1.3c0-1.1,0.8-1.7,1.6-2.3
		c0.3-0.2,0.8-0.3,1.2-0.3c0.2,0,0.4,0.3,0.6,0.4c0.4-0.4,1-1,1.5-1.5c0.3-0.3,0.6-0.5,0.9-0.7c0.8-0.5,1.6-0.9,2.4-1.4
		c0.3-0.2,0.6-0.4,0.9-0.5c0.6-0.3,1.3-0.7,1.9-0.9c1.1-0.3,2.2-0.8,3.3-0.8c0.9,0,1.9,0.5,2.7,0.9c0.8,0.4,1.6,0.8,2.3,1.4
		c0.6,0.5,1.2,1,1.7,1.6c0.8,0.9,1.2,2.1,2.1,2.9c0.1,0.1,0.1,0.2,0.2,0.3c0.4,1.3,0.9,2.7,1.2,4c0.3,1.2,0.3,2.4-0.8,3.4
		c-0.2,0.2-0.3,0.7-0.5,0.9c-0.7,0.8-1.4,1.5-2.1,2.3c-0.4,0.5-0.7,1.1-1.1,1.6c-0.3,0.5-0.7,1-1.1,1.5c0.3,0.1,0.6,0,0.7,0.1
		c0.9,0.6,1.8,1.3,2.6,2c0.5,0.4,1,0.5,1.4,1.2c0.3,0.6,1.2,0.9,1.9,1.4c0.1,0.1,0.2,0.2,0.3,0.3c0.5,0.7,1.1,1.4,1.6,2.1
		c0.2,0.4,0.4,0.8,0.6,1.3c0.4,0.8,0.8,1.8,0.9,2.8c0.2,1.6,0.2,3.2-0.2,4.8c-0.3,1-0.4,2-0.7,3.1c-0.1,0.3-0.3,0.5-0.5,0.8
		c-0.5,1-1,2-1.4,3c-0.2,0.4-0.7,0.8-0.4,1.4c0,0.1-0.3,0.2-0.4,0.4c-0.4,0.6-0.8,1.3-1.2,1.9c-0.1,0.1-0.2,0.2-0.3,0.3
		c-0.5,0.3-1.2,0.5-1.5,0.9c-0.3,0.3-0.5,0.1-0.7,0.2c-0.7,0.3-1.5,0.5-2.3,0.7c-0.1,0-0.1,0.1-0.2,0.1c-1-0.3-1.7,0.5-2.6,0.6
		c-0.7,0.1-1.4,0.1-2.1,0.2c-0.1,0-0.2,0.1-0.4,0.1C277.2,619.6,276.6,619.6,275.7,619.1z M275,612c0.1,0,0.2,0,0.2,0
		c0.3-0.5,0.7-0.5,1.2-0.3c0.2,0.1,0.5,0.1,0.7,0c1.2-0.3,2.5-0.7,3.7-1.1c0.4-0.1,0.9-0.4,1.2-0.7c0.6-0.7,1.2-1.4,1.7-2.2
		c1.3-1.8,1.3-3.8,1.2-5.8c0-0.5,0-1.2-0.2-1.6c-0.6-0.8-1.2-1.7-2-2.3c-0.9-0.7-1.9-1.1-2.9-1.7c-0.9-0.6-1.8-0.5-2.8-0.1
		c-1,0.4-1.7,1.3-2.5,2c-0.2,0.1-0.1,0.5-0.1,0.8c0,0.6,0.2,1.2,0.1,1.8c-0.2,1.6-0.5,3.1-0.7,4.6c-0.3,1.6-0.3,3.1,0.6,4.5
		c0.2,0.3,0.1,0.6,0.2,0.9C274.7,611.2,274.9,611.6,275,612z M279.5,576.5c-0.4,0.2-0.8,0.2-1.2,0.4c-0.7,0.3-1.3,0.6-1.9,1
		c-0.8,0.5-1.6,1-2.4,1.5c-0.7,0.5-1.3,1.2-2,1.7c-0.3,0.3-0.5,0.5-0.5,0.9c-0.1,1.1,0.5,2.2,0.2,3.3c0,0.1,0,0.1,0.1,0.2
		c0.1,0.4,0.4,0.7,0.2,1.2c0,0.1,0.1,0.2,0.2,0.2c0.9-0.5,1.8-1,2.6-1.5c0.7-0.4,1.4-0.8,2.1-1.2c0.4-0.3,0.8-0.7,1.1-1
		c0.9-0.8,1.7-1.7,1.7-3.1c0-0.2,0.2-0.4,0.3-0.5c0.7-0.8,0.7-1.4,0.1-2.3C279.9,577.2,279.7,576.9,279.5,576.5z"/>
	<path d="M426.8,601.5c-0.1,0-0.2,0.1-0.2,0.1c0.3,0.3,0.6,0.7,1,1c0.1,0.1,0.3,0,0.5,0c0.6,0.2,1.2,0.5,1.7,0.8
		c1.6,0.8,2.2,0.6,3.1-0.9c0.4-0.7,1-1.3,1.5-1.9c0.4-0.6,1-1.1,1.3-1.7c0.3-0.7,0.5-1.5,0.7-2.2c0.2-0.8,0.3-1.5,0.5-2.3
		c0.1-0.3,0.2-0.6,0.2-0.8c0.1-0.6,0.3-1.3,0.2-1.9c-0.1-0.8,0.1-1.5,0.3-2.2c0-0.1,0.1-0.1,0.1-0.2c-0.2-1,0.1-1.9,0.1-2.9
		c0-1.3-0.1-2.6-0.1-3.8c0-0.9,0.1-1.7,0.1-2.6c0-0.7-0.1-1.4-0.2-2.1c0-0.1-0.1-0.1-0.1-0.2c0.4-1.1-0.3-2-0.4-3.1
		c-0.1-1.2-0.5-2.3-0.8-3.4c-0.5-1.5-0.9-3.1-1.9-4.3c-0.2-0.3-0.1-0.6-0.2-1c-0.5-1-1.1-1.9-1-3.1c0-0.9,0.1-1.7,0.7-2.4
		c0.4-0.5,0.8-0.9,1.3-1.2c0.3-0.2,0.6-0.4,1.1-0.1c0.3,0.2,1,0,1.5-0.1c0.5-0.1,1,0,1.3,0.4c0,0.1,0.1,0.1,0.2,0.1
		c0.1,0,0.3,0,0.3,0c0.4,0.8,1.5,0.9,1.8,1.8c0.2,0.8,0.4,1.6,0.7,2.3c0.2,0.5,0.5,0.9,0.8,1.3c0.2,0.3,0.3,0.6,0.5,0.9
		c0.1,0.1,0.1,0.2,0.2,0.4c0.5,1.6,1.4,3,1.5,4.7c0.1,1.1,0.6,2.2,0.8,3.3c0.1,0.7,0,1.5,0.1,2.2c0.1,1,0.3,1.9,0.4,2.9
		c0.1,0.5,0.1,1,0.1,1.6c0,0.7,0,1.4,0,2c0,0.8,0,1.6,0,2.3c0,0.6-0.1,1.3-0.1,1.9c0,0.3,0,0.5,0,0.8c0,0.9,0,1.8-0.1,2.7
		c0,0.7-0.2,1.4-0.3,2.1c-0.1,1-0.3,1.9-0.5,2.9c-0.1,0.9-0.1,1.9-0.3,2.8c-0.2,0.8-0.5,1.6-0.8,2.4c-0.4,1.2-1.3,2.1-2.1,3.1
		c-1,1.2-1.8,2.5-2.7,3.8c-0.7,0.9-1.5,1.8-2.3,2.6c-0.7,0.7-1.7,0.8-2.7,0.8c-0.3,0-0.7,0.1-1,0.1c-0.7,0.1-1.5,0.2-2.2,0.3
		c-0.2,0-0.3,0-0.5,0c-0.2,0-0.5-0.1-0.7,0c-0.2,0-0.5-0.1-0.7-0.1c-0.1,0-0.2,0-0.2,0c-0.7-0.3-1.4-0.6-2-0.9
		c-0.3-0.1-0.7-0.2-1-0.3c-1.1-0.4-2-1-2.9-1.7c-1.2-0.9-2.4-1.9-3.6-2.8c-0.1-0.1-0.2-0.1-0.3-0.1c0,0-0.1,0.2-0.1,0.3
		c0.2,1.6-0.3,3.1-0.5,4.7c-0.1,0.7-0.5,1-0.9,1.5c-0.5,0.6-1.1,0.9-1.7,1c-0.6,0.1-1.2,0.6-1.9,0.2c0,0-0.1,0-0.2,0
		c-0.9,0.4-1.4-0.3-1.9-0.7c-0.8-0.6-1.3-1.4-1.1-2.5c0.2-1.2,0.4-2.5,0.5-3.8c0.1-0.7-0.1-1.3-0.2-2c0-0.2,0-0.5,0-0.7
		c0-1-0.1-1.9-0.1-2.9c0-0.9,0-1.7,0.1-2.6c0.1-0.7,0.2-1.4,0.3-2.2c0.1-0.9,0.1-1.8,0.3-2.7c0.2-1.2,0.6-2.4,1.8-3
		c0.2-0.1,0.3-0.1,0.5-0.1c0.6-0.1,1.1-0.2,1.7-0.3c0.8-0.2,1.5-0.2,2.1,0.4c0.5,0.4,1,0.8,1.4,1.1c0.3,0.5,0.5,0.9,0.6,1.2
		c0.5,0.9,0.9,1.7,1.4,2.6c0.5,0.8,0.8,1.7,1.4,2.3c0.3,0.4,0.5,0.6,0.7,1.1c0.1,0.3,0.5,0.5,0.8,0.8c0.1,0.1,0.3,0.2,0.3,0.4
		c0.3,0.8,0.9,1.3,1.5,1.9C426.5,601.4,426.7,601.4,426.8,601.5z"/>
	<path d="M385.5,545.4c-0.3-0.7-0.7-0.3-1-0.1c-0.4-0.2-0.7-0.5-1.2-0.4c-0.4,0.1-0.8-0.3-1.2-0.5c-0.2-0.1-0.6-0.1-0.7-0.2
		c-0.3-0.4-0.8-0.8-0.9-1.2c-0.2-1.2-0.3-2.4-0.4-3.6c-0.1-1.8-0.1-3.6-0.2-5.4c-0.1-0.9-0.3-1.8-0.4-2.8c-0.1-0.4,0-0.7-0.1-1.1
		c-0.2-1.4-0.3-2.8-0.5-4.1c-0.3-1.7-0.7-3.5-1-5.2c-0.1-0.5-0.4-1-0.5-1.5c-0.1-0.5-0.1-1-0.1-1.5c0-0.3,0-0.6-0.2-0.8
		c-0.4-0.5-0.1-0.9,0.2-1.3c0.1-0.1,0.2-0.2,0.2-0.4c-0.2,0.2-0.4,0.3-0.6,0.6c-0.5-0.5-1-1-1.2-1.7c-0.3-1.4,0.2-2.6,1.3-3.2
		c0.5-0.3,1.1-0.3,1.7-0.5c0.3-0.1,0.5-0.3,0.8-0.3c0.9,0.2,1.8,0.4,2.7,0.6c0.1,0,0.3,0,0.4,0c0.7-0.4,1.3-0.8,2-1.2
		c0.8-0.4,1.6-0.6,2.4-0.9c0.6-0.2,1.3-0.5,1.9-0.6c0.8-0.1,1.7-0.3,2.4,0c0.5,0.2,0.9,0.1,1.4,0.2c0.6,0,1.3,0.4,1.9,0.6
		c0.6,0.2,1.1,0.5,1.6,0.7c0.2,0.1,0.4,0.2,0.5,0.4c0.2,0.5,0.6,0.7,1.1,0.9c0.1,0,0.2,0.1,0.3,0.2c0.7,0.8,1.6,1.5,2.3,2.3
		c0.3,0.4,0.4,1,0.6,1.4c0.1,0.3,0.4,0.6,0.5,0.9c0.5,1,1,2.1,1.4,3.1c0.1,0.3,0.1,0.5,0.2,0.7c0.2,0.3,0.4,0.5,0.5,0.8
		c0.3,1,0.5,1.9,0.7,2.9c0.1,0.3,0.3,0.6,0,0.9c0.6,0.5,0.2,1.1,0.3,1.6c0.1,0.9,0.1,1.7,0.1,2.6c0.1,1.3,0.2,2.6,0.2,4
		c0,0.9,0,1.8,0.1,2.7c0.1,0.7,0.3,1.4,0.4,2.1c0,0.8,0.6,1.5,0.2,2.4c-0.1,0.1,0.2,0.4,0.3,0.6c0.2,0.5,0.4,1.1,0.6,1.6
		c0.4,1.1,1.1,2,1.9,2.7c0.4,0.4,1.1,0.4,1.4,1c0.2,0.3,0.3,0.6,0.5,1c0.1,0,0.1,0,0.2,0c-0.2,0.9-0.4,1.8-0.7,2.7
		c-0.3,1.2-1.1,1.5-2.2,1.4c-0.6,0-1.2-0.2-1.8-0.2c-0.5,0-0.8,0.1-1.1-0.4c0,0-0.1-0.1-0.2-0.1c-0.6,0-1.1-0.4-1.6-0.6
		c-0.9-0.3-1.2-0.8-1.6-1.5c-0.2-0.3-0.6-0.5-0.8-0.8c-0.9-1.3-1.9-2.6-2.6-4c-0.4-0.9-0.6-2-0.7-3c-0.3-2.7-0.6-5.5-0.9-8.3
		c-0.1-1.1-0.1-2.2-0.2-3.3c-0.1-1.1-0.2-2.1-0.3-3.1c-0.1-0.8-0.1-1.6-0.2-2.4c-0.2-0.9-0.2-2-0.7-2.8c-0.4-0.8-0.3-1.8-1.1-2.4
		c-0.2-0.1-0.2-0.5-0.2-0.8c-0.1-1-0.7-1.5-1.5-2.1c-0.5-0.4-0.8-0.4-1.4-0.3c-0.5,0.1-1,0.1-1.4,0.5c-0.6,0.5-1.4,0.8-2.1,1.3
		c-0.7,0.5-1.4,1.1-1.5,2.1c-0.1,0.7,0,1.4,0.3,2c0.8,1.8,0.7,3.6,0.7,5.4c0,1.8,0.1,3.6,0.2,5.4c0.1,2.4,0.3,4.8,0.5,7.3
		c0,0.6-0.1,1.1-0.1,1.7c0,0.8,0.1,1.7,0.2,2.5c0.2,1.1,0.2,1.4-0.9,1.9C386.4,545.1,386,545.2,385.5,545.4z M379.3,517.7
		c0.4,0,1.1-0.7,1.1-1.2c-0.1-0.1-0.3-0.2-0.3-0.3c0-0.2,0.1-0.4,0.2-0.7c0,0-0.1,0-0.1-0.1C379.9,516.3,379.6,517,379.3,517.7z"/>
	<path d="M349.1,572.3c-0.2-0.6-0.4-1.3-0.7-1.9c-0.4-0.7-0.1-1.3,0.1-2c0.4-1.3,1.6-1.5,2.7-1.7c0.6-0.1,1.2,0.1,1.8,0.1
		c0.3,0,0.7-0.1,1-0.1c1.1-0.1,2.3-0.2,3.4-0.4c1.6-0.2,3.1-0.3,4.7-0.5c1.1-0.1,2.3-0.1,3.3-0.5c1.2-0.5,2.4-0.2,3.7-0.3
		c1.1-0.1,2.2-0.3,3.4-0.4c0.5-0.1,1-0.1,1.4-0.1c1.3-0.1,2.7-0.1,4-0.2c0.4,0,0.9-0.1,1.1,0.5c0,0.1,0.1,0.1,0.2,0.1
		c1,0,1.5,0.6,1.8,1.4c0.1,0.4,0.3,0.8,0.5,1.2c0,0.1,0.2,0.1,0.4,0.2c-0.2,0.2-0.3,0.3-0.4,0.5c1,1,0.2,2.4-0.8,2.9
		c-0.6,0.3-1.2,0.8-1.9,0.8c-1.3,0-2.7,0-4,0c-0.3,0-0.5,0-0.8,0.1c-0.9,0.4-1.9,0.1-2.8,0.2c0,0-0.1,0-0.1,0
		c-0.8,0.6-1.7,0.2-2.5,0.5c-0.7,0.2-1,0.8-0.6,1.4c0.1,0.2,0.2,0.3,0.2,0.5c-0.1,0.8-0.3,1.7-0.4,2.5c-0.1,1.3-0.1,2.6-0.1,3.9
		c0,1.4,0.1,2.8,0.1,4.2c0,0.9-0.2,1.9-0.2,2.8c-0.1,1.1-0.2,2.2-0.2,3.3c0,1.2-0.1,2.3-0.1,3.5c0,0.9,0,1.9,0,2.8
		c0,1.5-0.1,3-0.1,4.4c0,1.2,0.1,2.4,0.1,3.5c0,0.3,0,0.7,0,1c0,0.9,0,1.7,0.1,2.6c0.1,0.9,0.3,1.9,0.3,2.8c0,0.9,0.2,1.8-0.4,2.6
		c0,0.1-0.1,0.2-0.1,0.2c0.1,0.8-0.1,1.6-0.2,2.3c-0.1,0.9-0.6,1.4-1.4,1.7c-0.9,0.3-1.8,0.6-2.7,0.3c-1-0.3-2-0.7-3-1
		c-0.1,0-0.2-0.3-0.2-0.4c-0.2-0.3,0-1-0.7-0.8c0,0-0.2-0.1-0.2-0.2c-0.2-0.6-0.5-1.1-0.4-1.8c0.3-1.6,0.4-3.2,0.2-4.8
		c-0.1-1.2,0-2.3,0-3.5c0-0.5-0.1-0.9-0.1-1.4c0-1.9,0.1-3.8,0.1-5.7c0-1.2,0.2-2.4,0.2-3.6c0-1.1-0.1-2.3,0.1-3.3
		c0.3-1.6,0.3-3.1,0.3-4.6c0-0.6,0.1-1.1,0.1-1.7c-0.1-1.1,0.1-2.2,0.1-3.2c0-0.8,0.2-1.7,0.2-2.5c0-0.9-0.1-1.8,0-2.7
		c0-0.9,0.2-1.9,0.3-2.8c0.1-1.1-0.2-1.4-1.3-1.2c-0.8,0.1-1.6,0-2.4,0c0,0-0.1-0.1-0.1,0c-0.8,0.5-1.7-0.1-2.6,0.1
		c-0.3,0.1-0.6-0.3-1-0.4c-0.3-0.1-0.5-0.3-0.8-0.4c-0.6-0.3-1.3-0.5-1.9-0.8C349.6,572.6,349.3,572.4,349.1,572.3z"/>
	<path d="M316.3,607.5c0.3,0.6,0.6,1.1,0.9,1.7c0,0.1-0.1,0.2-0.1,0.3c0,0.4-0.1,0.7,0,1.1c0.2,1.1-0.8,2.8-1.8,3.1
		c-0.2,0.1-0.4,0.2-0.6,0.3c-0.7,0.3-1.5,0.6-2.2,0.9c-1.1,0.5-2.4,0.8-3.6,1c-0.4,0.1-0.8,0.4-1.3,0.5c-0.7,0.2-1.4,0.2-2.1,0.3
		c-0.2,0-0.4,0-0.5,0.1c-0.6,0.5-1.3,0.2-1.9,0.1c-1.1-0.1-2.3-0.3-3.2-0.9c-0.8-0.5-1.8-0.9-2.2-2.1c-0.2-0.7-0.8-1.3-1.1-2
		c-0.2-0.5-0.3-1.1-0.4-1.6c-0.3-0.9-0.2-1.9-0.1-2.9c0.1-1.1,0.3-2.3,0.4-3.4c0.1-0.8,0.1-1.6,0.2-2.4c0.1-0.7,0.2-1.5,0.3-2.2
		c0.1-0.7,0.2-1.4,0.2-2c0-1,0.1-1.9,0-2.9c-0.1-1-0.2-2-0.3-3.1c-0.2-1.5-0.4-3.1-0.7-4.6c-0.1-0.6-0.4-1.2-0.5-1.8
		c-0.1-0.3,0-0.7-0.1-1c-0.3-0.7-0.6-1.5-0.9-2.2c-0.5-1.1-0.1-2,0.3-2.9c0.2-0.5,1-0.6,1.5-0.9c0.1,0,0.2-0.1,0.2-0.1
		c0.1-0.5,0.4-0.2,0.6-0.2c0.3,0,0.6,0,1-0.1c0.1,0.4,0.6,0.3,1,0.2c0.8-0.1,1.5-0.4,2.2-0.5c0.8-0.2,1.6-0.2,2.4-0.4
		c0.4-0.1,0.9-0.3,1.3-0.4c0.9-0.3,1.9-0.6,2.8-0.8c0.2,0,0.3,0,0.5,0.1c0.9,0.2,1.6,0.6,2.4,1.2c1.1,0.8,1.7,1.8,1.8,3.1
		c0.1,0.8,0,1.7-0.2,2.4c-0.1,0.3-0.8,0.5-1.2,0.6c-0.7,0.2-1.4,0.2-2.1,0.3c-1,0.1-1.9,0.6-2.6,1.2c-0.1,0.1-0.3,0.2-0.5,0.2
		c-0.6,0.1-1.2,0.2-1.7,0.3c-0.2,0-0.4,0.3-0.4,0.5c0,0.5,0.1,0.9,0.1,1.4c0,0.4,0.1,0.7,0.1,1.1c0,0.9,0.3,1.2,1.1,1.3
		c1.6,0.1,3.2,0.4,4.7,0.5c1.7,0.1,3.5,0.1,5.2,0c0.7,0,1.1,0.2,1.5,0.7c0.1,0.1,0.3,0.4,0.3,0.3c0.6-0.1,0.7,0.1,0.6,0.6
		c0,0.2,0,0.4,0.1,0.5c0.8,1.2,0.6,2.3,0.1,3.5c-0.1,0.2-0.4,0.3-0.7,0.4c-0.6,0.4-1.1,0.8-1.7,1.1c-0.2,0.1-0.5-0.1-0.7-0.1
		c-1.2,0.3-2.3,0.3-3.5,0.3c-1.1,0-2.2,0.3-3.3,0.4c-0.6,0.1-1.1,0.1-1.7,0.1c-0.8,0-0.8,0.1-0.8,0.9c0,0.9-0.2,1.8-0.3,2.7
		c-0.1,1-0.1,2-0.2,3c0,0.5-0.2,0.9-0.2,1.4c-0.1,0.8,0.5,1.2,1.3,1c0.1,0,0.3,0.1,0.4,0c0.1,0,0.2-0.2,0.3-0.2c0.2,0,0.4,0.1,0.6,0
		c0.4-0.1,0.9-0.2,1.3-0.4c0.9-0.2,1.9-0.5,2.8-0.7c0.2,0,0.5,0,0.7,0c0.2,0,0.3,0.1,0.5,0.1c0.9-0.2,1.7,0,2.5,0.4
		c0.2,0.1,0.3,0.3,0.4,0.5C315.9,607.3,316,607.6,316.3,607.5z"/>
	<path d="M373.4,602.3c0-0.8,0.5-1.6,1.4-2.1c-0.1-0.1-0.3-0.1-0.4-0.2c0.2-0.1,0.4-0.2,0.7-0.4c0.5,0.7,1.2,1.3,1.7,2.1
		c0.3,0.5,0.4,1.2,0.5,1.8c0.2,0.6,0.4,1.2,0.6,1.8c0.1,0.4,0.3,0.8,0.4,1.1c0.1,0.4,0.4,0.4,0.7,0.3c1.1-0.6,1.9-1.5,2.4-2.6
		c0.2-0.4,0.2-0.9,0.1-1.4c0-0.2-0.3-0.3-0.4-0.5c-0.8-1.3-1.6-2.5-2.7-3.6c-0.7-0.7-1.1-1.6-1.7-2.4c-0.3-0.5-0.7-1-1-1.5
		c-0.1-0.1-0.1-0.2-0.1-0.3c-0.3-0.9-0.7-1.7-1-2.6c-0.2-0.7-0.3-1.5-0.5-2.3c-0.1-0.3-0.1-0.6-0.2-1c-0.4-1.6-0.2-3.2,0.1-4.7
		c0.2-1.1,0.1-2.2,0.7-3.2c0.5-0.8,0.6-1.8,1.1-2.6c0.5-0.8,1-1.9,2.3-2c0.7,0,1.3-0.5,2-0.5c1,0,2.1-0.2,3.1,0.4
		c0.9,0.5,1.9,0.9,2.7,1.5c0.5,0.4,1,0.9,0.8,1.7c-0.1,0.5-0.2,1.1-0.2,1.7c0,0.6-0.5,0.8-0.9,0.9c-0.6,0.2-1.2,0.4-1.8,0.5
		c-1,0.3-1.3,1.1-1.6,1.9c-0.4,1.1-0.5,2.3-0.5,3.5c0,0.6,0.2,1.2,0.3,1.8c0.2,1.3,0.7,2.5,1.4,3.6c0.6,0.9,1.2,1.9,1.9,2.7
		c1.1,1.2,2,2.5,3,3.8c0.4,0.6,0.7,1.3,0.9,2.1c0.1,0.4,0.1,0.9,0.2,1.4c0.1,0.3,0.3,0.5,0.3,0.7c0,1.3,0,2.6-0.6,3.8
		c-0.3,0.6-0.4,1.3-0.8,1.9c-0.5,0.7-1.1,1.5-1.9,2c-0.6,0.4-1.1,1-1.8,1.3c-1,0.4-1.9,1-3,0.8c-0.3-0.1-0.6,0.1-0.9,0.2
		c-0.7,0.2-1.4,0.1-2.1-0.2c-0.7-0.3-1.5-0.3-2.3-0.6c-0.7-0.2-1.4-0.5-2.1-0.8c-0.4-0.2-0.8-0.3-1.1-0.5c-0.7-0.6-0.8-1.5-1.2-2.2
		c-0.5-1-0.5-2.1-0.4-3.1c0.2-1.3,0.8-2.6,1.3-3.9C372.9,602.5,373.1,602.5,373.4,602.3z"/>
	<path d="M403.1,605.3c-0.2,0-0.3,0.1-0.5,0.1c-0.7,0.1-1.4,0.3-2,0.4c-0.2,0-0.4-0.1-0.6-0.2c-1-0.4-2-0.7-3-1.1
		c-1.1-0.4-2-1.1-2.7-2c-0.3-0.4-0.6-0.7-0.9-1.1c0,0-0.2-0.1-0.2-0.1c0-0.9-0.8-1.6-0.8-2.5c0-0.6-0.4-1.2-0.5-1.9
		c-0.2-1-0.2-2.1-0.4-3.2c-0.1-0.6-0.2-1.3-0.2-1.9c0-0.6,0-1.2,0-1.8c0-0.4,0-0.7,0-1.1c0.1-0.4,0.2-0.8,0.3-1.1
		c0.5-1.8,0.8-3.6,1.8-5.2c0.5-0.8,0.8-1.8,1.4-2.5c0.8-1,1.8-1.9,2.8-2.8c0.1-0.1,0.4,0,0.6-0.1c0.6-0.1,1.2-0.2,1.8-0.2
		c0.3,0,0.6,0.1,1,0.2c0.3,0,0.6,0,1,0c0.2,0,0.4,0.1,0.6,0.2c0.3,0.2,0.5,0.4,0.8,0.6c0.1,0,0.2,0,0.2,0.1c0.3,0.6,0.7,1.2,0.7,1.8
		c0,0.6,0.2,1.1,0.4,1.6c0,0.1,0.1,0.2,0.2,0.2c1,0.1,1.4,1,2.1,1.5c0.5,0.4,0.8,1,1.2,1.4c0.2,0.2,0.3,0.5,0.5,0.7
		c0.6,1.1,1.2,2.1,1.3,3.4c0.2,1.4,0.4,2.8,0.4,4.3c0,1.1-0.1,2.2-0.3,3.2c-0.5,1.8-0.9,3.6-2,5.1c-0.6,0.8-1.1,1.6-1.7,2.3
		c-0.2,0.3-0.6,0.5-0.9,0.6c-0.7,0.4-1.1,1.1-2,1.2C403.3,605.4,403.2,605.4,403.1,605.3C403.1,605.4,403.1,605.4,403.1,605.3z
		 M400.1,598.5c0.3-0.1,0.6-0.1,0.7-0.3c0.4-0.5,0.8-1.1,1.1-1.7c0.4-0.7,0.6-1.4,1-2c0.5-0.8,0.6-1.6,0.3-2.5
		c-0.4-1.1-0.8-2.2-1.1-3.4c-0.2-1-0.9-1.5-1.6-2.1c-0.3-0.3-0.6-0.2-0.7,0.2c-0.2,0.7-0.3,1.3-0.5,2c-0.2,1-0.3,2-0.6,3
		c-0.3,0.9-0.4,1.8,0,2.7c0.3,0.5,0.4,1.1,0.6,1.6C399.6,596.8,399.8,597.6,400.1,598.5z"/>
	<path d="M239.7,591.7c0-0.3-0.1-0.6,0-0.9c0.1-0.6,0.2-1.2,0.4-1.8c0-0.1,0.2-0.2,0.1-0.2c-0.3-1,0.6-1.6,0.9-2.3
		c0.2-0.5,0.5-1,0.8-1.4c0.8-0.9,1.7-1.8,2.6-2.7c0.2-0.2,0.4-0.3,0.6-0.4c0.5-0.3,1.1-0.5,1.6-0.9c0.7-0.6,1.5-0.5,2.3-0.7
		c0.7-0.2,1.4-0.4,2.1-0.5c0.5-0.1,1,0.1,1.5,0.1c0,0,0.1,0.1,0.1,0.1c1-0.1,1.8,0.3,2.4,1c0.2,0.2,0.4,0.4,0.6,0.6
		c0.2,0.3,0.5,0.5,0.7,0.8c0.1,0.1,0.2,0.2,0.3,0.3c-0.1,0.1-0.2,0.1-0.4,0.2c0.7,0.3,0.4,0.8,0.3,1.3c0.1,0,0.1-0.1,0.2-0.1
		c0.3,0.4,0.5,0.7,0.8,1.1c0.3,0.3,0.7,0.6,1,1c0.2,0.2,0.3,0.4,0.5,0.5c0.2,0.2,0.4,0.4,0.6,0.6c0.3,0.4,0.6,0.8,0.9,1.2
		c0.2,0.3,0.1,0.7,0.6,0.8c0.1,0,0.1,0.2,0.2,0.3c0.1,0.6,0.1,1.2,0.2,1.8c0.1,0.5-0.2,1.1,0.4,1.5c0,0,0,0.2,0,0.3
		c-0.5,1.2-1.1,2.4-1.6,3.6c-0.3,0.7-0.5,1.5-0.8,2.3c-0.1,0.3-0.3,0.5-0.4,0.8c-0.3,0.7-0.4,1.4-1,1.9c-0.4,0.3-0.8,0.6-1.3,1
		c-0.4,0.3-0.8,0.6-1.4,0.7c-0.5,0-1,0.5-1.6,0.5c-0.8,0.1-1.6,0.5-2.4,0.2c0,0-0.1,0-0.1,0c-1,0.3-1.6-0.3-2.3-0.7
		c-1.5-0.8-3-1.4-4.5-2.2c-0.7-0.4-1.3-1-2-1.4c-1-0.7-1.1-1.8-1.5-2.7c-0.2-0.4-0.4-0.8-0.6-1.3c-0.2-0.5-0.2-0.9-0.2-1.4
		C240.1,593.3,239.8,592.5,239.7,591.7C239.7,591.7,239.7,591.7,239.7,591.7z M250,586.3c-0.3,0.2-0.7,0.4-0.9,0.7
		c-0.4,0.5-0.7,1.2-1.2,1.6c-0.8,0.6-1.1,1.5-1.4,2.3c-0.2,0.4-0.2,1-0.1,1.5c0,0.5,0.1,1,0.3,1.5c0.2,0.9,0.3,1.8,1.5,2
		c0,0,0.1,0,0.1,0c0.9,0.6,1.9,0.8,2.9,0.7c0.3,0,0.7-0.2,0.9-0.5c0.4-0.5,0.7-1.1,0.9-1.7c0.4-1,0.8-2,1.1-3
		c0.1-0.3-0.1-0.8-0.2-1.1c-0.1-0.2-0.3-0.3-0.5-0.4c-0.6-0.7-1.2-1.4-1.8-2.1C251.1,587.3,250.5,586.8,250,586.3z"/>
	<path d="M302.2,517.5c0.1,0.2,0.2,0.5,0.3,0.7c0.4-0.1,0.2-1,0.8-0.9c-0.1,0.4-0.1,0.8-0.2,1.3c0,0-0.3,0-0.7,0.1
		c0.3,0.1,0.5,0.1,0.6,0.2c0.1,0.1,0.3,0.2,0.4,0.3c0.2-0.2,0.4-0.5,0.6-0.7c0.1-0.1,0.3-0.2,0.4-0.2c0.9,0.1,1.4-0.3,1.3-1.3
		c0-0.1,0-0.1,0-0.2c-0.4-0.5-0.4-0.5,0.1-0.8c0.1-0.1,0.3-0.2,0.4-0.3c0.4-0.6,1.1-0.7,1.8-0.9c0.2-0.1,0.5,0.1,0.7,0.3
		c0.1,0-0.1,0.4-0.2,0.6c-0.3,0.5-0.2,0.8,0.3,0.9c-0.2-0.9,0.1-1.3,0.7-1.1c0,0.3,0,0.6,0,0.9c0.1,0,0.1,0,0.2,0
		c0.1-0.1,0.1-0.2,0.1-0.2c0.3,0.3,0.5,0.6,0.8,0.9c0.1,0,0.1-0.1,0.2-0.1c-0.1,0.9-0.3,1.8-0.3,2.8c0,0.6,0.1,1.2,0.1,1.8
		c0,0.2-0.1,0.4-0.1,0.6c0,0.5,0,1.1,0,1.6c0.1,1.5,0.2,3,0.3,4.5c0,0.3-0.2,0.7-0.1,1c0.1,0.8,0.3,1.5,0.3,2.3
		c0.1,0.9,0.3,1.8,0,2.6c-0.2,0.6,0.2,0.8,0.2,1.2c-0.1,0.8,0.1,1.7,0.1,2.6c0,0.4-0.3,0.7-0.4,1.2c0.3,0,0.4,0,0.6,0
		c-0.1,0.3-0.2,0.5-0.1,0.7c0,0.4,0.2,0.7,0.2,1.1c0,0.2,0.1,0.4,0.1,0.5c0,0.5,0,0.9-0.1,1.4c0,0.8,0.6,1.6,0.4,2.5
		c-0.1,0.3,0.2,0.7,0.2,1.1c0.1,1.2,0.6,2.4,1.1,3.5c0.2,0.5,0.3,0.9,0.1,1.4c-0.2,0.6-0.3,1.2-0.7,1.7c-0.3,0.4-0.9,0.7-1.3,1
		c0-0.1,0-0.1,0-0.2c-0.4,0.1-0.8,0.1-1.3,0.2c0,0-0.1-0.2-0.1-0.3c-0.4,0-0.8,0.2-1.1,0.1c-1-0.1-2-0.1-2.8-0.8
		c-1-0.8-1.9-1.5-1.8-3c0-0.6-0.4-1.2-0.5-1.9c-0.3-1.8-0.4-3.7-0.7-5.5c0,0,0-0.1,0-0.1c-0.4-1-0.3-2.1-0.3-3.1
		c-0.1-1.2-0.2-2.5-0.3-3.7c-0.1-2.1-0.2-4.1-0.4-6.2c0-0.9,0-1.8-0.1-2.6c0-0.6-0.2-1.1-0.3-1.7c0-0.3,0.1-0.5,0.2-0.8
		c0-0.1,0.2-0.4,0.1-0.4c-0.5-0.7-0.1-1.4-0.2-2.1c-0.2-1.3,0-2.6,0.1-3.9c0-0.1,0-0.2,0.1-0.3C302.1,517.6,302.1,517.5,302.2,517.5
		z M307.3,518.4c-0.3-0.5-0.3-1-0.8-1c-0.2,0.3-0.3,0.5-0.4,0.8c-0.1,0.3-0.1,0.6-0.1,0.8C306.2,518.4,306.7,518.4,307.3,518.4z
		 M303.3,522.3c0.1-0.4,0.2-0.6,0.2-0.9c0-0.1,0-0.3-0.1-0.4c0,0-0.3,0-0.3,0c-0.2,0.2-0.4,0.4-0.6,0.7
		C302.8,521.9,303,522.1,303.3,522.3z M308.8,548.9c0.8-0.2,1-0.6,0.7-1.1C309.3,548.2,309.1,548.5,308.8,548.9z"/>
	<path d="M317.9,504.4c0.1-0.4,0.2-0.7,0.3-0.9c0.7,0.3,1.3,0.7,2,1.1c-0.3,0.3-0.7,0.6-1.1,0.9c-0.3-0.7-0.7-0.5-1.1-0.3
		C317.4,504.6,317.4,504.6,317.9,504.4z"/>
	<path d="M303.4,515.6c-0.4,0.5-0.8,1-1.3,1.5c-0.8-1.3-0.6-1.9,0.7-2.7c-0.1,0.4-0.1,0.8-0.2,1.3c0.3-0.1,0.5-0.2,0.6-0.3
		C303.3,515.5,303.4,515.6,303.4,515.6z"/>
	<path d="M220.2,522.3c-0.5,0-0.9,0-1.2-0.1c-0.1,0-0.3-0.1-0.4-0.2c-0.4-0.5-0.2-1.5,0.4-1.9c0,0.1,0.1,0.1,0.1,0.2
		c0,0.7,0.3,1,0.8,1.4C220.1,521.9,220.1,522.1,220.2,522.3z"/>
	<path d="M304.3,515.2c0.2,0,0.4-0.1,0.6-0.1c0-0.1,0-0.3,0-0.5c0.4,0,0.8,0,1.1,0c0.1,0,0.2,0.2,0.2,0.3c0,0.1-0.2,0.4-0.2,0.4
		c-0.6-0.1-0.6,0.4-0.6,0.7c-0.7,0.3-0.9-1.2-1.7-0.2c0.1-0.5,0.1-0.8,0.2-1c0.1,0,0.1,0,0.2,0C304.1,514.9,304.2,515.1,304.3,515.2
		z"/>
	<path d="M228.5,520.1c0.1,0.2,0.1,0.3,0.2,0.5c0.2-0.1,0.3-0.1,0.5-0.2c0,0.2,0,0.5,0,0.9c-0.3,0-0.8,0.1-1-0.1
		C227.7,520.8,228.3,520.4,228.5,520.1z"/>
	<path d="M234,524.5c-0.6-0.4-0.7-0.8-0.3-1.5c0.2,0.6,0.3,1,0.5,1.4C234.1,524.4,234.1,524.5,234,524.5z"/>
	<path d="M286,660.9c-0.4,0.6-0.5,0.6-1.3,0C285.1,660.9,285.6,660.9,286,660.9z"/>
	<path d="M231.5,520.4c0.2,0.4,0.4,0.6,0.6,1c-0.3,0-0.5-0.1-0.7-0.1C231.4,521.1,231.5,520.8,231.5,520.4z"/>
	<path d="M264.2,521.3C264.2,521.3,264.2,521.3,264.2,521.3C264.2,521.3,264.2,521.3,264.2,521.3z"/>
</g>
</svg>
