<?xml version="1.0" encoding="utf-8"?>
<!-- Generator: Adobe Illustrator 18.1.0, SVG Export Plug-In . SVG Version: 6.00 Build 0)  -->
<!DOCTYPE svg PUBLIC "-//W3C//DTD SVG 1.1//EN" "http://www.w3.org/Graphics/SVG/1.1/DTD/svg11.dtd">
<svg version="1.1" id="Layer_1" xmlns="http://www.w3.org/2000/svg" xmlns:xlink="http://www.w3.org/1999/xlink" x="0px" y="0px"
	 viewBox="0 0 612 792" style="enable-background:new 0 0 612 792;" xml:space="preserve">
<polygon style="fill:#868982;" points="127.5,496.4 130.2,311.7 291.6,221.7 450.2,316.4 447.4,501.1 286,591.1 "/>
<rect x="233.7" y="375.3" style="fill:none;" width="220.3" height="94.6"/>
<g style="enable-background:new    ;">
	<path style="fill:#FFFFFF;" d="M253.8,384.9l-0.2,15.3c0,7.2,0.6,13.3,1.9,18.2v0.1c-0.5,2.5-0.8,5.5-0.8,9l1,21.3
		c0,3.9-1.1,5.8-3.4,5.8c-1.3,0-2.3-0.6-2.9-1.9c-0.6-1.2-0.9-2.6-0.9-4.1l0.9-19c0-4.1-0.3-10.3-0.8-18.5
		c-0.5-8.2-0.8-14.4-0.8-18.5l0.2-10.4c0-5.7-0.4-9.4-1.1-11.1l-6.4,0.6c-1,0-1.9-0.3-2.7-0.9c-0.8-0.6-1.2-1.4-1.2-2.3
		c0-0.9,0.9-1.8,2.8-2.4c1.9-0.7,4.2-1.2,7-1.5c4.8-0.5,8.8-0.8,12-0.8c1,0,1.8,0.3,2.6,1c0.8,0.6,1.2,1.4,1.2,2.4
		c0,1-0.3,1.7-1,2.3c-0.7,0.6-1.5,0.8-2.6,0.8l-4.2-0.2c-0.5,0-0.9,0-1.2,0.1C253.5,374.8,253.8,379.7,253.8,384.9z"/>
	<path style="fill:#FFFFFF;" d="M298.2,421.8c0,22.8-4.7,34.1-14,34.1c-8.6,0-13.4-10.8-14.4-32.3c-0.1-2-0.1-4.1-0.1-6.1l-0.1-7.2
		v-2.3c0-16.7,2.5-27.1,7.4-31c1.2-1,2.5-1.5,4-1.6c1.1,0.4,2.5,0.7,4.1,1.1c1.6,0.3,2.8,0.7,3.6,1c1.4,0.7,3,2.4,4.6,5.1
		c1.7,2.8,2.9,6.5,3.7,11.1c0.8,4.6,1.2,9.2,1.2,13.9V421.8z M276.1,393.9l0.2,7l-0.1,11.4c0,1,0,2.1,0.1,3.4c0,1.3,0.1,3,0.1,5.2
		c0.1,2.1,0.2,4.3,0.3,6.4s0.4,4.3,0.6,6.7c0.2,2.3,0.5,4.5,0.9,6.5c0.4,2,0.8,3.8,1.3,5.4c1,3.5,2.4,5.3,4.1,5.3
		c2.3,0,4-2.1,5.2-6.4c1.8-6.4,2.7-14.2,2.7-23.5l0.2-12.2c0-8.6-0.4-14.4-1.1-17.3c-0.8-3-1.5-5.2-2.1-6.7c-1.3-3.1-3.3-4.6-6-4.6
		c-0.1,0-0.2,0-0.2,0C278.2,380.2,276.1,384.8,276.1,393.9z"/>
	<path style="fill:#FFFFFF;" d="M310.3,402.5l0.2-11.3c0-4.7-0.3-8.3-1-11c0.2-1,0.6-2,1.1-2.8c0.6-0.9,1.3-1.3,2.1-1.3h5.2
		c4.6,0,7.8,1.9,9.6,5.7c1.6,3.4,2.4,7.2,2.4,11.6c0,5.5-0.1,8.9-0.4,10.2c-0.3,1.3-0.6,2.4-0.9,3.6c-0.3,1.1-0.7,2-1.1,2.7
		c-0.4,0.7-1,1.5-1.7,2.3c-0.7,0.8-1.5,1.5-2.4,2.1c-2,1.3-4.3,2.4-7.1,3.2v12.7l0.9,22.5c0,1-0.3,1.8-1,2.5c-0.7,0.7-1.5,1-2.6,1
		h-2.9c-0.5-2.2-0.7-5.4-0.7-9.7l-0.3-30.4L310.3,402.5z M317,389.2l-0.6,23.1v0.2c4.8-0.7,7.2-7.3,7.2-20.1c0-4.6-1-7.6-3.1-8.9
		c-0.9-0.6-2.1-0.9-3.5-0.9V389.2z"/>
</g>
<polygon style="fill:none;stroke:#FFFFFF;stroke-miterlimit:10;" points="143.5,488.7 145.9,322.3 291.2,241.3 433.9,326.6 
	431.5,492.9 286.2,573.8 "/>
</svg>
