<?xml version="1.0" encoding="utf-8"?>
<!-- Generator: Adobe Illustrator 18.1.0, SVG Export Plug-In . SVG Version: 6.00 Build 0)  -->
<!DOCTYPE svg PUBLIC "-//W3C//DTD SVG 1.1//EN" "http://www.w3.org/Graphics/SVG/1.1/DTD/svg11.dtd">
<svg version="1.1" id="Layer_1" xmlns="http://www.w3.org/2000/svg" xmlns:xlink="http://www.w3.org/1999/xlink" x="0px" y="0px"
	 viewBox="0 0 612 792" enable-background="new 0 0 612 792" xml:space="preserve">
<rect x="45.6" y="355.8" fill="#DBB7BE" width="515.4" height="155.8"/>
<rect x="237.8" y="379.9" fill="none" width="306.7" height="131.7"/>
<g>
	<rect x="219.5" y="396" fill="none" width="259.6" height="82.4"/>
	<path fill="#FFFFFF" d="M251.4,446.6c0,1.2,0.1,2,0.3,2.7c0.2,0.7,0.5,1.2,0.9,1.5c0.4,0.4,0.8,0.6,1.3,0.7c0.5,0.1,1,0.2,1.5,0.2
		h3.3v4.2h-27.2v-4.2h3.3c0.6,0,1.2-0.1,1.6-0.2c0.5-0.2,0.9-0.4,1.2-0.7c0.4-0.4,0.6-0.9,0.9-1.5c0.2-0.7,0.3-1.5,0.3-2.7v-42.1
		h-6.3c-1.2,0-2.2,0.2-2.9,0.4c-0.8,0.2-1.5,0.6-1.9,1.1s-0.9,1.1-1.1,1.8c-0.2,0.7-0.4,1.5-0.5,2.3l-0.5,4.9h-5.3l0.4-15.3h49.1
		l0.4,15.3h-5.3l-0.5-4.9c-0.1-0.9-0.3-1.6-0.5-2.3c-0.2-0.7-0.6-1.3-1.1-1.8c-0.5-0.5-1.2-0.9-1.9-1.1s-1.8-0.4-2.9-0.4h-6.3
		L251.4,446.6L251.4,446.6z"/>
	<path fill="#FFFFFF" d="M313.2,434.6c0,7.4-1.7,13-5.2,16.6s-8.6,5.5-15.3,5.5c-3.2,0-6-0.5-8.5-1.4c-2.5-0.9-4.6-2.2-6.4-4.1
		c-1.8-1.9-3.1-4.1-4-6.9s-1.4-6-1.4-9.7c0-7.4,1.7-12.9,5.2-16.5c3.5-3.6,8.6-5.4,15.4-5.4c3.2,0,5.9,0.5,8.5,1.3
		c2.5,0.9,4.6,2.2,6.4,4.1c1.8,1.9,3.1,4.1,4,6.9C312.7,427.7,313.2,430.9,313.2,434.6z M284.5,434.6c0,2.8,0.2,5.3,0.5,7.4
		c0.3,2.2,0.8,3.9,1.4,5.3c0.6,1.5,1.5,2.5,2.6,3.2c1.1,0.7,2.3,1.1,3.9,1.1c1.5,0,2.8-0.4,3.9-1.1c1-0.7,1.9-1.8,2.5-3.2
		c0.6-1.5,1.2-3.2,1.4-5.3c0.3-2.2,0.4-4.6,0.4-7.4s-0.2-5.3-0.5-7.4c-0.3-2.1-0.8-3.9-1.4-5.3c-0.6-1.4-1.5-2.5-2.5-3.2
		c-1.1-0.7-2.3-1.1-3.9-1.1c-1.5,0-2.8,0.4-3.9,1.1c-1.1,0.7-1.9,1.8-2.5,3.2s-1.1,3.2-1.4,5.3C284.7,429.3,284.5,431.8,284.5,434.6
		z"/>
	<path fill="#FFFFFF" d="M318.8,470.6c0.6,0,1.2-0.1,1.9-0.2c0.6-0.2,1.2-0.4,1.8-0.7c0.5-0.4,1-0.9,1.4-1.5
		c0.4-0.7,0.5-1.5,0.5-2.7v-42.2c0-1.2-0.2-2.2-0.4-2.9c-0.2-0.7-0.6-1.2-1.1-1.6c-0.5-0.4-1-0.6-1.7-0.8c-0.6-0.2-1.4-0.2-2.1-0.2
		h-0.5v-4.2H334l1.4,6.2h0.3c0.5-1,1.2-1.9,2-2.8s1.6-1.5,2.6-2.2c1-0.6,2.1-1.1,3.3-1.4c1.2-0.3,2.6-0.5,4.1-0.5
		c2.6,0,4.9,0.5,7,1.3s3.7,2.2,5,4c1.4,1.8,2.4,4.1,3.1,6.9c0.7,2.8,1.1,6.1,1.1,9.9c0,3.8-0.3,7.1-1,9.8c-0.7,2.7-1.7,5-3.1,6.8
		c-1.3,1.8-3,3.1-4.9,4c-1.9,0.9-4.2,1.3-6.8,1.3c-3,0-5.4-0.5-7.3-1.7c-1.9-1.2-3.4-2.7-4.5-4.6h-0.5c0.1,1.2,0.2,2.4,0.3,3.6
		c0.1,1,0.2,2,0.2,3.1c0.1,1.1,0.1,2.1,0.1,2.9v5.4c0,1.2,0.2,2,0.5,2.7c0.4,0.7,0.9,1.2,1.4,1.5c0.5,0.4,1.2,0.6,1.8,0.7
		c0.6,0.1,1.2,0.2,1.9,0.2h1.7v4.2h-25.8v-4.2h1V470.6z M344.5,451c2.6,0,4.6-1.3,5.6-4c1.2-2.6,1.7-6.6,1.7-12.1
		c0-5.3-0.5-9.3-1.7-12.1c-1.2-2.8-3-4.2-5.6-4.2c-1.5,0-2.9,0.4-3.9,1.1c-1.1,0.7-1.9,1.8-2.5,3.1c-0.6,1.4-1.1,3.1-1.3,5.1
		c-0.2,2-0.4,4.3-0.4,6.9c0,2.7,0.2,5.1,0.4,7.1s0.7,3.7,1.3,5c0.6,1.3,1.5,2.3,2.5,3C341.6,450.7,342.9,451,344.5,451z"/>
</g>
</svg>
