<?xml version="1.0" encoding="utf-8"?>
<!-- Generator: Adobe Illustrator 18.1.0, SVG Export Plug-In . SVG Version: 6.00 Build 0)  -->
<!DOCTYPE svg PUBLIC "-//W3C//DTD SVG 1.1//EN" "http://www.w3.org/Graphics/SVG/1.1/DTD/svg11.dtd">
<svg version="1.1" id="Layer_1" xmlns="http://www.w3.org/2000/svg" xmlns:xlink="http://www.w3.org/1999/xlink" x="0px" y="0px"
	 viewBox="0 0 792 612" enable-background="new 0 0 792 612" xml:space="preserve">
<rect x="307.8" y="285.2" fill="none" width="396.9" height="170.4"/>
<g>
	<rect x="284" y="306" fill="none" width="336" height="106.6"/>
	<path fill="#FFFFFF" d="M325.4,371.5c0,1.5,0.1,2.6,0.4,3.5c0.3,0.9,0.6,1.5,1.1,2c0.5,0.5,1,0.8,1.7,0.9c0.6,0.1,1.3,0.2,2,0.2
		h4.3v5.4h-35.2v-5.4h4.3c0.8,0,1.5-0.1,2.1-0.2c0.6-0.2,1.2-0.5,1.6-0.9c0.5-0.5,0.8-1.1,1.1-2c0.3-0.9,0.4-2,0.4-3.5v-54.5H301
		c-1.5,0-2.8,0.2-3.8,0.5c-1,0.3-1.9,0.8-2.5,1.4c-0.6,0.6-1.1,1.4-1.4,2.3c-0.3,0.9-0.5,1.9-0.7,3l-0.7,6.3H285l0.5-19.8h63.6
		l0.5,19.8h-6.8l-0.7-6.3c-0.1-1.1-0.4-2.1-0.7-3c-0.3-0.9-0.8-1.7-1.4-2.3c-0.6-0.6-1.5-1.1-2.5-1.4c-1-0.3-2.3-0.5-3.8-0.5h-8.2
		V371.5z"/>
	<path fill="#FFFFFF" d="M405.3,356c0,9.6-2.2,16.8-6.7,21.5c-4.5,4.7-11.1,7.1-19.8,7.1c-4.1,0-7.8-0.6-11-1.8
		c-3.3-1.2-6-2.9-8.3-5.3c-2.3-2.4-4-5.3-5.2-8.9c-1.2-3.6-1.8-7.8-1.8-12.6c0-9.6,2.2-16.7,6.7-21.4s11.1-7,19.9-7
		c4.1,0,7.7,0.6,11,1.7c3.2,1.2,6,2.9,8.3,5.3c2.3,2.4,4,5.3,5.2,8.9C404.7,347,405.3,351.2,405.3,356z M368.2,356
		c0,3.6,0.2,6.8,0.6,9.6c0.4,2.8,1,5.1,1.8,6.9c0.8,1.9,1.9,3.3,3.3,4.2c1.4,0.9,3,1.4,5,1.4c2,0,3.6-0.5,5-1.4
		c1.3-0.9,2.4-2.3,3.3-4.2c0.8-1.9,1.5-4.2,1.8-6.9c0.4-2.8,0.5-5.9,0.5-9.6c0-3.7-0.2-6.8-0.6-9.6c-0.4-2.7-1-5-1.8-6.8
		c-0.8-1.8-2-3.2-3.3-4.1c-1.4-0.9-3-1.4-5-1.4c-2,0-3.6,0.5-5,1.4c-1.4,0.9-2.5,2.3-3.3,4.1c-0.8,1.8-1.4,4.1-1.8,6.8
		C368.4,349.1,368.2,352.3,368.2,356z"/>
	<path fill="#FFFFFF" d="M412.6,402.6c0.8,0,1.6-0.1,2.4-0.2c0.8-0.2,1.6-0.5,2.3-0.9c0.7-0.5,1.3-1.1,1.8-2c0.5-0.9,0.7-2,0.7-3.5
		v-54.6c0-1.6-0.2-2.8-0.5-3.7c-0.3-0.9-0.8-1.6-1.4-2.1s-1.3-0.8-2.2-1c-0.8-0.2-1.8-0.2-2.7-0.2h-0.7v-5.4h20l1.8,8h0.4
		c0.7-1.3,1.6-2.5,2.6-3.6s2.1-2,3.4-2.8s2.7-1.4,4.3-1.8c1.6-0.4,3.4-0.6,5.3-0.6c3.4,0,6.4,0.6,9,1.7c2.6,1.1,4.8,2.8,6.5,5.2
		c1.8,2.3,3.1,5.3,4,8.9s1.4,7.9,1.4,12.8c0,4.9-0.4,9.2-1.3,12.7s-2.2,6.5-4,8.8c-1.7,2.3-3.9,4-6.4,5.2c-2.5,1.1-5.5,1.7-8.8,1.7
		c-3.9,0-7-0.7-9.5-2.2c-2.4-1.5-4.4-3.5-5.8-6h-0.7c0.1,1.6,0.3,3.1,0.4,4.6c0.1,1.3,0.2,2.6,0.3,4c0.1,1.4,0.1,2.7,0.1,3.7v7
		c0,1.5,0.2,2.6,0.7,3.5c0.5,0.9,1.1,1.5,1.8,2c0.7,0.5,1.5,0.8,2.3,0.9c0.8,0.1,1.6,0.2,2.4,0.2h2.2v5.4h-33.4v-5.4H412.6z
		 M445.8,377.2c3.4,0,5.9-1.7,7.3-5.2c1.5-3.4,2.2-8.6,2.2-15.6c0-6.8-0.7-12-2.2-15.6c-1.5-3.6-3.9-5.4-7.2-5.4
		c-2,0-3.7,0.5-5.1,1.4c-1.4,0.9-2.4,2.3-3.2,4c-0.8,1.8-1.4,4-1.7,6.6c-0.3,2.6-0.5,5.6-0.5,8.9c0,3.5,0.2,6.6,0.5,9.2
		c0.3,2.6,0.9,4.8,1.7,6.5c0.8,1.7,1.9,3,3.2,3.9C442.1,376.8,443.7,377.2,445.8,377.2z"/>
</g>
<rect x="59" y="254" fill="none" stroke="#FFFFFF" stroke-width="17" stroke-miterlimit="10" width="667" height="201.6"/>
</svg>
