<?xml version="1.0" encoding="utf-8"?>
<!-- Generator: Adobe Illustrator 18.1.0, SVG Export Plug-In . SVG Version: 6.00 Build 0)  -->
<!DOCTYPE svg PUBLIC "-//W3C//DTD SVG 1.1//EN" "http://www.w3.org/Graphics/SVG/1.1/DTD/svg11.dtd">
<svg version="1.1" id="Layer_1" xmlns="http://www.w3.org/2000/svg" xmlns:xlink="http://www.w3.org/1999/xlink" x="0px" y="0px"
	 viewBox="0 0 792 612" enable-background="new 0 0 792 612" xml:space="preserve">
<polygon fill="none" stroke="#FFFFFF" stroke-width="4" stroke-miterlimit="10" points="380.1,68.7 147.8,483.6 625.4,483.6 "/>
<rect x="307.8" y="285.2" fill="none" width="396.9" height="170.4"/>
<g>
	<path fill="#FFFFFF" d="M327.7,314.1l-0.4,27.6c0,13,1.1,24,3.4,32.8v0.2c-0.9,4.5-1.4,9.9-1.4,16.2l1.8,38.4c0,7-2,10.4-6.1,10.4
		c-2.3,0-4.1-1.1-5.2-3.4c-1.1-2.2-1.6-4.7-1.6-7.4l1.6-34.2c0-7.4-0.5-18.6-1.4-33.3c-0.9-14.8-1.4-25.9-1.4-33.3l0.4-18.7
		c0-10.3-0.7-16.9-2-20l-11.5,1.1c-1.8,0-3.4-0.5-4.9-1.6c-1.4-1.1-2.2-2.5-2.2-4.1c0-1.6,1.6-3.2,5-4.3c3.4-1.3,7.6-2.2,12.6-2.7
		c8.6-0.9,15.9-1.4,21.6-1.4c1.8,0,3.2,0.5,4.7,1.8c1.4,1.1,2.2,2.5,2.2,4.3c0,1.8-0.5,3.1-1.8,4.1c-1.3,1.1-2.7,1.4-4.7,1.4
		l-7.6-0.4c-0.9,0-1.6,0-2.2,0.2C327.2,295.9,327.7,304.8,327.7,314.1z"/>
	<path fill="#FFFFFF" d="M407.7,380.6c0,41.1-8.5,61.4-25.2,61.4c-15.5,0-24.1-19.5-25.9-58.2c-0.2-3.6-0.2-7.4-0.2-11l-0.2-13v-4.1
		c0-30.1,4.5-48.8,13.3-55.8c2.2-1.8,4.5-2.7,7.2-2.9c2,0.7,4.5,1.3,7.4,2c2.9,0.5,5,1.3,6.5,1.8c2.5,1.3,5.4,4.3,8.3,9.2
		c3.1,5,5.2,11.7,6.7,20c1.4,8.3,2.2,16.6,2.2,25L407.7,380.6L407.7,380.6z M367.9,330.4l0.4,12.6l-0.2,20.5c0,1.8,0,3.8,0.2,6.1
		c0,2.3,0.2,5.4,0.2,9.4c0.2,3.8,0.4,7.7,0.5,11.5c0.2,3.8,0.7,7.7,1.1,12.1c0.4,4.1,0.9,8.1,1.6,11.7c0.7,3.6,1.4,6.8,2.3,9.7
		c1.8,6.3,4.3,9.5,7.4,9.5c4.1,0,7.2-3.8,9.4-11.5c3.2-11.5,4.9-25.6,4.9-42.3l0.4-22c0-15.5-0.7-25.9-2-31.2
		c-1.4-5.4-2.7-9.4-3.8-12.1c-2.3-5.6-5.9-8.3-10.8-8.3c-0.2,0-0.4,0-0.4,0C371.7,305.7,367.9,314,367.9,330.4z"/>
	<path fill="#FFFFFF" d="M429.5,345.8l0.4-20.4c0-8.5-0.5-15-1.8-19.8c0.4-1.8,1.1-3.6,2-5c1.1-1.6,2.3-2.3,3.8-2.3h9.4
		c8.3,0,14.1,3.4,17.3,10.3c2.9,6.1,4.3,13,4.3,20.9c0,9.9-0.2,16-0.7,18.4c-0.5,2.3-1.1,4.3-1.6,6.5c-0.5,2-1.3,3.6-2,4.9
		c-0.7,1.3-1.8,2.7-3.1,4.1c-1.3,1.4-2.7,2.7-4.3,3.8c-3.6,2.3-7.7,4.3-12.8,5.8v22.9l1.6,40.5c0,1.8-0.5,3.2-1.8,4.5
		c-1.3,1.3-2.7,1.8-4.7,1.8h-5.2c-0.9-4-1.3-9.7-1.3-17.5l-0.5-54.8L429.5,345.8z M441.6,321.9l-1.1,41.6v0.4
		c8.6-1.3,13-13.2,13-36.2c0-8.3-1.8-13.7-5.6-16c-1.6-1.1-3.8-1.6-6.3-1.6V321.9z"/>
</g>
</svg>
