<?xml version="1.0" encoding="utf-8"?>
<!-- Generator: Adobe Illustrator 18.1.0, SVG Export Plug-In . SVG Version: 6.00 Build 0)  -->
<!DOCTYPE svg PUBLIC "-//W3C//DTD SVG 1.1//EN" "http://www.w3.org/Graphics/SVG/1.1/DTD/svg11.dtd">
<svg version="1.1" id="Layer_1" xmlns="http://www.w3.org/2000/svg" xmlns:xlink="http://www.w3.org/1999/xlink" x="0px" y="0px"
	 viewBox="0 0 792 612" enable-background="new 0 0 792 612" xml:space="preserve">
<polygon fill="#BD8982" points="258.1,383.6 260.2,240.9 384.9,171.3 507.4,244.5 505.3,387.2 380.5,456.8 "/>
<rect x="340.1" y="290" fill="none" width="170.2" height="73.1"/>
<g enable-background="new    ">
	<path fill="#FFFFFF" d="M355.7,297.4l-0.2,11.8c0,5.6,0.5,10.3,1.5,14.1v0.1c-0.4,1.9-0.6,4.2-0.6,7l0.8,16.5c0,3-0.9,4.5-2.6,4.5
		c-1,0-1.8-0.5-2.2-1.5c-0.5-0.9-0.7-2-0.7-3.2l0.7-14.7c0-3.2-0.2-8-0.6-14.3c-0.4-6.3-0.6-11.1-0.6-14.3l0.2-8
		c0-4.4-0.3-7.3-0.9-8.6l-4.9,0.5c-0.8,0-1.5-0.2-2.1-0.7c-0.6-0.5-0.9-1.1-0.9-1.8c0-0.7,0.7-1.4,2.2-1.9c1.5-0.5,3.2-0.9,5.4-1.2
		c3.7-0.4,6.8-0.6,9.3-0.6c0.8,0,1.4,0.2,2,0.8c0.6,0.5,0.9,1.1,0.9,1.9s-0.2,1.3-0.8,1.8c-0.5,0.5-1.2,0.6-2,0.6l-3.2-0.2
		c-0.4,0-0.7,0-0.9,0.1C355.4,289.6,355.7,293.4,355.7,297.4z"/>
	<path fill="#FFFFFF" d="M390,325.9c0,17.6-3.6,26.4-10.8,26.4c-6.6,0-10.4-8.3-11.1-25c-0.1-1.5-0.1-3.2-0.1-4.7l-0.1-5.6v-1.8
		c0-12.9,1.9-20.9,5.7-24c0.9-0.8,1.9-1.2,3.1-1.2c0.9,0.3,1.9,0.5,3.2,0.9c1.2,0.2,2.2,0.5,2.8,0.8c1.1,0.5,2.3,1.9,3.6,3.9
		c1.3,2.2,2.2,5,2.9,8.6c0.6,3.6,0.9,7.1,0.9,10.7L390,325.9L390,325.9z M372.9,304.4l0.2,5.4l-0.1,8.8c0,0.8,0,1.6,0.1,2.6
		c0,1,0.1,2.3,0.1,4c0.1,1.6,0.2,3.3,0.2,4.9c0.1,1.6,0.3,3.3,0.5,5.2c0.2,1.8,0.4,3.5,0.7,5c0.3,1.5,0.6,2.9,1,4.2
		c0.8,2.7,1.9,4.1,3.2,4.1c1.8,0,3.1-1.6,4-4.9c1.4-4.9,2.1-11,2.1-18.2l0.2-9.4c0-6.6-0.3-11.1-0.9-13.4c-0.6-2.3-1.2-4-1.6-5.2
		c-1-2.4-2.5-3.6-4.6-3.6c-0.1,0-0.2,0-0.2,0C374.5,293.8,372.9,297.3,372.9,304.4z"/>
	<path fill="#FFFFFF" d="M399.3,311l0.2-8.7c0-3.6-0.2-6.4-0.8-8.5c0.2-0.8,0.5-1.5,0.9-2.2c0.5-0.7,1-1,1.6-1h4
		c3.6,0,6,1.5,7.4,4.4c1.2,2.6,1.9,5.6,1.9,9c0,4.2-0.1,6.9-0.3,7.9s-0.5,1.9-0.7,2.8c-0.2,0.9-0.5,1.5-0.9,2.1s-0.8,1.2-1.3,1.8
		c-0.5,0.6-1.2,1.2-1.9,1.6c-1.5,1-3.3,1.9-5.5,2.5v9.8l0.7,17.4c0,0.8-0.2,1.4-0.8,1.9c-0.5,0.5-1.2,0.8-2,0.8h-2.2
		c-0.4-1.7-0.5-4.2-0.5-7.5l-0.2-23.5L399.3,311z M404.5,300.7l-0.5,17.9v0.2c3.7-0.5,5.6-5.6,5.6-15.5c0-3.6-0.8-5.9-2.4-6.9
		c-0.7-0.5-1.6-0.7-2.7-0.7V300.7z"/>
</g>
<polygon fill="none" stroke="#FFFFFF" stroke-miterlimit="10" points="270.4,377.6 272.3,249 384.6,186.5 494.8,252.4 493,380.9 
	380.7,443.4 "/>
</svg>
