<?xml version="1.0" encoding="utf-8"?>
<!-- Generator: Adobe Illustrator 18.1.0, SVG Export Plug-In . SVG Version: 6.00 Build 0)  -->
<!DOCTYPE svg PUBLIC "-//W3C//DTD SVG 1.1//EN" "http://www.w3.org/Graphics/SVG/1.1/DTD/svg11.dtd">
<svg version="1.1" id="Layer_1" xmlns="http://www.w3.org/2000/svg" xmlns:xlink="http://www.w3.org/1999/xlink" x="0px" y="0px"
	 viewBox="0 0 960 560" enable-background="new 0 0 960 560" xml:space="preserve">
<rect x="399.3" y="261" fill="none" width="363.2" height="155.9"/>
<g>
	<rect x="377.5" y="280" fill="none" width="307.5" height="97.5"/>
	<path fill="#FFFFFF" d="M415.4,339.9c0,1.4,0.1,2.4,0.4,3.2c0.3,0.8,0.5,1.4,1,1.8s0.9,0.7,1.6,0.8c0.5,0.1,1.2,0.2,1.8,0.2h3.9
		v4.9h-32.2V346h3.9c0.7,0,1.4-0.1,1.9-0.2c0.5-0.2,1.1-0.5,1.5-0.8c0.5-0.5,0.7-1,1-1.8c0.3-0.8,0.4-1.8,0.4-3.2v-49.9h-7.5
		c-1.4,0-2.6,0.2-3.5,0.5c-0.9,0.3-1.7,0.7-2.3,1.3c-0.5,0.5-1,1.3-1.3,2.1c-0.3,0.8-0.5,1.7-0.6,2.7l-0.6,5.8h-6.3l0.5-18.1h58.2
		l0.5,18.1h-6.2l-0.6-5.8c-0.1-1-0.4-1.9-0.6-2.7c-0.3-0.8-0.7-1.6-1.3-2.1c-0.5-0.5-1.4-1-2.3-1.3c-0.9-0.3-2.1-0.5-3.5-0.5h-7.5
		L415.4,339.9L415.4,339.9z"/>
	<path fill="#FFFFFF" d="M488.5,325.8c0,8.8-2,15.4-6.1,19.7s-10.2,6.5-18.1,6.5c-3.8,0-7.1-0.5-10.1-1.6c-3-1.1-5.5-2.7-7.6-4.8
		s-3.7-4.8-4.8-8.1c-1.1-3.3-1.6-7.1-1.6-11.5c0-8.8,2-15.3,6.1-19.6c4.1-4.3,10.2-6.4,18.2-6.4c3.8,0,7,0.5,10.1,1.6
		c2.9,1.1,5.5,2.7,7.6,4.8c2.1,2.2,3.7,4.8,4.8,8.1C488,317.5,488.5,321.4,488.5,325.8z M454.6,325.8c0,3.3,0.2,6.2,0.5,8.8
		c0.4,2.6,0.9,4.7,1.6,6.3c0.7,1.7,1.7,3,3,3.8s2.7,1.3,4.6,1.3c1.8,0,3.3-0.5,4.6-1.3c1.2-0.8,2.2-2.1,3-3.8
		c0.7-1.7,1.4-3.8,1.6-6.3c0.4-2.6,0.5-5.4,0.5-8.8c0-3.4-0.2-6.2-0.5-8.8c-0.4-2.5-0.9-4.6-1.6-6.2c-0.7-1.6-1.8-2.9-3-3.8
		c-1.3-0.8-2.7-1.3-4.6-1.3c-1.8,0-3.3,0.5-4.6,1.3s-2.3,2.1-3,3.8c-0.7,1.6-1.3,3.8-1.6,6.2C454.7,319.4,454.6,322.4,454.6,325.8z"
		/>
	<path fill="#FFFFFF" d="M495.2,368.4c0.7,0,1.5-0.1,2.2-0.2c0.7-0.2,1.5-0.5,2.1-0.8c0.6-0.5,1.2-1,1.6-1.8
		c0.5-0.8,0.6-1.8,0.6-3.2v-50c0-1.5-0.2-2.6-0.5-3.4s-0.7-1.5-1.3-1.9c-0.5-0.5-1.2-0.7-2-0.9c-0.7-0.2-1.6-0.2-2.5-0.2h-0.6V301
		h18.3l1.6,7.3h0.4c0.6-1.2,1.5-2.3,2.4-3.3c0.9-1,1.9-1.8,3.1-2.6c1.2-0.7,2.5-1.3,3.9-1.6s3.1-0.5,4.8-0.5c3.1,0,5.9,0.5,8.2,1.6
		c2.4,1,4.4,2.6,5.9,4.8c1.6,2.1,2.8,4.8,3.7,8.1c0.8,3.3,1.3,7.2,1.3,11.7c0,4.5-0.4,8.4-1.2,11.6c-0.8,3.2-2,5.9-3.7,8.1
		c-1.6,2.1-3.6,3.7-5.9,4.8c-2.3,1-5,1.6-8.1,1.6c-3.6,0-6.4-0.6-8.7-2c-2.2-1.4-4-3.2-5.3-5.5h-0.6c0.1,1.5,0.3,2.8,0.4,4.2
		c0.1,1.2,0.2,2.4,0.3,3.7c0.1,1.3,0.1,2.5,0.1,3.4v6.4c0,1.4,0.2,2.4,0.6,3.2s1,1.4,1.6,1.8c0.6,0.5,1.4,0.7,2.1,0.8
		c0.7,0.1,1.5,0.2,2.2,0.2h2v4.9H494v-4.9h1.2V368.4z M525.6,345.2c3.1,0,5.4-1.6,6.7-4.8c1.4-3.1,2-7.9,2-14.3c0-6.2-0.6-11-2-14.3
		c-1.4-3.3-3.6-4.9-6.6-4.9c-1.8,0-3.4,0.5-4.7,1.3c-1.3,0.8-2.2,2.1-2.9,3.7c-0.7,1.6-1.3,3.7-1.6,6s-0.5,5.1-0.5,8.1
		c0,3.2,0.2,6,0.5,8.4c0.3,2.4,0.8,4.4,1.6,5.9c0.7,1.6,1.7,2.7,2.9,3.6C522.2,344.8,523.6,345.2,525.6,345.2z"/>
</g>
<rect x="171.6" y="232.4" fill="none" stroke="#DBB7BE" stroke-width="17" stroke-miterlimit="10" width="610.3" height="184.5"/>
</svg>
