<?xml version="1.0" encoding="utf-8"?>
<!-- Generator: Adobe Illustrator 18.1.0, SVG Export Plug-In . SVG Version: 6.00 Build 0)  -->
<!DOCTYPE svg PUBLIC "-//W3C//DTD SVG 1.1//EN" "http://www.w3.org/Graphics/SVG/1.1/DTD/svg11.dtd">
<svg version="1.1" id="Layer_1" xmlns="http://www.w3.org/2000/svg" xmlns:xlink="http://www.w3.org/1999/xlink" x="0px" y="0px"
	 viewBox="0 0 960 560" enable-background="new 0 0 960 560" xml:space="preserve">
<path fill="#DBB7BE" d="M472.7,177.7c-71.4,0-129.2,57.8-129.2,129.2s57.8,129.2,129.2,129.2s129.2-57.8,129.2-129.2
	S544,177.7,472.7,177.7z M523.6,289.9c2.8,29.8-21.2,71.2-67.9,71.5c-12.8,0.1-24.7-3.5-34.9-9.6c0.3,0,17.7,1.2,33.7-10.6
	c-10.5-0.5-19.4-7.5-22.6-17.1c2,0.5,7.3,1.5,11.6,0.2c-10.9-2.4-19.2-11.7-19.8-23.2c3,1.3,6.2,2,9.6,2.1
	c-5.9-4.6-14.4-17.5-6.2-32.4c11.4,14.7,29.1,24.3,49,24.7c-0.1-0.2-0.5-4.1-0.5-5c0-11.8,9.1-24,24-24c7,0,13.4,3,17.7,7.9
	c6.7-1.3,13.6-5.1,15.1-6c-1.9,5.5-5.7,10.1-10.6,13c0.1,0.1,0.1,0.2,0.1,0.2c4.7-0.5,9.1-1.8,13.2-3.6
	C532.9,283.4,528.7,287.6,523.6,289.9z"/>
</svg>
