<?xml version="1.0" encoding="utf-8"?>
<!-- Generator: Adobe Illustrator 18.1.0, SVG Export Plug-In . SVG Version: 6.00 Build 0)  -->
<!DOCTYPE svg PUBLIC "-//W3C//DTD SVG 1.1//EN" "http://www.w3.org/Graphics/SVG/1.1/DTD/svg11.dtd">
<svg version="1.1" id="Layer_1" xmlns="http://www.w3.org/2000/svg" xmlns:xlink="http://www.w3.org/1999/xlink" x="0px" y="0px"
	 viewBox="0 0 419.6 339.1" enable-background="new 0 0 419.6 339.1" xml:space="preserve">
<path fill="#FFFFFF" d="M162,116.1c-29.5,0-53.5,24-53.5,53.5c0,29.5,24,53.5,53.5,53.5c29.5,0,53.5-24,53.5-53.5
	C215.5,140.1,191.6,116.1,162,116.1z M183.1,162.6c1.2,12.3-8.8,29.5-28.1,29.6c-5.3,0-10.2-1.5-14.5-4c0.1,0,7.3,0.5,14-4.4
	c-4.4-0.2-8-3.1-9.3-7.1c0.8,0.2,3,0.6,4.8,0.1c-4.5-1-7.9-4.9-8.2-9.6c1.2,0.5,2.6,0.8,4,0.9c-2.4-1.9-6-7.2-2.6-13.4
	c4.7,6.1,12,10.1,20.3,10.3c0-0.1-0.2-1.7-0.2-2c0-4.9,3.8-9.9,9.9-9.9c2.9,0,5.5,1.3,7.3,3.2c2.8-0.5,5.6-2.1,6.2-2.5
	c-0.8,2.3-2.4,4.2-4.4,5.4c0,0,0,0.1,0,0.1c1.9-0.2,3.8-0.7,5.5-1.5C187,159.9,185.2,161.6,183.1,162.6z"/>
</svg>
