<?xml version="1.0" encoding="utf-8"?>
<!-- Generator: Adobe Illustrator 18.1.0, SVG Export Plug-In . SVG Version: 6.00 Build 0)  -->
<!DOCTYPE svg PUBLIC "-//W3C//DTD SVG 1.1//EN" "http://www.w3.org/Graphics/SVG/1.1/DTD/svg11.dtd">
<svg version="1.1" id="Layer_1" xmlns="http://www.w3.org/2000/svg" xmlns:xlink="http://www.w3.org/1999/xlink" x="0px" y="0px"
	 viewBox="0 0 1044.9 926" enable-background="new 0 0 1044.9 926" xml:space="preserve">
<path fill="#FFFFFF" d="M510.4,293.9c-118,0-213.6,95.6-213.6,213.6c0,118,95.6,213.6,213.6,213.6c118,0,213.6-95.6,213.6-213.6
	C724,389.5,628.3,293.9,510.4,293.9z M594.6,479.4c4.7,49.2-35,117.8-112.3,118.3c-21.1,0.1-40.8-5.8-57.7-15.9
	c0.5,0,29.2,2,55.8-17.6c-17.4-0.9-32-12.4-37.3-28.2c3.3,0.9,12,2.4,19.2,0.4c-18-3.9-31.7-19.4-32.7-38.3
	c4.9,2.1,10.2,3.3,15.9,3.4c-9.7-7.6-23.8-28.9-10.3-53.5c18.8,24.3,48.1,40.2,81.1,40.9c-0.1-0.4-0.8-6.7-0.8-8.2
	c0-19.5,15.1-39.7,39.7-39.7c11.6,0,22.1,5,29.3,13c11.1-2.1,22.5-8.5,24.9-10c-3.1,9.1-9.4,16.7-17.6,21.5c0.1,0.1,0.1,0.3,0.2,0.4
	c7.7-0.9,15.1-3,21.9-5.9C609.9,468.6,603,475.5,594.6,479.4z"/>
</svg>
